<?xml version="1.0" standalone="no"?>
<!DOCTYPE svg PUBLIC "-//W3C//DTD SVG 20010904//EN"
 "http://www.w3.org/TR/2001/REC-SVG-20010904/DTD/svg10.dtd">
<svg version="1.0" xmlns="http://www.w3.org/2000/svg"
 width="1080.000000pt" height="1080.000000pt" viewBox="0 0 1080.000000 1080.000000"
 preserveAspectRatio="xMidYMid meet">
<metadata>
Created by potrace 1.14, written by Peter Selinger 2001-2017
</metadata>
<g transform="translate(0.000000,1080.000000) scale(0.100000,-0.100000)"
fill="#000000" stroke="none">
<path d="M5386 10342 c-2 -4 -52 -8 -110 -7 -58 0 -106 -2 -106 -5 0 -3 -18
-6 -40 -6 -28 -2 -38 2 -33 10 4 7 1 7 -9 -1 -8 -7 -18 -10 -21 -6 -4 3 -7 1
-7 -6 0 -9 -5 -9 -20 -1 -14 8 -20 8 -20 0 0 -7 -6 -8 -19 0 -12 6 -22 6 -25
1 -3 -5 -24 -8 -46 -7 -22 0 -40 -2 -40 -5 0 -4 -15 -7 -32 -7 -47 -1 -94 -8
-107 -16 -6 -4 -11 -1 -11 6 0 10 -2 10 -8 0 -5 -6 -19 -12 -33 -11 -28 1 -49
-4 -66 -14 -6 -4 -15 -2 -19 4 -4 7 -9 8 -13 1 -3 -5 -24 -12 -46 -16 -61 -9
-91 -15 -200 -42 -55 -13 -113 -27 -130 -30 -16 -3 -32 -10 -33 -15 -2 -5 -7
-7 -11 -4 -5 2 -50 -9 -102 -26 -52 -16 -102 -31 -111 -32 -10 0 -18 -4 -18
-7 0 -3 -21 -12 -47 -19 -27 -8 -68 -23 -93 -34 -25 -11 -48 -21 -52 -21 -3
-1 -10 -4 -14 -8 -4 -5 -13 -8 -21 -8 -17 0 -106 -41 -114 -53 -3 -5 -9 -8
-13 -8 -15 3 -56 -12 -56 -20 0 -5 -3 -8 -7 -7 -5 1 -22 -5 -39 -15 -17 -9
-34 -13 -38 -10 -3 4 -6 1 -6 -6 0 -7 -4 -9 -10 -6 -5 3 -10 2 -10 -3 0 -5 -8
-12 -17 -15 -25 -8 -161 -82 -178 -97 -8 -7 -15 -9 -15 -6 0 4 -10 -2 -22 -13
-11 -11 -25 -18 -30 -15 -4 3 -8 0 -8 -5 0 -6 -7 -11 -15 -11 -8 0 -15 -4 -15
-10 0 -5 -4 -10 -10 -10 -5 0 -39 -20 -74 -44 -36 -24 -67 -42 -70 -38 -3 3
-6 1 -6 -4 0 -6 -36 -34 -80 -63 -44 -30 -80 -58 -80 -62 0 -5 -5 -9 -12 -9
-6 0 -18 -6 -27 -14 -9 -8 -27 -25 -41 -38 -14 -13 -30 -24 -34 -24 -4 -1 -26
-18 -47 -38 -21 -19 -39 -33 -39 -31 0 5 -61 -49 -133 -117 -22 -21 -41 -38
-44 -38 -2 0 -45 -40 -95 -90 -50 -49 -96 -90 -101 -90 -6 0 -8 -3 -4 -6 3 -3
-14 -25 -39 -48 -24 -23 -44 -44 -44 -47 0 -3 -29 -36 -65 -72 -36 -37 -64
-67 -61 -67 2 0 -13 -19 -35 -42 -21 -23 -37 -43 -35 -46 2 -2 -10 -18 -28
-35 -17 -18 -42 -48 -56 -67 -13 -19 -29 -38 -35 -42 -5 -4 -10 -11 -10 -16 0
-5 -8 -16 -17 -26 -10 -9 -25 -30 -35 -46 -9 -17 -21 -30 -25 -30 -4 0 -8 -6
-8 -13 0 -7 -12 -26 -27 -43 -16 -18 -29 -38 -31 -45 -2 -8 -8 -15 -13 -17 -5
-2 -9 -10 -9 -18 0 -8 -4 -14 -9 -14 -5 0 -14 -13 -21 -30 -7 -16 -16 -30 -21
-30 -5 0 -8 -3 -7 -7 1 -5 -6 -21 -16 -38 -11 -16 -30 -47 -43 -67 -12 -21
-23 -42 -23 -48 0 -5 -5 -10 -11 -10 -5 0 -8 -4 -5 -9 3 -5 -1 -14 -9 -21 -8
-7 -12 -16 -9 -21 3 -5 0 -9 -7 -9 -7 0 -10 -3 -6 -6 3 -3 -2 -14 -11 -25 -9
-11 -17 -23 -17 -27 -1 -13 -39 -87 -48 -93 -5 -3 -9 -10 -9 -15 0 -9 -22 -62
-66 -154 -14 -30 -27 -64 -29 -74 -2 -11 -7 -24 -12 -30 -5 -6 -16 -36 -26
-66 -10 -30 -22 -61 -28 -67 -5 -7 -6 -13 -1 -13 4 0 3 -5 -4 -12 -7 -7 -12
-20 -12 -30 0 -10 -5 -18 -11 -18 -5 0 -8 -4 -5 -9 3 -5 -1 -28 -10 -52 -31
-90 -84 -290 -79 -299 4 -6 1 -10 -4 -10 -6 0 -11 -10 -11 -23 0 -13 -5 -28
-12 -35 -9 -9 -9 -12 0 -12 10 0 10 -5 2 -21 -7 -11 -9 -27 -6 -34 3 -8 1 -15
-4 -17 -8 -3 -17 -49 -25 -123 -2 -16 -5 -32 -6 -35 -1 -3 -1 -8 0 -12 0 -5
-2 -8 -7 -8 -4 0 -8 -12 -8 -27 -3 -75 -8 -103 -17 -103 -5 0 -4 -6 2 -14 8
-9 8 -16 2 -20 -6 -4 -8 -12 -5 -20 3 -7 1 -24 -5 -38 -5 -14 -6 -31 -1 -38 5
-8 5 -19 0 -25 -30 -37 -33 -705 -4 -985 3 -19 7 -60 10 -90 3 -30 10 -61 16
-67 7 -9 7 -13 -1 -13 -7 0 -10 -3 -7 -8 2 -4 7 -28 11 -52 4 -25 8 -49 9 -55
1 -5 6 -16 10 -24 7 -10 6 -12 -4 -6 -10 6 -11 4 -4 -6 10 -17 14 -32 18 -81
2 -21 9 -45 16 -53 8 -10 9 -15 2 -15 -6 0 -9 -7 -6 -15 4 -8 11 -12 18 -8 7
4 7 2 -1 -8 -8 -9 -9 -19 -3 -25 4 -5 11 -25 13 -44 3 -19 6 -35 7 -35 1 0 4
-11 7 -25 7 -39 11 -55 13 -55 3 0 11 -39 13 -60 1 -11 5 -22 8 -25 3 -3 18
-49 34 -102 16 -53 32 -95 36 -93 3 3 5 -7 3 -20 -1 -14 2 -25 7 -25 5 0 9 -8
9 -17 0 -10 7 -31 15 -47 8 -15 12 -32 9 -37 -3 -5 0 -9 5 -9 6 0 11 -8 11
-18 0 -10 3 -22 8 -26 4 -4 7 -11 8 -14 1 -8 10 -32 37 -92 45 -103 71 -155
81 -162 6 -4 8 -8 4 -8 -10 0 62 -144 74 -148 4 -2 8 -12 8 -23 0 -10 5 -19
10 -19 6 0 10 -4 10 -9 0 -14 100 -186 111 -189 5 -2 7 -8 3 -13 -3 -5 -1 -9
3 -9 5 0 17 -17 28 -37 11 -21 22 -40 26 -43 3 -3 25 -34 49 -70 24 -36 50
-71 57 -78 7 -7 13 -17 13 -20 0 -4 11 -20 25 -35 14 -15 23 -27 20 -27 -3 0
3 -8 13 -18 9 -10 28 -33 42 -51 14 -19 32 -42 40 -51 8 -10 31 -37 50 -60 63
-76 67 -80 74 -72 4 4 6 2 4 -5 -1 -6 25 -41 60 -77 34 -37 62 -71 62 -77 0
-6 3 -8 7 -6 5 3 14 -1 21 -9 7 -8 11 -14 8 -14 -2 0 28 -30 67 -67 104 -99
158 -155 192 -199 17 -21 44 -54 62 -73 17 -19 29 -39 26 -45 -3 -5 -1 -6 5
-2 7 4 12 4 12 -1 0 -4 24 -34 53 -65 28 -32 66 -73 84 -92 17 -19 34 -32 37
-29 3 4 6 1 6 -5 0 -12 108 -121 211 -212 34 -30 67 -60 73 -66 6 -6 39 -33
71 -59 33 -27 63 -53 67 -59 4 -6 8 -7 8 -3 0 4 12 -4 28 -18 15 -14 39 -34
55 -43 15 -9 27 -20 27 -24 0 -4 6 -8 13 -8 7 0 20 -9 30 -20 9 -11 24 -20 32
-20 9 0 13 -4 10 -10 -3 -5 1 -10 9 -10 9 0 16 -4 16 -10 0 -5 8 -7 18 -3 9 3
14 3 10 -2 -7 -8 104 -85 122 -85 6 0 10 -3 10 -8 0 -7 22 -21 73 -44 15 -7
27 -16 27 -20 0 -4 7 -8 15 -8 8 0 15 -5 15 -11 0 -5 4 -8 9 -4 5 3 16 -1 24
-9 8 -8 17 -12 21 -9 3 3 8 -1 12 -10 3 -9 12 -13 19 -11 7 3 16 1 19 -5 7
-11 151 -81 167 -81 5 0 9 -5 9 -11 0 -5 4 -8 9 -4 5 3 15 0 23 -7 14 -13 33
-20 55 -21 7 0 15 -7 17 -14 3 -8 10 -12 16 -8 5 3 20 0 32 -7 13 -7 26 -11
31 -10 4 1 7 -2 7 -8 0 -5 7 -7 15 -4 8 4 15 1 15 -5 0 -6 3 -10 8 -9 9 2 64
-13 77 -21 6 -4 26 -12 45 -18 19 -5 69 -21 110 -33 41 -13 82 -25 90 -28 20
-7 16 -6 93 -22 37 -7 67 -18 67 -22 0 -5 4 -7 9 -4 4 3 31 0 60 -8 36 -9 51
-10 51 -2 0 7 3 7 8 -1 4 -7 23 -13 41 -15 18 -1 34 -5 37 -9 2 -4 13 -5 24
-2 11 3 20 1 20 -3 0 -5 15 -9 33 -10 63 -1 214 -21 229 -30 4 -3 8 0 8 6 0 6
5 8 11 4 21 -12 162 -19 409 -19 213 1 282 3 445 18 17 2 36 6 43 11 7 4 12 2
12 -4 0 -6 5 -8 11 -5 12 8 46 14 101 18 21 2 40 6 44 9 3 4 12 4 20 1 8 -3
14 0 14 7 0 10 3 10 14 1 8 -7 17 -8 20 -3 3 5 21 8 40 7 19 -1 33 2 31 6 -3
4 2 9 10 13 8 3 15 0 15 -6 0 -7 4 -7 13 0 10 8 59 20 105 24 6 1 12 4 12 7 0
4 12 6 28 5 15 0 29 2 32 5 3 4 37 14 75 24 105 27 265 80 265 87 0 4 11 6 25
5 14 -2 25 0 25 4 0 4 20 13 45 20 25 7 45 17 45 23 0 5 4 7 9 3 5 -3 16 2 24
10 10 10 17 11 19 4 3 -8 9 -7 19 3 8 9 26 19 39 23 14 4 52 21 85 38 33 17
67 32 75 33 8 2 16 7 18 13 2 5 10 7 18 4 7 -3 17 2 20 11 3 9 10 13 15 10 5
-3 9 -1 9 3 0 5 16 15 35 22 19 7 35 17 35 22 0 5 9 9 19 9 11 0 21 3 23 8 2
4 19 16 38 26 19 11 60 36 90 55 30 20 58 34 63 33 4 -1 7 2 7 8 0 5 7 10 15
10 8 0 15 7 15 16 0 8 4 13 9 9 6 -3 20 5 32 17 12 13 18 16 14 8 -4 -8 1 -6
13 5 11 11 37 31 57 45 20 14 49 37 65 52 16 14 31 23 34 20 3 -3 6 0 6 6 0 7
5 12 11 12 7 0 24 13 40 29 15 16 30 27 32 24 3 -2 11 5 17 17 6 12 14 19 17
17 2 -3 20 9 38 26 75 71 99 92 107 92 4 0 8 4 7 8 0 5 15 20 33 35 50 40 132
126 130 135 -1 4 2 7 7 7 13 0 71 59 71 71 0 6 5 7 10 4 6 -3 10 -1 10 4 0 10
52 70 126 147 18 18 30 34 29 36 -2 2 17 26 42 53 25 28 44 50 42 50 -2 0 2 7
9 15 18 22 65 84 82 111 8 12 23 31 33 41 9 10 14 18 10 18 -3 0 4 11 17 25
13 14 19 25 14 25 -5 0 -4 4 2 8 6 4 36 48 67 97 31 50 61 95 66 101 5 7 7 15
4 18 -4 3 -1 6 6 6 7 0 10 4 7 9 -3 5 1 14 9 21 8 7 12 16 9 21 -3 5 -1 9 4 9
5 0 15 12 22 28 17 33 16 32 25 60 4 12 11 22 16 22 5 0 9 4 9 9 0 5 23 57 50
116 28 59 48 111 44 116 -3 5 -1 9 4 9 9 0 25 37 23 53 -1 4 3 7 9 7 6 0 9 3
8 8 -2 6 29 100 52 157 5 11 20 61 35 110 15 50 31 102 35 118 5 15 6 27 3 27
-3 0 0 7 8 16 7 9 13 28 13 42 1 15 4 32 7 37 4 6 5 20 4 32 -1 13 2 23 6 23
3 0 9 9 12 20 3 11 0 20 -6 20 -8 0 -7 4 1 12 7 7 12 20 12 30 0 10 5 18 10
18 6 0 10 6 10 13 0 8 15 53 34 100 19 48 32 87 29 87 -3 0 -1 6 5 13 8 9 37
96 48 140 1 4 2 8 3 10 2 1 4 13 7 26 2 14 8 29 13 35 5 6 7 19 6 29 -2 9 1
17 6 17 5 0 9 14 9 30 0 17 4 30 8 30 4 0 8 10 9 23 1 12 4 33 8 47 4 14 7 31
7 38 1 6 4 12 7 12 4 0 6 12 5 28 -1 15 1 32 5 37 3 6 6 15 8 20 1 6 4 21 8
35 3 14 7 39 10 55 2 17 13 85 25 153 21 126 24 152 36 312 4 52 10 100 15
105 4 6 4 17 0 24 -5 8 -6 25 -2 40 5 14 4 38 0 53 -4 15 -4 29 -1 33 10 9 10
75 0 75 -5 0 -6 6 -1 13 10 16 11 217 0 217 -5 0 -5 5 -1 12 9 14 9 96 0 105
-3 3 -1 12 5 20 6 7 7 13 2 13 -5 0 -9 17 -9 38 -1 35 -8 118 -20 227 -3 27
-12 92 -20 144 -8 52 -12 96 -9 99 3 3 1 10 -4 16 -5 6 -11 29 -14 52 -7 46
-36 182 -44 204 -6 17 -15 65 -16 93 -1 9 -5 17 -10 17 -5 0 -7 7 -4 15 4 8 2
17 -4 21 -6 3 -8 12 -5 20 3 8 1 14 -4 14 -6 0 -10 8 -10 19 0 10 -18 72 -41
137 -22 65 -45 135 -51 154 -5 19 -13 40 -18 45 -4 6 -10 22 -14 38 -3 15 -10
27 -15 27 -4 0 -7 11 -6 25 2 14 -1 23 -6 19 -5 -3 -9 0 -9 5 0 6 0 13 0 16
-1 2 -14 33 -30 67 -17 35 -30 68 -30 75 0 6 -3 13 -7 15 -10 4 -87 160 -85
171 1 4 -3 7 -9 7 -5 0 -7 5 -4 10 3 6 3 10 -2 10 -4 0 -13 10 -19 23 -6 12
-21 41 -33 64 -11 23 -25 45 -31 48 -6 4 -8 11 -5 16 4 5 2 9 -2 9 -5 0 -17
17 -28 38 -11 20 -28 46 -37 56 -10 11 -18 26 -18 33 0 7 -4 13 -10 13 -5 0
-10 6 -10 13 0 6 -11 25 -25 41 -14 16 -25 32 -25 36 0 4 -8 16 -17 28 -10 11
-25 30 -33 42 -8 13 -25 35 -37 50 -13 15 -23 32 -23 38 0 5 -7 12 -15 16 -8
3 -15 12 -15 21 0 8 -7 15 -15 15 -8 0 -15 7 -15 15 0 8 -4 15 -10 15 -5 0
-10 5 -10 11 0 6 -6 16 -12 23 -7 7 -24 27 -38 45 -14 18 -36 45 -50 61 -86
97 -161 179 -200 218 -25 26 -44 50 -42 54 1 4 -2 7 -6 6 -5 -2 -34 23 -66 55
-31 31 -61 57 -67 57 -6 0 -8 4 -5 8 3 5 -4 15 -15 23 -11 8 -44 37 -74 64
-75 70 -128 111 -140 107 -5 -2 -7 0 -3 4 7 6 -40 54 -53 54 -3 0 -19 12 -35
26 -65 57 -102 83 -108 77 -3 -3 -6 1 -6 10 0 10 -3 16 -7 15 -8 -3 -83 50
-95 67 -4 5 -8 6 -8 2 0 -7 -66 38 -107 73 -7 6 -13 8 -13 6 0 -3 -16 6 -36
19 -20 14 -41 25 -46 25 -5 0 -6 6 -2 13 4 6 3 9 -1 4 -5 -4 -17 1 -28 10 -15
13 -19 14 -13 3 5 -9 2 -8 -7 2 -8 10 -17 15 -20 11 -4 -3 -7 -1 -7 5 0 7 -7
12 -15 12 -8 0 -15 3 -15 8 0 4 -15 14 -32 21 -18 8 -55 27 -81 43 -26 15 -55
28 -63 28 -8 0 -12 5 -9 10 3 6 -3 10 -14 10 -21 0 -81 31 -81 42 0 4 -7 5
-15 2 -8 -4 -15 -1 -15 7 0 7 -3 10 -6 6 -3 -3 -28 6 -56 20 -27 14 -55 26
-62 27 -6 2 -33 13 -59 24 -27 12 -60 25 -73 28 -13 3 -24 9 -24 13 0 4 -10 8
-22 8 -13 1 -24 7 -26 13 -2 5 -8 7 -13 4 -6 -3 -16 0 -24 6 -8 7 -15 10 -15
6 0 -3 -17 1 -37 10 -21 9 -45 17 -53 19 -8 2 -16 4 -17 5 -3 3 -3 3 -53 14
-19 5 -41 13 -47 18 -7 6 -20 8 -28 4 -8 -3 -15 -2 -15 3 0 4 -6 8 -12 9 -7 0
-69 14 -138 31 -69 17 -138 34 -155 37 -16 3 -37 7 -45 9 -8 2 -41 6 -72 10
-32 4 -58 10 -58 14 0 6 -17 8 -102 11 -21 1 -38 5 -38 9 0 9 -31 8 -48 -3 -6
-4 -12 -3 -12 2 0 5 -13 12 -30 14 -16 3 -30 1 -30 -3 0 -5 -11 -4 -25 1 -14
5 -25 6 -25 2 0 -4 -5 0 -10 8 -5 8 -10 10 -10 5 0 -6 -12 -10 -27 -9 -16 1
-28 3 -28 4 0 2 -16 4 -105 10 -25 2 -51 1 -57 -3 -6 -4 -14 -1 -16 5 -4 10
-8 10 -15 -1 -6 -8 -12 -9 -16 -3 -7 12 -24 11 -45 -2 -10 -6 -12 -5 -7 3 5 8
-4 10 -34 6 -30 -3 -39 -2 -34 7 5 7 3 8 -6 3 -19 -12 -81 -15 -74 -4 3 5 3 9
0 9 -3 0 -7 -4 -10 -8z"/>
</g>
</svg>
