<?xml version="1.0" encoding="UTF-8" standalone="no"?>
<!DOCTYPE svg PUBLIC "-//W3C//DTD SVG 1.1//EN" "http://www.w3.org/Graphics/SVG/1.1/DTD/svg11.dtd">
<svg xmlns="http://www.w3.org/2000/svg" version="1.1" viewBox="0 0 225 225">
<path fill="#d2d2d2" d="M 65.46,213.00 Q 65.20,212.18 66.50,212.46 L 70.00,213.23 A 0.93,0.88 -62.6 0 0 70.87,212.93 Q 71.14,212.64 71.25,212.25 Q 76.24,214.02 81.30,215.56 Q 81.41,215.60 84.15,216.57 Q 85.89,217.18 87.71,217.39 Q 92.47,217.96 92.75,218.01 Q 108.13,220.93 123.73,218.88 Q 137.90,217.03 149.19,213.44 Q 151.33,212.75 150.54,210.25 Q 152.77,211.95 156.06,210.31 Q 159.96,208.38 160.56,207.31 Q 161.30,206.00 160.00,205.96 Q 161.03,205.52 161.21,206.50 A 0.45,0.40 76.7 0 0 161.73,206.86 Q 168.28,204.83 174.56,200.06 Q 212.18,171.54 219.11,126.18 Q 220.64,116.17 219.85,106.26 Q 218.91,94.49 215.75,83.04 Q 210.83,65.22 199.77,50.44 Q 170.82,11.74 122.98,5.67 Q 120.42,5.35 115.51,5.56 Q 112.20,5.70 108.00,5.50 Q 102.04,5.21 95.46,7.75 Q 93.45,6.92 91.26,7.31 Q 77.88,9.67 65.75,15.79 Q 62.16,14.53 59.57,16.40 Q 57.20,18.09 56.48,18.49 Q 55.08,19.27 53.31,20.56 Q 42.69,28.34 36.82,33.58 Q 28.02,41.43 21.55,51.26 Q 8.62,70.87 4.67,93.81 Q 3.75,99.18 3.60,106.74 Q 3.48,113.25 3.44,119.75 Q 3.43,121.36 3.68,122.94 Q 3.96,124.66 3.90,126.09 Q 3.77,129.50 4.27,132.88 Q 4.49,134.29 6.04,138.27 Q 7.58,142.20 7.29,146.52 A 0.71,0.46 -87.0 0 1 6.81,147.18 Q 6.57,147.18 6.29,147.00 Q -3.87,117.64 3.75,86.25 Q 9.00,64.60 21.02,47.99 Q 35.45,28.04 56.29,15.63 Q 65.06,10.40 72.81,7.19 Q 81.42,3.63 90.68,1.92 Q 93.83,1.34 97.01,1.21 Q 99.63,1.10 103.29,0.57 Q 106.35,0.12 109.75,0.25 Q 119.02,0.59 127.25,2.07 Q 127.36,2.09 131.77,2.62 Q 134.04,2.90 137.50,3.75 Q 171.91,12.21 195.76,38.24 Q 204.98,48.29 211.03,60.30 Q 215.32,68.83 218.50,78.83 Q 225.36,100.42 223.50,124.00 Q 222.83,132.49 220.95,139.06 Q 209.14,180.17 173.87,203.74 Q 173.08,204.27 171.30,205.95 Q 170.22,206.96 168.56,208.06 Q 157.10,215.69 145.50,219.25 Q 141.54,220.47 127.44,223.19 Q 115.47,225.50 101.83,223.75 Q 101.77,223.74 98.14,223.48 Q 95.15,223.26 92.42,221.84 Q 89.77,220.47 86.93,219.64 Q 85.36,219.17 81.12,218.83 Q 72.55,218.15 65.46,213.00 Z"/>
<path fill="#ffffff" d="M 160.00,205.96 Q 155.68,207.52 151.39,209.18 Q 151.01,209.33 150.83,209.59 Q 150.63,209.89 150.54,210.25 Q 151.33,212.75 149.19,213.44 Q 137.90,217.03 123.73,218.88 Q 108.13,220.93 92.75,218.01 Q 92.47,217.96 87.71,217.39 Q 85.89,217.18 84.15,216.57 Q 81.41,215.60 81.30,215.56 Q 76.24,214.02 71.25,212.25 Q 70.96,211.11 72.00,211.00 Q 73.43,209.79 71.51,209.20 Q 69.00,208.43 66.60,207.36 Q 66.54,207.34 65.37,206.61 Q 64.18,205.88 62.91,206.75 A 1.56,1.55 -47.4 0 1 61.29,206.82 Q 35.59,192.42 20.77,167.26 Q 3.34,137.65 5.46,103.93 Q 6.11,93.63 8.74,84.26 Q 12.67,70.32 20.36,57.84 Q 29.24,43.45 38.81,34.06 Q 49.30,23.77 64.82,16.49 Q 64.87,16.47 65.04,16.35 Q 65.31,16.16 65.29,16.75 Q 66.02,19.01 67.91,19.34 Q 68.99,19.54 71.09,18.68 Q 79.94,15.09 87.44,13.19 Q 92.71,11.85 95.46,7.75 Q 102.04,5.21 108.00,5.50 Q 112.20,5.70 115.51,5.56 Q 120.42,5.35 122.98,5.67 Q 170.82,11.74 199.77,50.44 Q 210.83,65.22 215.75,83.04 Q 218.91,94.49 219.85,106.26 Q 220.64,116.17 219.11,126.18 Q 212.18,171.54 174.56,200.06 Q 168.28,204.83 161.73,206.86 A 0.45,0.40 76.7 0 1 161.21,206.50 Q 161.03,205.52 160.00,205.96 ZM 205.46,75.25 Q 205.27,71.82 203.66,68.85 Q 203.08,67.79 202.62,66.54 Q 202.17,65.33 201.48,64.23 Q 201.44,64.17 200.10,61.43 Q 199.33,59.86 197.50,59.29 Q 179.55,31.56 149.69,19.31 Q 122.53,8.17 93.61,14.26 Q 88.88,15.26 81.90,17.53 Q 73.13,20.37 70.44,21.69 Q 52.26,30.56 38.94,44.69 Q 25.82,58.60 18.63,76.38 Q 14.95,85.49 13.47,95.64 Q 8.21,131.89 26.56,163.44 Q 35.51,178.81 50.00,190.67 Q 56.55,196.03 65.39,200.51 Q 74.66,205.21 82.25,207.75 Q 119.01,220.04 154.90,203.11 Q 184.74,189.02 199.69,160.73 Q 204.37,151.87 207.65,142.40 Q 219.16,109.11 205.46,75.25 Z"/>
<path fill="#c9c9c8" d="M 65.75,15.79 L 65.29,16.75 Q 65.31,16.16 65.04,16.35 Q 64.87,16.47 64.82,16.49 Q 49.30,23.77 38.81,34.06 Q 29.24,43.45 20.36,57.84 Q 12.67,70.32 8.74,84.26 Q 6.11,93.63 5.46,103.93 Q 3.34,137.65 20.77,167.26 Q 35.59,192.42 61.29,206.82 A 1.56,1.55 -47.4 0 0 62.91,206.75 Q 64.18,205.88 65.37,206.61 Q 66.54,207.34 66.60,207.36 Q 69.00,208.43 71.51,209.20 Q 73.43,209.79 72.00,211.00 Q 70.96,211.11 71.25,212.25 L 66.80,210.11 A 0.20,0.19 -50.6 0 1 66.78,209.78 Q 67.43,209.27 66.28,209.45 Q 64.64,209.71 63.49,208.49 Q 62.85,207.81 62.75,208.74 Q 62.54,210.85 64.48,211.65 Q 65.47,212.06 66.50,212.46 Q 65.20,212.18 65.46,213.00 Q 63.18,212.01 60.87,211.09 Q 58.45,210.12 56.50,208.82 Q 50.37,204.71 44.41,200.35 Q 39.37,196.65 35.05,192.19 Q 31.70,188.73 26.88,182.89 Q 13.57,166.78 6.29,147.00 Q 6.57,147.18 6.81,147.18 A 0.71,0.46 -87.0 0 0 7.29,146.52 Q 7.58,142.20 6.04,138.27 Q 4.49,134.29 4.27,132.88 Q 3.77,129.50 3.90,126.09 Q 3.96,124.66 3.68,122.94 Q 3.43,121.36 3.44,119.75 Q 3.48,113.25 3.60,106.74 Q 3.75,99.18 4.67,93.81 Q 8.62,70.87 21.55,51.26 Q 28.02,41.43 36.82,33.58 Q 42.69,28.34 53.31,20.56 Q 55.08,19.27 56.48,18.49 Q 57.20,18.09 59.57,16.40 Q 62.16,14.53 65.75,15.79 Z"/>
<path fill="#424241" d="M 106.25,65.96 Q 102.48,71.42 102.00,79.75 Q 100.74,101.75 100.88,108.50 Q 101.01,114.62 102.01,122.16 A 0.80,0.80 -2.4 0 1 101.18,123.06 Q 97.62,122.89 98.71,123.29 Q 99.12,123.44 98.71,123.55 Q 94.18,124.76 94.50,130.00 Q 94.58,131.24 93.04,131.25 Q 92.97,88.63 92.99,46.00 Q 92.99,43.28 91.56,41.27 Q 90.54,39.83 87.81,38.51 Q 84.80,37.05 81.71,35.76 Q 81.53,35.69 81.51,35.55 A 0.27,0.21 -1.5 0 1 81.79,35.32 Q 98.52,35.88 115.25,35.35 Q 117.04,35.29 116.22,35.98 Q 116.00,36.17 115.59,36.29 Q 111.74,37.41 108.43,39.70 Q 106.78,40.83 106.74,42.79 L 106.25,65.96 Z"/>
<path fill="#194d98" d="M 101.21,163.50 Q 102.59,157.81 97.25,157.00 Q 94.11,156.52 92.70,154.69 A 0.87,0.48 -11.5 0 0 92.02,154.48 L 91.54,154.50 Q 93.23,142.93 93.04,131.25 Q 94.58,131.24 94.50,130.00 Q 94.18,124.76 98.71,123.55 Q 99.12,123.44 98.71,123.29 Q 97.62,122.89 101.18,123.06 A 0.80,0.80 -2.4 0 0 102.01,122.16 Q 101.01,114.62 100.88,108.50 Q 100.74,101.75 102.00,79.75 Q 102.48,71.42 106.25,65.96 Q 106.71,66.24 107.81,65.81 Q 114.07,63.40 119.34,61.06 Q 121.30,60.19 121.08,58.06 Q 120.53,52.63 121.09,47.74 Q 121.48,44.31 123.02,42.69 Q 124.44,41.19 126.55,40.72 Q 128.32,40.32 130.36,41.12 Q 139.30,44.63 135.44,54.44 Q 133.44,59.51 133.76,63.44 A 0.77,0.75 7.1 0 0 134.29,64.10 Q 136.86,64.94 139.50,65.50 Q 141.55,65.94 142.04,67.94 Q 142.06,68.04 142.32,71.17 Q 143.55,86.06 144.00,95.50 Q 144.28,101.27 146.67,105.91 Q 149.37,111.14 152.09,116.36 Q 154.71,121.41 149.17,122.34 Q 145.99,122.88 142.59,122.74 A 0.99,0.99 1.1 0 0 141.56,123.73 Q 141.57,134.31 142.76,145.25 Q 143.04,147.82 143.72,150.31 Q 144.54,153.28 144.62,155.32 Q 145.11,167.20 143.97,179.28 Q 143.80,181.12 145.28,182.91 L 148.52,186.81 A 0.89,0.83 -24.3 0 1 147.95,188.18 Q 144.93,188.76 141.89,189.17 Q 138.32,189.66 136.63,189.06 Q 133.58,187.97 133.25,184.25 Q 132.97,181.16 133.50,169.00 Q 133.79,162.23 132.86,152.72 Q 132.30,147.02 130.78,141.95 Q 129.20,136.68 127.18,131.55 A 0.69,0.69 57.4 0 0 126.06,131.30 Q 125.05,132.27 124.36,133.69 Q 123.47,135.54 123.41,135.63 Q 110.67,158.87 111.06,185.15 A 1.14,1.14 -85.8 0 1 109.74,186.29 Q 104.13,185.38 101.80,180.48 Q 98.64,173.86 100.75,167.00 Q 101.34,165.07 101.21,163.50 Z"/>
<path fill="#d2d2d2" d="M 197.50,59.29 Q 199.33,59.86 200.10,61.43 Q 201.44,64.17 201.48,64.23 Q 202.17,65.33 202.62,66.54 Q 203.08,67.79 203.66,68.85 Q 205.27,71.82 205.46,75.25 Q 202.02,67.00 197.50,59.29 Z"/>
<path fill="#424241" d="M 101.21,163.50 Q 100.36,163.59 99.56,164.81 Q 89.99,179.55 73.45,188.15 Q 73.21,188.27 73.03,188.23 Q 72.60,188.15 73.10,187.60 Q 78.85,181.27 83.73,174.26 Q 89.97,165.31 91.54,154.50 L 92.02,154.48 A 0.87,0.48 -11.5 0 1 92.70,154.69 Q 94.11,156.52 97.25,157.00 Q 102.59,157.81 101.21,163.50 Z"/>
<path fill="#5f6564" fill-opacity="0.455" d="M 160.00,205.96 Q 161.30,206.00 160.56,207.31 Q 159.96,208.38 156.06,210.31 Q 152.77,211.95 150.54,210.25 Q 150.63,209.89 150.83,209.59 Q 151.01,209.33 151.39,209.18 Q 155.68,207.52 160.00,205.96 Z"/>
<path fill="#5f6564" fill-opacity="0.455" d="M 71.25,212.25 Q 71.14,212.64 70.87,212.93 A 0.93,0.88 -62.6 0 1 70.00,213.23 L 66.50,212.46 Q 65.47,212.06 64.48,211.65 Q 62.54,210.85 62.75,208.74 Q 62.85,207.81 63.49,208.49 Q 64.64,209.71 66.28,209.45 Q 67.43,209.27 66.78,209.78 A 0.20,0.19 -50.6 0 0 66.80,210.11 L 71.25,212.25 Z"/>
</svg>
