<?xml version="1.0" encoding="UTF-8" standalone="no"?>
<!DOCTYPE svg PUBLIC "-//W3C//DTD SVG 1.1//EN" "http://www.w3.org/Graphics/SVG/1.1/DTD/svg11.dtd">
<svg xmlns="http://www.w3.org/2000/svg" version="1.1" viewBox="0 0 398 398">
<path fill="#000000" d="M 285.04,356.50 Q 282.36,353.60 278.50,352.91 Q 276.09,352.48 276.02,352.47 Q 270.58,351.23 265.06,350.39 A 1.03,0.95 -61.1 0 0 264.21,350.67 L 262.25,352.54 Q 256.26,356.52 249.66,359.38 Q 234.04,366.17 218.06,372.06 Q 216.19,372.76 216.04,374.50 Q 214.92,376.87 214.79,379.50 Q 214.12,379.97 213.25,379.71 Q 213.80,374.52 215.24,369.50 Q 215.44,368.83 215.23,368.54 Q 214.91,368.07 214.61,368.77 Q 212.38,374.00 212.25,379.71 L 210.25,379.71 L 210.71,376.37 Q 210.90,375.01 209.77,375.49 Q 205.15,377.45 200.69,379.69 Q 200.05,380.01 200.50,380.46 L 197.00,380.71 Q 203.23,375.74 210.96,371.73 A 1.66,1.66 -18.2 0 0 211.83,370.01 Q 211.51,367.95 212.26,366.56 Q 213.03,365.13 214.90,364.92 Q 217.60,364.61 219.08,367.25 A 0.58,0.55 64.1 0 0 219.77,367.51 Q 232.61,362.62 245.25,357.25 Q 253.03,353.94 257.00,351.21 Q 260.14,349.75 260.07,346.25 Q 260.03,344.37 259.96,342.50 Q 261.52,337.32 261.00,335.00 Q 260.35,332.10 257.71,330.77 Q 252.19,328.00 246.28,326.16 Q 242.90,325.12 240.96,328.00 L 235.02,332.51 A 0.96,0.92 55.1 0 0 234.82,333.79 L 238.75,339.82 A 1.21,1.00 56.1 0 0 240.27,340.27 L 248.01,334.99 Q 250.06,333.59 247.88,332.10 Q 245.29,330.33 241.84,329.59 Q 240.90,329.39 241.50,328.79 Q 246.50,329.13 250.70,331.82 Q 253.32,333.50 251.75,336.18 Q 250.61,338.12 248.21,339.47 Q 241.58,343.21 234.76,346.59 Q 221.28,353.26 209.16,362.11 Q 205.05,365.12 202.33,367.96 Q 199.28,371.16 196.57,374.90 A 0.98,0.98 -42.9 0 1 194.94,374.84 Q 191.41,369.20 185.81,364.44 Q 180.55,359.96 172.61,355.41 Q 171.69,354.88 160.09,349.05 Q 153.80,345.90 147.82,342.18 Q 144.43,340.07 141.57,337.33 Q 139.91,335.74 139.82,334.17 Q 139.69,331.94 141.81,330.56 Q 144.94,328.54 149.96,327.07 A 0.37,0.35 -26.4 0 0 150.17,326.51 Q 149.46,325.60 147.98,325.93 Q 144.65,326.68 141.42,327.80 Q 136.30,329.58 135.10,330.26 Q 129.95,333.23 131.79,340.25 L 131.75,346.21 Q 130.46,349.50 133.53,351.25 Q 144.05,357.21 155.40,361.42 Q 166.25,365.44 176.40,370.00 A 0.94,0.93 22.4 0 0 177.66,369.48 Q 178.69,366.78 180.89,366.60 Q 182.84,366.44 184.12,367.90 Q 185.44,369.40 184.81,371.82 Q 184.21,374.14 186.35,375.21 Q 190.07,377.05 193.00,380.71 Q 191.69,380.79 190.50,380.21 Q 188.99,378.70 186.93,378.27 A 0.63,0.61 16.6 0 0 186.22,378.64 Q 185.61,380.13 187.25,380.21 L 181.75,379.71 Q 181.59,376.38 179.00,374.71 Q 161.96,367.69 144.84,360.88 Q 140.32,359.09 134.00,355.75 Q 130.17,353.73 127.74,350.71 A 1.25,0.68 61.3 0 0 126.96,350.21 Q 126.58,350.20 126.25,350.46 Q 117.59,351.44 109.53,354.75 Q 107.94,355.40 107.50,356.96 L 103.73,355.00 Q 101.92,354.06 103.82,352.70 Q 110.51,347.90 118.25,347.00 Q 120.56,346.73 121.92,346.48 Q 122.14,346.44 124.47,346.11 Q 128.09,345.61 126.92,341.70 Q 126.33,339.70 126.31,339.64 Q 124.26,329.96 133.27,325.72 Q 138.32,323.33 144.19,321.89 A 0.63,0.63 -27.1 0 0 144.52,320.87 Q 140.47,316.16 136.41,311.12 Q 129.52,302.54 127.37,291.73 Q 126.24,286.00 125.09,280.97 A 1.83,1.83 -3.3 0 0 123.50,279.56 Q 120.66,279.24 118.25,278.32 Q 116.01,277.48 114.01,275.20 Q 110.49,271.20 107.46,266.80 Q 99.83,255.72 98.34,242.57 Q 97.58,235.86 97.58,232.94 Q 97.58,227.93 99.48,223.34 Q 101.50,218.46 104.95,216.33 Q 109.38,213.60 114.74,215.89 Q 116.29,216.55 116.08,214.88 Q 115.05,206.65 114.34,199.02 Q 112.33,177.42 118.61,156.72 A 1.71,1.52 47.7 0 0 118.60,155.77 Q 116.38,148.13 120.71,141.67 Q 120.99,141.25 121.05,140.76 Q 121.71,134.77 127.69,130.51 A 1.23,1.19 83.2 0 0 128.11,129.96 Q 129.80,125.60 133.77,122.73 A 1.86,1.73 -8.5 0 0 134.37,121.98 Q 136.58,116.71 141.45,113.88 Q 142.82,113.08 143.80,111.83 Q 146.41,108.49 149.59,107.46 Q 151.07,106.98 152.20,105.90 Q 157.08,101.23 162.55,101.91 A 2.90,2.89 -59.6 0 0 164.65,101.36 Q 172.25,95.72 180.00,96.92 A 1.78,1.74 -52.1 0 0 180.95,96.79 Q 184.33,95.28 187.79,96.57 A 1.37,1.36 45.3 0 0 188.71,96.58 Q 193.22,94.99 197.60,96.78 A 1.34,1.33 47.3 0 0 198.47,96.82 Q 203.61,95.27 207.96,96.54 A 1.27,1.20 38.5 0 0 208.87,96.46 Q 213.94,93.87 218.82,96.73 A 1.51,1.51 48.2 0 0 219.75,96.94 Q 224.36,96.52 227.71,99.60 A 1.58,1.50 -19.1 0 0 228.57,99.99 Q 233.26,100.53 236.19,104.04 A 1.07,1.02 -10.9 0 0 236.73,104.39 Q 242.96,106.26 245.19,109.75 A 2.10,2.08 -9.7 0 0 246.49,110.66 Q 251.75,111.85 254.06,114.65 Q 254.41,115.09 254.94,115.29 Q 263.22,118.49 264.83,125.08 A 1.04,0.98 6.7 0 0 265.40,125.76 Q 268.40,127.13 270.07,129.83 Q 270.42,130.41 271.16,133.48 Q 271.50,134.85 272.31,136.01 Q 273.75,138.07 273.84,138.27 Q 275.03,140.92 274.59,144.48 A 2.70,2.67 35.9 0 0 274.84,145.99 Q 276.78,150.01 274.42,153.65 A 2.60,2.60 -37.2 0 0 274.12,155.83 Q 280.54,176.46 278.44,197.52 Q 277.58,206.18 275.75,216.09 Q 275.59,216.97 276.41,216.61 Q 285.64,212.47 291.44,219.56 Q 294.31,223.08 294.80,229.27 Q 295.74,241.29 292.40,252.84 Q 290.52,259.35 286.60,264.87 Q 283.87,268.71 281.17,272.57 Q 279.22,275.35 277.89,276.53 Q 275.57,278.59 273.25,279.00 Q 269.69,279.62 268.28,280.12 A 0.94,0.86 86.6 0 0 267.72,280.81 Q 265.02,295.35 263.75,298.50 Q 259.66,308.66 252.16,316.65 Q 250.23,318.72 248.14,321.00 A 0.42,0.42 -59.8 0 0 248.32,321.69 Q 254.31,323.66 259.10,325.99 Q 268.23,330.45 265.11,342.57 Q 264.49,344.98 266.90,345.59 Q 269.98,346.37 274.76,346.86 Q 283.33,347.73 289.63,353.41 A 0.44,0.44 -44.2 0 1 289.62,354.08 Q 287.60,355.77 285.04,356.50 ZM 122.79,152.75 L 124.21,156.00 L 123.50,158.71 L 122.29,162.50 Q 120.34,168.99 119.79,175.75 L 119.29,181.75 Q 118.64,188.89 119.46,196.00 Q 120.05,206.66 121.74,217.20 A 0.86,0.78 -86.6 0 0 122.28,217.87 Q 123.29,218.21 124.33,217.96 A 1.50,1.15 -73.5 0 0 125.10,217.40 Q 128.31,212.85 133.73,211.18 Q 136.49,210.33 139.25,209.46 L 145.25,208.71 Q 160.81,208.43 175.73,212.71 Q 175.78,212.72 178.11,213.50 Q 180.66,214.36 184.25,214.75 Q 195.87,216.02 206.41,215.02 Q 210.01,214.67 215.75,212.94 Q 230.98,208.33 247.00,208.71 L 252.50,208.21 Q 253.75,209.38 255.06,209.69 Q 262.92,211.53 267.99,217.31 A 1.24,0.69 58.5 0 0 268.81,217.77 L 269.83,217.71 A 0.79,0.59 -84.1 0 0 270.41,217.08 Q 273.20,202.80 273.71,188.25 Q 273.78,180.71 272.71,173.25 Q 272.33,168.24 270.71,163.50 L 268.93,154.88 Q 268.55,153.03 269.85,151.79 Q 272.03,149.71 269.94,147.33 Q 269.18,146.46 269.13,145.80 Q 269.05,144.90 269.46,144.00 Q 270.80,140.29 268.23,138.82 Q 266.43,137.79 266.48,135.72 Q 266.57,131.86 264.20,130.62 Q 264.17,130.60 262.25,130.07 Q 260.18,129.50 259.98,127.39 Q 259.78,125.24 259.76,125.15 Q 258.47,120.42 253.59,120.44 A 2.33,2.31 -15.9 0 1 251.62,119.35 Q 249.13,115.34 244.18,115.61 Q 242.31,115.71 241.85,113.90 Q 240.64,109.17 234.81,109.51 A 1.71,1.70 -14.2 0 1 233.16,108.53 Q 231.39,104.79 226.86,105.05 A 1.85,1.85 71.1 0 1 225.23,104.25 Q 223.06,101.04 220.55,101.96 Q 218.82,102.59 217.30,101.55 Q 213.81,99.16 209.94,101.49 A 2.58,2.58 42.4 0 1 207.50,101.60 Q 203.10,99.48 199.41,101.62 A 2.55,2.54 -48.7 0 1 197.16,101.77 Q 192.14,99.70 189.68,101.44 Q 188.16,102.52 186.61,101.49 Q 184.82,100.30 182.51,101.47 A 3.64,3.61 -51.7 0 1 180.07,101.77 Q 172.39,100.01 166.72,106.15 A 2.85,2.84 -62.3 0 1 164.02,107.00 Q 157.76,105.64 154.08,110.99 A 1.68,1.68 -75.9 0 1 152.86,111.72 Q 148.54,112.18 146.59,116.19 Q 146.22,116.95 145.80,117.27 Q 145.24,117.70 144.56,117.90 Q 143.18,118.30 142.74,118.64 Q 139.71,120.95 138.87,124.58 A 1.74,1.72 81.3 0 1 138.10,125.64 Q 133.44,128.45 132.21,133.48 A 1.76,1.75 87.6 0 1 131.08,134.72 Q 125.81,136.54 126.00,141.89 A 1.66,1.59 -30.9 0 1 125.76,142.77 Q 122.11,148.56 122.79,152.75 ZM 180.95,217.54 Q 180.22,216.85 179.44,216.56 Q 164.21,210.94 147.94,211.13 Q 143.91,211.18 137.31,212.56 Q 130.98,213.89 128.06,217.31 Q 125.19,220.68 125.76,226.44 A 0.50,0.40 78.8 0 0 126.31,226.90 Q 126.75,226.73 126.83,226.07 Q 128.14,215.48 138.71,213.76 Q 141.77,213.27 142.75,213.25 Q 150.95,213.11 159.09,213.94 Q 167.03,214.76 168.41,214.97 Q 173.07,215.71 177.50,217.50 Q 180.88,218.87 182.66,221.80 Q 183.20,222.68 183.84,224.95 Q 184.30,226.56 184.97,228.15 Q 185.60,229.62 185.81,228.04 Q 186.58,222.49 182.26,218.75 Q 182.15,218.66 180.95,217.54 ZM 230.50,212.21 Q 223.77,213.03 217.29,215.00 Q 213.14,216.27 210.16,219.41 Q 206.87,222.86 207.58,227.66 Q 207.79,229.13 208.53,227.84 Q 209.36,226.40 209.56,224.06 Q 209.71,222.40 211.24,220.63 Q 212.35,219.35 214.17,218.35 Q 218.87,215.74 224.75,215.00 Q 237.12,213.44 247.00,213.11 Q 254.78,212.85 260.44,216.06 Q 265.30,218.82 265.95,224.92 Q 266.02,225.57 266.23,226.04 Q 267.54,228.88 267.25,224.25 Q 266.92,218.86 263.66,216.34 Q 258.29,212.18 251.50,211.46 Q 240.94,210.23 230.50,212.21 ZM 125.71,229.25 Q 124.52,230.06 123.50,229.21 Q 123.17,227.28 123.24,225.33 Q 123.25,224.96 123.18,224.68 Q 122.78,223.12 122.25,225.00 Q 121.98,225.98 123.04,229.50 L 123.21,237.00 Q 122.54,246.20 123.06,248.44 Q 127.47,267.38 131.26,286.45 Q 133.01,295.23 134.58,298.82 Q 137.05,304.44 141.44,309.81 Q 151.04,321.57 161.50,328.79 Q 162.33,330.33 164.19,331.56 Q 168.82,334.62 173.83,338.66 Q 179.72,343.41 182.94,344.78 Q 190.23,347.88 199.25,347.50 Q 209.19,347.08 216.75,340.76 Q 225.66,333.32 230.56,330.06 Q 231.85,329.21 231.96,328.50 Q 244.05,319.58 253.17,307.64 Q 258.86,300.18 260.75,290.25 Q 263.88,273.75 269.75,247.75 Q 270.47,244.55 269.79,238.50 L 269.70,229.81 A 0.46,0.41 -3.2 0 0 269.20,229.42 L 268.04,229.50 Q 264.24,228.09 264.20,224.00 Q 264.16,220.45 261.19,218.31 Q 257.36,215.56 253.01,214.92 Q 248.41,214.24 243.80,214.56 Q 239.80,214.84 239.68,214.84 Q 229.05,215.37 221.00,217.00 Q 217.41,217.73 213.44,220.32 A 1.17,0.65 -22.5 0 0 212.91,220.99 Q 212.83,221.50 213.94,220.77 A 3.13,3.04 26.2 0 1 215.49,220.27 Q 228.50,219.70 241.00,220.25 Q 247.31,220.53 254.97,223.50 Q 255.40,223.67 254.96,223.85 Q 253.91,224.29 253.87,225.07 A 0.70,0.68 -81.4 0 0 254.38,225.78 L 258.12,226.79 A 0.55,0.49 22.6 0 1 258.48,227.54 Q 253.98,234.69 247.11,238.33 Q 240.75,241.69 232.43,241.77 Q 219.64,241.88 209.46,233.52 A 1.09,1.08 31.7 0 1 209.16,232.26 Q 211.16,227.60 213.84,224.59 Q 215.35,222.88 211.29,223.95 A 0.75,0.74 -5.6 0 0 210.74,224.61 Q 210.47,228.47 207.75,231.29 Q 207.07,230.81 206.25,231.04 Q 203.65,230.12 201.44,227.56 Q 198.77,224.48 194.94,225.52 Q 193.66,225.87 192.01,227.65 Q 189.96,229.87 187.00,230.96 L 185.54,231.00 Q 183.63,229.45 182.80,227.23 Q 182.78,227.17 182.52,225.22 Q 182.25,223.19 179.15,223.51 Q 178.38,223.59 178.86,224.19 Q 182.05,228.15 183.57,231.54 A 1.77,1.77 60.1 0 1 182.99,233.70 Q 167.76,244.77 151.46,240.43 Q 145.89,238.95 141.78,235.72 Q 137.44,232.30 134.51,227.44 A 0.39,0.34 -23.6 0 1 134.75,226.92 L 138.92,225.57 Q 140.16,225.17 138.90,224.60 Q 138.10,224.23 137.77,223.76 A 0.43,0.37 -24.7 0 1 138.04,223.17 Q 147.61,220.35 150.00,220.25 Q 163.63,219.67 177.74,220.27 A 2.61,2.58 -25.4 0 1 179.18,220.77 Q 181.59,222.51 180.11,220.76 Q 179.94,220.56 179.72,220.42 Q 175.29,217.56 170.25,216.55 Q 169.14,216.32 160.25,215.40 Q 153.15,214.66 146.00,214.58 Q 141.35,214.53 136.25,216.00 Q 131.36,217.41 129.39,221.57 Q 129.14,222.10 128.74,225.06 Q 128.37,227.78 125.71,229.25 ZM 197.02,218.45 Q 202.94,218.68 208.69,217.05 Q 210.19,216.62 208.93,216.51 Q 208.76,216.50 208.56,216.52 Q 196.91,218.04 185.22,216.77 Q 184.99,216.75 184.77,216.77 Q 183.18,216.95 184.97,217.41 Q 188.18,218.25 191.46,218.32 Q 196.60,218.44 197.02,218.45 ZM 192.57,219.61 Q 189.57,219.44 186.57,219.33 A 0.36,0.35 -7.4 0 0 186.21,219.78 L 187.87,225.23 A 0.37,0.36 -28.3 0 0 188.45,225.40 Q 189.17,224.82 189.53,224.09 Q 190.17,222.81 190.31,222.65 Q 191.97,220.72 194.63,220.89 Q 196.29,221.00 196.37,221.00 Q 197.52,221.00 198.67,221.00 Q 200.66,221.00 201.72,221.59 Q 203.40,222.54 204.15,224.47 A 1.82,1.02 84.1 0 0 204.70,225.25 Q 205.70,225.96 205.81,224.85 Q 205.89,223.94 205.93,223.78 Q 206.51,221.37 207.71,219.67 Q 208.34,218.76 207.25,218.93 Q 199.92,220.04 192.57,219.61 ZM 121.50,265.21 L 121.21,264.00 Q 119.93,257.55 118.66,251.10 Q 118.04,247.95 117.97,244.32 Q 117.91,240.91 117.71,237.50 L 117.96,233.50 L 117.49,225.25 A 1.14,0.98 7.5 0 0 116.66,224.32 Q 112.94,223.29 112.39,220.69 A 0.75,0.65 86.4 0 0 111.82,220.11 Q 105.56,219.28 103.75,225.25 Q 101.85,231.54 102.57,238.53 Q 103.22,244.88 105.18,251.41 Q 107.50,259.10 112.49,265.57 Q 114.12,267.68 114.78,268.62 Q 116.52,271.08 117.06,271.69 Q 119.33,274.23 123.11,274.53 A 0.41,0.39 -4.0 0 0 123.55,274.06 L 121.50,265.21 ZM 275.29,233.25 L 275.29,237.75 Q 274.85,251.06 271.50,263.96 Q 271.07,264.49 271.25,265.21 L 269.19,274.11 A 0.41,0.38 4.1 0 0 269.62,274.58 Q 271.43,274.43 272.96,273.76 Q 274.24,273.19 275.58,271.69 Q 280.19,266.50 283.65,260.54 Q 286.67,255.32 288.25,249.43 Q 289.83,243.59 290.40,237.51 Q 291.03,230.78 289.00,225.00 Q 287.33,220.24 282.26,219.78 A 1.14,1.06 22.9 0 0 281.38,220.10 Q 280.56,220.97 280.36,222.02 Q 280.02,223.94 278.06,223.94 Q 274.73,223.93 274.86,226.74 Q 274.95,228.63 274.94,228.77 Q 274.88,231.03 275.29,233.25 ZM 123.1579,221.0163 A 0.66 0.66 0.0 0 0 122.5273,220.3281 L 115.7738,220.0332 A 0.66 0.66 0.0 0 0 115.0856,220.6638 L 115.0821,220.7437 A 0.66 0.66 0.0 0 0 115.7127,221.4319 L 122.4662,221.7268 A 0.66 0.66 0.0 0 0 123.1544,221.0962 L 123.1579,221.0163 ZM 277.31,220.19 Q 274.20,219.62 269.80,220.24 A 0.66,0.58 -3.7 0 0 269.24,220.80 Q 269.21,221.86 270.50,221.80 Q 273.78,221.64 277.06,221.52 Q 277.54,221.50 277.88,221.29 Q 279.11,220.52 277.31,220.19 ZM 189.55,226.26 Q 188.96,226.72 188.32,227.12 Q 185.74,228.71 188.58,227.98 A 2.74,2.73 -79.5 0 0 190.13,226.91 Q 192.13,224.12 194.82,223.55 Q 197.71,222.93 200.09,224.16 Q 202.07,225.19 204.74,227.77 Q 204.96,227.98 205.24,228.08 Q 206.06,228.36 205.68,227.64 Q 205.58,227.45 205.36,227.30 Q 204.64,226.81 203.98,226.26 Q 203.42,225.80 202.99,224.88 Q 201.75,222.21 199.03,221.90 Q 196.87,221.65 194.46,221.88 Q 191.30,222.18 190.10,225.46 A 2.01,1.47 88.4 0 1 189.55,226.26 ZM 149.79,226.50 Q 152.26,229.14 154.81,226.30 Q 156.58,224.33 154.07,224.39 L 149.21,224.50 Q 146.11,224.56 144.29,227.00 L 142.10,229.81 A 1.50,1.42 46.4 0 0 142.11,231.56 Q 146.36,237.44 153.23,238.86 Q 167.55,241.84 179.73,233.49 A 1.43,1.42 59.9 0 0 180.20,231.70 Q 178.73,228.72 176.34,226.21 Q 175.24,225.05 173.98,224.62 Q 172.58,224.15 171.10,224.12 Q 167.57,224.05 167.41,224.04 Q 164.82,223.85 162.25,224.29 Q 159.47,223.74 156.74,224.38 Q 156.26,224.49 156.65,224.81 Q 159.55,227.16 158.45,230.34 Q 157.83,232.16 156.37,233.11 Q 154.60,234.26 152.56,233.44 Q 147.99,231.59 149.79,226.50 ZM 219.71,227.00 Q 222.52,229.02 224.59,225.71 Q 225.43,224.36 223.94,224.39 L 218.71,224.50 Q 214.99,226.32 213.50,230.21 Q 211.31,232.87 214.12,234.42 Q 215.08,234.95 216.00,235.54 Q 218.63,237.71 222.00,238.29 L 224.75,238.96 Q 232.60,240.59 239.44,239.19 Q 246.60,237.72 250.91,231.35 A 0.89,0.86 -40.7 0 0 250.99,230.48 Q 248.96,226.08 244.25,224.75 Q 242.14,224.16 231.75,224.29 Q 228.87,223.70 226.10,224.23 Q 225.47,224.35 225.98,224.74 Q 228.89,226.95 227.79,230.43 Q 226.54,234.37 223.00,233.75 Q 218.00,232.87 219.00,227.25 Q 219.08,226.80 219.71,227.00 ZM 269.69,226.95 Q 269.78,228.30 270.02,226.97 Q 270.13,226.40 270.41,225.51 Q 270.51,225.22 270.43,224.98 Q 270.24,224.34 269.86,224.68 A 1.21,0.77 74.9 0 0 269.59,225.54 L 269.69,226.95 ZM 144.63,335.38 L 152.59,340.64 A 0.83,0.77 -62.0 0 0 153.75,340.24 Q 155.33,336.61 157.92,333.62 A 0.51,0.48 -50.1 0 0 157.88,332.91 L 152.92,329.03 A 1.37,1.09 -24.4 0 0 152.00,328.80 Q 147.37,329.36 144.51,331.94 Q 142.36,333.87 144.63,335.38 ZM 164.54,339.75 Q 165.60,344.06 170.25,342.59 Q 170.94,342.37 170.38,341.96 L 166.04,338.75 Q 164.73,337.43 163.04,336.74 A 0.79,0.79 -55.6 0 0 162.20,336.90 Q 159.04,339.97 157.80,344.09 A 0.68,0.65 22.4 0 0 158.14,344.86 L 171.58,351.90 A 0.37,0.24 35.5 0 0 171.93,351.92 Q 172.04,351.83 172.01,351.71 Q 171.98,351.58 171.79,351.48 Q 164.45,347.63 162.90,339.55 A 0.55,0.48 79.7 0 1 163.28,338.91 Q 164.07,338.80 164.54,339.75 ZM 226.96,338.75 Q 224.41,339.98 222.57,342.11 A 0.34,0.33 -61.9 0 0 222.73,342.65 Q 227.13,343.95 228.71,339.50 Q 230.27,337.63 229.77,340.15 Q 229.00,344.10 226.43,347.20 Q 225.35,348.50 226.85,347.68 L 234.24,343.65 A 0.60,0.57 -23.8 0 0 234.53,342.96 Q 233.18,339.05 231.19,337.56 Q 228.86,335.82 226.96,338.75 ZM 170.90,347.90 Q 177.33,352.81 183.35,357.13 Q 190.24,362.08 194.29,369.75 A 0.33,0.33 -39.8 0 0 194.85,369.80 Q 202.18,360.46 212.31,354.56 Q 216.34,352.22 221.85,348.06 Q 222.29,347.72 221.78,347.61 L 217.31,346.64 A 1.35,1.03 -49.7 0 0 216.39,346.84 Q 210.33,350.78 203.41,351.75 Q 196.75,352.68 190.10,351.70 Q 183.63,350.75 177.32,347.23 A 3.36,3.30 -33.2 0 0 175.32,346.83 L 171.08,347.27 Q 170.19,347.36 170.90,347.90 ZM 198.11,370.18 Q 198.29,370.08 198.34,369.94 Q 198.62,369.14 197.91,369.81 Q 196.61,371.04 195.82,372.66 Q 195.71,372.89 195.48,373.15 Q 195.06,373.65 195.45,373.83 A 0.63,0.53 -63.6 0 0 196.20,373.50 L 197.68,370.61 A 1.32,0.78 -14.3 0 1 198.11,370.18 ZM 182.0996,370.8879 A 0.42 0.42 0.0 0 0 181.5821,370.5963 L 181.5243,370.6124 A 0.42 0.42 0.0 0 0 181.2327,371.1299 L 183.2604,378.3921 A 0.42 0.42 0.0 0 0 183.7779,378.6837 L 183.8357,378.6676 A 0.42 0.42 0.0 0 0 184.1273,378.1501 L 182.0996,370.8879 Z"/>
<path fill="#393d3d" d="M 269.46,144.00 L 265.91,140.31 A 1.46,1.26 -72.6 0 1 265.54,139.45 Q 265.35,136.91 263.69,136.06 Q 262.00,135.20 262.18,133.79 Q 262.41,132.00 260.65,131.59 Q 257.38,130.84 256.89,128.33 Q 256.33,125.45 253.40,125.71 Q 249.71,126.05 248.58,123.06 Q 246.89,118.58 243.03,119.83 Q 239.90,120.84 239.86,120.84 Q 237.21,121.06 236.22,118.48 Q 235.54,116.72 235.53,116.70 Q 233.05,112.03 227.73,114.51 Q 225.65,115.48 224.78,113.35 Q 223.91,111.22 220.28,111.75 A 2.42,2.41 -25.1 0 1 218.11,110.97 Q 211.58,103.73 204.18,110.44 Q 202.33,112.12 200.39,110.55 Q 196.26,107.19 192.56,110.82 A 1.99,1.98 38.9 0 1 190.11,111.08 Q 186.79,108.98 184.60,110.01 Q 182.98,110.77 181.48,109.79 Q 174.81,105.41 169.65,110.47 A 3.03,3.02 27.1 0 1 167.07,111.30 Q 165.13,111.00 163.53,110.63 Q 160.82,110.00 157.64,113.73 Q 156.29,115.31 154.23,115.08 Q 151.68,114.80 149.92,118.33 Q 148.37,121.44 145.41,121.69 Q 143.32,121.87 143.07,123.96 Q 142.73,126.93 140.10,127.91 Q 136.09,129.40 134.82,134.17 A 3.19,3.18 -6.3 0 1 133.20,136.19 Q 128.97,138.36 129.00,143.10 A 2.62,2.61 -14.0 0 1 127.60,145.43 Q 124.26,147.20 123.81,150.25 A 2.03,1.39 -30.1 0 1 123.40,151.11 Q 122.85,151.78 122.79,152.75 Q 122.11,148.56 125.76,142.77 A 1.66,1.59 -30.9 0 0 126.00,141.89 Q 125.81,136.54 131.08,134.72 A 1.76,1.75 87.6 0 0 132.21,133.48 Q 133.44,128.45 138.10,125.64 A 1.74,1.72 81.3 0 0 138.87,124.58 Q 139.71,120.95 142.74,118.64 Q 143.18,118.30 144.56,117.90 Q 145.24,117.70 145.80,117.27 Q 146.22,116.95 146.59,116.19 Q 148.54,112.18 152.86,111.72 A 1.68,1.68 -75.9 0 0 154.08,110.99 Q 157.76,105.64 164.02,107.00 A 2.85,2.84 -62.3 0 0 166.72,106.15 Q 172.39,100.01 180.07,101.77 A 3.64,3.61 -51.7 0 0 182.51,101.47 Q 184.82,100.30 186.61,101.49 Q 188.16,102.52 189.68,101.44 Q 192.14,99.70 197.16,101.77 A 2.55,2.54 -48.7 0 0 199.41,101.62 Q 203.10,99.48 207.50,101.60 A 2.58,2.58 42.4 0 0 209.94,101.49 Q 213.81,99.16 217.30,101.55 Q 218.82,102.59 220.55,101.96 Q 223.06,101.04 225.23,104.25 A 1.85,1.85 71.1 0 0 226.86,105.05 Q 231.39,104.79 233.16,108.53 A 1.71,1.70 -14.2 0 0 234.81,109.51 Q 240.64,109.17 241.85,113.90 Q 242.31,115.71 244.18,115.61 Q 249.13,115.34 251.62,119.35 A 2.33,2.31 -15.9 0 0 253.59,120.44 Q 258.47,120.42 259.76,125.15 Q 259.78,125.24 259.98,127.39 Q 260.18,129.50 262.25,130.07 Q 264.17,130.60 264.20,130.62 Q 266.57,131.86 266.48,135.72 Q 266.43,137.79 268.23,138.82 Q 270.80,140.29 269.46,144.00 Z"/>
<path fill="#272b2b" d="M 269.46,144.00 Q 269.05,144.90 269.13,145.80 Q 269.18,146.46 269.94,147.33 Q 272.03,149.71 269.85,151.79 Q 268.55,153.03 268.93,154.88 L 270.71,163.50 Q 268.10,163.19 266.34,161.37 A 1.06,0.77 57.6 0 0 265.51,161.04 Q 264.94,161.14 264.46,161.50 L 263.75,156.04 A 1.89,1.52 -86.7 0 0 262.70,154.57 Q 252.87,151.04 242.48,149.94 Q 203.31,145.78 163.98,148.26 Q 148.61,149.23 133.75,153.24 Q 131.25,153.92 129.04,155.25 L 124.21,156.00 L 122.79,152.75 Q 122.85,151.78 123.40,151.11 A 2.03,1.39 -30.1 0 0 123.81,150.25 Q 124.26,147.20 127.60,145.43 A 2.62,2.61 -14.0 0 0 129.00,143.10 Q 128.97,138.36 133.20,136.19 A 3.19,3.18 -6.3 0 0 134.82,134.17 Q 136.09,129.40 140.10,127.91 Q 142.73,126.93 143.07,123.96 Q 143.32,121.87 145.41,121.69 Q 148.37,121.44 149.92,118.33 Q 151.68,114.80 154.23,115.08 Q 156.29,115.31 157.64,113.73 Q 160.82,110.00 163.53,110.63 Q 165.13,111.00 167.07,111.30 A 3.03,3.02 27.1 0 0 169.65,110.47 Q 174.81,105.41 181.48,109.79 Q 182.98,110.77 184.60,110.01 Q 186.79,108.98 190.11,111.08 A 1.99,1.98 38.9 0 0 192.56,110.82 Q 196.26,107.19 200.39,110.55 Q 202.33,112.12 204.18,110.44 Q 211.58,103.73 218.11,110.97 A 2.42,2.41 -25.1 0 0 220.28,111.75 Q 223.91,111.22 224.78,113.35 Q 225.65,115.48 227.73,114.51 Q 233.05,112.03 235.53,116.70 Q 235.54,116.72 236.22,118.48 Q 237.21,121.06 239.86,120.84 Q 239.90,120.84 243.03,119.83 Q 246.89,118.58 248.58,123.06 Q 249.71,126.05 253.40,125.71 Q 256.33,125.45 256.89,128.33 Q 257.38,130.84 260.65,131.59 Q 262.41,132.00 262.18,133.79 Q 262.00,135.20 263.69,136.06 Q 265.35,136.91 265.54,139.45 A 1.46,1.26 -72.6 0 0 265.91,140.31 L 269.46,144.00 ZM 182.71,113.21 Q 180.99,112.93 179.46,113.54 A 1.03,0.98 -39.8 0 1 178.57,113.48 Q 175.59,111.75 172.84,113.64 A 1.59,1.48 84.1 0 0 172.26,114.41 Q 171.04,117.89 174.25,116.07 Q 175.30,115.47 176.01,115.52 Q 177.02,115.58 177.86,116.18 A 1.49,0.93 50.6 0 0 178.75,116.48 Q 180.14,116.35 180.77,115.47 A 1.30,1.28 -58.5 0 1 182.40,115.07 Q 184.39,116.08 184.26,114.86 A 1.87,1.86 -88.4 0 0 182.71,113.21 ZM 216.16,115.23 Q 216.64,115.40 217.10,115.61 Q 219.08,116.49 218.70,114.87 Q 218.55,114.24 218.05,113.77 Q 216.71,112.50 214.81,112.53 A 1.75,1.00 -51.8 0 0 213.92,112.89 Q 213.21,113.42 212.38,113.60 Q 211.74,113.74 210.32,113.32 Q 207.55,112.51 205.68,114.52 Q 204.83,115.45 204.95,116.31 Q 205.14,117.64 207.90,116.34 A 3.29,3.29 -44.2 0 1 210.76,116.38 Q 213.11,117.57 215.33,115.43 A 0.84,0.75 -55.5 0 1 216.16,115.23 ZM 195.09,118.61 Q 197.49,120.30 197.72,117.99 A 0.89,0.84 21.4 0 0 197.35,117.20 Q 193.12,114.14 190.73,118.55 A 0.36,0.35 -72.2 0 0 190.99,119.08 Q 192.68,119.30 194.25,118.54 A 0.84,0.84 49.7 0 1 195.09,118.61 ZM 230.63,118.43 Q 228.08,116.77 225.37,118.10 Q 224.50,118.53 224.15,119.38 Q 223.25,121.56 226.25,120.75 Q 227.20,120.49 230.06,121.19 Q 233.71,122.08 231.85,119.60 Q 231.32,118.88 230.63,118.43 ZM 157.56,120.69 Q 154.88,119.85 152.84,121.74 Q 152.09,122.44 151.89,123.33 Q 151.50,125.11 153.44,124.99 Q 153.68,124.98 154.32,124.60 L 156.78,123.17 A 1.02,0.56 37.1 0 1 157.65,123.30 Q 158.29,123.68 158.87,123.32 A 0.82,0.71 70.2 0 0 159.19,122.50 Q 158.91,121.11 157.56,120.69 ZM 247.67,125.76 Q 243.87,123.74 242.13,126.79 Q 241.49,127.91 244.00,127.23 A 3.19,3.18 -41.8 0 1 246.04,127.34 Q 248.81,128.43 248.76,127.47 A 2.07,2.05 12.7 0 0 247.67,125.76 Z"/>
<path fill="#393d3d" d="M 182.71,113.21 A 1.87,1.86 -88.4 0 1 184.26,114.86 Q 184.39,116.08 182.40,115.07 A 1.30,1.28 -58.5 0 0 180.77,115.47 Q 180.14,116.35 178.75,116.48 A 1.49,0.93 50.6 0 1 177.86,116.18 Q 177.02,115.58 176.01,115.52 Q 175.30,115.47 174.25,116.07 Q 171.04,117.89 172.26,114.41 A 1.59,1.48 84.1 0 1 172.84,113.64 Q 175.59,111.75 178.57,113.48 A 1.03,0.98 -39.8 0 0 179.46,113.54 Q 180.99,112.93 182.71,113.21 Z"/>
<path fill="#393d3d" d="M 215.33,115.43 Q 213.11,117.57 210.76,116.38 A 3.29,3.29 -44.2 0 0 207.90,116.34 Q 205.14,117.64 204.95,116.31 Q 204.83,115.45 205.68,114.52 Q 207.55,112.51 210.32,113.32 Q 211.74,113.74 212.38,113.60 Q 213.21,113.42 213.92,112.89 A 1.75,1.00 -51.8 0 1 214.81,112.53 Q 216.71,112.50 218.05,113.77 Q 218.55,114.24 218.70,114.87 Q 219.08,116.49 217.10,115.61 Q 216.64,115.40 216.16,115.23 A 0.84,0.75 -55.5 0 0 215.33,115.43 Z"/>
<path fill="#393d3d" d="M 194.25,118.54 Q 192.68,119.30 190.99,119.08 A 0.36,0.35 -72.2 0 1 190.73,118.55 Q 193.12,114.14 197.35,117.20 A 0.89,0.84 21.4 0 1 197.72,117.99 Q 197.49,120.30 195.09,118.61 A 0.84,0.84 49.7 0 0 194.25,118.54 Z"/>
<path fill="#393d3d" d="M 231.85,119.60 Q 233.71,122.08 230.06,121.19 Q 227.20,120.49 226.25,120.75 Q 223.25,121.56 224.15,119.38 Q 224.50,118.53 225.37,118.10 Q 228.08,116.77 230.63,118.43 Q 231.32,118.88 231.85,119.60 Z"/>
<path fill="#393d3d" d="M 157.56,120.69 Q 158.91,121.11 159.19,122.50 A 0.82,0.71 70.2 0 1 158.87,123.32 Q 158.29,123.68 157.65,123.30 A 1.02,0.56 37.1 0 0 156.78,123.17 L 154.32,124.60 Q 153.68,124.98 153.44,124.99 Q 151.50,125.11 151.89,123.33 Q 152.09,122.44 152.84,121.74 Q 154.88,119.85 157.56,120.69 Z"/>
<path fill="#393d3d" d="M 247.67,125.76 A 2.07,2.05 12.7 0 1 248.76,127.47 Q 248.81,128.43 246.04,127.34 A 3.19,3.18 -41.8 0 0 244.00,127.23 Q 241.49,127.91 242.13,126.79 Q 243.87,123.74 247.67,125.76 Z"/>
<path fill="#000000" d="M 264.46,161.50 L 265.79,172.75 L 266.29,188.25 Q 265.35,188.34 265.25,187.50 Q 263.18,169.32 261.15,157.18 A 0.90,0.89 -84.7 0 0 260.60,156.51 Q 253.42,153.75 244.00,152.50 Q 231.10,150.79 223.01,150.38 Q 189.46,148.67 156.00,151.46 Q 143.62,152.49 131.90,156.52 A 0.85,0.84 84.7 0 0 131.36,157.18 Q 128.92,172.29 127.18,187.49 Q 127.08,188.43 126.25,188.21 L 126.04,181.75 L 126.54,175.25 L 128.04,161.75 L 128.50,158.54 L 129.04,155.25 Q 131.25,153.92 133.75,153.24 Q 148.61,149.23 163.98,148.26 Q 203.31,145.78 242.48,149.94 Q 252.87,151.04 262.70,154.57 A 1.89,1.52 -86.7 0 1 263.75,156.04 L 264.46,161.50 Z"/>
<path fill="#feb286" d="M 266.29,188.25 Q 266.68,187.98 266.90,187.53 A 0.69,0.57 -70.4 0 1 267.56,187.13 L 273.71,188.25 Q 273.20,202.80 270.41,217.08 A 0.79,0.59 -84.1 0 1 269.83,217.71 L 268.81,217.77 A 1.24,0.69 58.5 0 1 267.99,217.31 Q 262.92,211.53 255.06,209.69 Q 253.75,209.38 252.50,208.21 Q 245.76,200.04 235.00,199.74 Q 223.47,199.42 212.59,203.15 Q 208.29,204.62 208.25,208.94 Q 208.24,211.00 210.23,210.50 Q 218.57,208.46 227.00,207.00 Q 237.84,205.13 246.74,208.24 A 0.37,0.23 13.9 0 1 247.00,208.50 L 247.00,208.71 Q 230.98,208.33 215.75,212.94 Q 210.01,214.67 206.41,215.02 Q 195.87,216.02 184.25,214.75 Q 180.66,214.36 178.11,213.50 Q 175.78,212.72 175.73,212.71 Q 160.81,208.43 145.25,208.71 Q 152.17,205.73 159.25,206.25 Q 168.48,206.93 178.53,209.65 Q 180.98,210.31 183.36,210.49 A 1.06,1.06 -85.4 0 0 184.50,209.52 Q 184.70,207.03 183.41,205.27 Q 182.45,203.95 179.98,203.10 Q 170.11,199.71 159.25,199.75 Q 146.67,199.80 139.25,209.46 Q 136.49,210.33 133.73,211.18 Q 128.31,212.85 125.10,217.40 A 1.50,1.15 -73.5 0 1 124.33,217.96 Q 123.29,218.21 122.28,217.87 A 0.86,0.78 -86.6 0 1 121.74,217.20 Q 120.05,206.66 119.46,196.00 Q 119.49,195.15 123.64,194.60 A 1.91,1.90 -82.0 0 0 125.14,193.47 Q 126.13,191.21 126.25,188.21 Q 127.08,188.43 127.18,187.49 Q 128.92,172.29 131.36,157.18 A 0.85,0.84 84.7 0 1 131.90,156.52 Q 143.62,152.49 156.00,151.46 Q 189.46,148.67 223.01,150.38 Q 231.10,150.79 244.00,152.50 Q 253.42,153.75 260.60,156.51 A 0.90,0.89 -84.7 0 1 261.15,157.18 Q 263.18,169.32 265.25,187.50 Q 265.35,188.34 266.29,188.25 Z"/>
<path fill="#393d3d" d="M 129.04,155.25 L 128.50,158.54 L 123.50,158.71 L 124.21,156.00 L 129.04,155.25 Z"/>
<path fill="#655044" d="M 128.50,158.54 L 128.04,161.75 Q 126.32,161.38 124.81,162.31 Q 124.18,162.71 122.29,162.50 L 123.50,158.71 L 128.50,158.54 Z"/>
<path fill="#956f59" d="M 270.71,163.50 Q 272.33,168.24 272.71,173.25 Q 272.03,173.89 271.00,173.50 Q 269.51,172.93 265.79,172.75 L 264.46,161.50 Q 264.94,161.14 265.51,161.04 A 1.06,0.77 57.6 0 1 266.34,161.37 Q 268.10,163.19 270.71,163.50 Z"/>
<path fill="#956f59" d="M 128.04,161.75 L 126.54,175.25 Q 126.75,174.01 125.82,174.33 Q 122.86,175.35 119.79,175.75 Q 120.34,168.99 122.29,162.50 Q 124.18,162.71 124.81,162.31 Q 126.32,161.38 128.04,161.75 Z"/>
<path fill="#b68567" d="M 265.79,172.75 Q 269.51,172.93 271.00,173.50 Q 272.03,173.89 272.71,173.25 Q 273.78,180.71 273.71,188.25 L 267.56,187.13 A 0.69,0.57 -70.4 0 0 266.90,187.53 Q 266.68,187.98 266.29,188.25 L 265.79,172.75 Z"/>
<path fill="#b68567" d="M 126.54,175.25 L 126.04,181.75 Q 126.52,179.83 125.06,180.31 Q 121.33,181.55 119.29,181.75 L 119.79,175.75 Q 122.86,175.35 125.82,174.33 Q 126.75,174.01 126.54,175.25 Z"/>
<path fill="#cf9472" d="M 126.04,181.75 L 126.25,188.21 Q 126.13,191.21 125.14,193.47 A 1.91,1.90 -82.0 0 1 123.64,194.60 Q 119.49,195.15 119.46,196.00 Q 118.64,188.89 119.29,181.75 Q 121.33,181.55 125.06,180.31 Q 126.52,179.83 126.04,181.75 Z"/>
<path fill="#191b1b" d="M 145.25,208.71 L 139.25,209.46 Q 146.67,199.80 159.25,199.75 Q 170.11,199.71 179.98,203.10 Q 182.45,203.95 183.41,205.27 Q 184.70,207.03 184.50,209.52 A 1.06,1.06 -85.4 0 1 183.36,210.49 Q 180.98,210.31 178.53,209.65 Q 168.48,206.93 159.25,206.25 Q 152.17,205.73 145.25,208.71 Z"/>
<path fill="#191b1b" d="M 252.50,208.21 L 247.00,208.71 L 247.00,208.50 A 0.37,0.23 13.9 0 0 246.74,208.24 Q 237.84,205.13 227.00,207.00 Q 218.57,208.46 210.23,210.50 Q 208.24,211.00 208.25,208.94 Q 208.29,204.62 212.59,203.15 Q 223.47,199.42 235.00,199.74 Q 245.76,200.04 252.50,208.21 Z"/>
<path fill="#fdbf65" d="M 182.26,218.75 Q 186.58,222.49 185.81,228.04 Q 185.60,229.62 184.97,228.15 Q 184.30,226.56 183.84,224.95 Q 183.20,222.68 182.66,221.80 Q 180.88,218.87 177.50,217.50 Q 173.07,215.71 168.41,214.97 Q 167.03,214.76 159.09,213.94 Q 150.95,213.11 142.75,213.25 Q 141.77,213.27 138.71,213.76 Q 128.14,215.48 126.83,226.07 Q 126.75,226.73 126.31,226.90 A 0.50,0.40 78.8 0 1 125.76,226.44 Q 125.19,220.68 128.06,217.31 Q 130.98,213.89 137.31,212.56 Q 143.91,211.18 147.94,211.13 Q 164.21,210.94 179.44,216.56 Q 180.22,216.85 180.95,217.54 Q 182.15,218.66 182.26,218.75 Z"/>
<path fill="#eadad5" d="M 251.50,211.46 Q 248.85,212.29 245.25,212.00 Q 239.31,211.52 232.51,213.04 Q 231.24,213.32 230.50,212.21 Q 240.94,210.23 251.50,211.46 Z"/>
<path fill="#fdbf65" d="M 251.50,211.46 Q 258.29,212.18 263.66,216.34 Q 266.92,218.86 267.25,224.25 Q 267.54,228.88 266.23,226.04 Q 266.02,225.57 265.95,224.92 Q 265.30,218.82 260.44,216.06 Q 254.78,212.85 247.00,213.11 Q 237.12,213.44 224.75,215.00 Q 218.87,215.74 214.17,218.35 Q 212.35,219.35 211.24,220.63 Q 209.71,222.40 209.56,224.06 Q 209.36,226.40 208.53,227.84 Q 207.79,229.13 207.58,227.66 Q 206.87,222.86 210.16,219.41 Q 213.14,216.27 217.29,215.00 Q 223.77,213.03 230.50,212.21 Q 231.24,213.32 232.51,213.04 Q 239.31,211.52 245.25,212.00 Q 248.85,212.29 251.50,211.46 Z"/>
<path fill="#feb286" d="M 185.54,231.00 Q 185.55,235.64 184.95,240.24 Q 184.21,245.92 180.21,250.00 Q 170.97,258.42 158.50,259.70 A 0.84,0.82 69.9 0 1 157.73,259.33 Q 155.20,255.63 153.89,259.78 A 0.66,0.65 9.9 0 1 153.24,260.23 Q 150.13,260.07 147.19,259.20 Q 146.81,259.09 141.72,257.65 Q 135.31,255.84 131.31,250.44 Q 130.84,249.80 130.46,250.00 Q 123.83,240.69 125.71,229.25 Q 128.37,227.78 128.74,225.06 Q 129.14,222.10 129.39,221.57 Q 131.36,217.41 136.25,216.00 Q 141.35,214.53 146.00,214.58 Q 153.15,214.66 160.25,215.40 Q 169.14,216.32 170.25,216.55 Q 175.29,217.56 179.72,220.42 Q 179.94,220.56 180.11,220.76 Q 181.59,222.51 179.18,220.77 A 2.61,2.58 -25.4 0 0 177.74,220.27 Q 163.63,219.67 150.00,220.25 Q 147.61,220.35 138.04,223.17 A 0.43,0.37 -24.7 0 0 137.77,223.76 Q 138.10,224.23 138.90,224.60 Q 140.16,225.17 138.92,225.57 L 134.75,226.92 A 0.39,0.34 -23.6 0 0 134.51,227.44 Q 137.44,232.30 141.78,235.72 Q 145.89,238.95 151.46,240.43 Q 167.76,244.77 182.99,233.70 A 1.77,1.77 60.1 0 0 183.57,231.54 Q 182.05,228.15 178.86,224.19 Q 178.38,223.59 179.15,223.51 Q 182.25,223.19 182.52,225.22 Q 182.78,227.17 182.80,227.23 Q 183.63,229.45 185.54,231.00 ZM 182.17,238.85 Q 176.97,244.84 171.23,248.66 Q 170.81,248.95 171.32,248.86 Q 180.16,247.33 182.54,239.05 Q 182.82,238.09 182.17,238.85 Z"/>
<path fill="#feb286" d="M 268.04,229.50 Q 267.63,230.46 267.71,231.50 Q 268.65,243.99 260.04,252.75 Q 259.79,252.27 259.41,252.66 Q 255.69,256.43 250.76,257.84 Q 248.69,258.43 245.20,259.34 Q 242.39,260.08 239.43,260.07 A 0.54,0.51 87.6 0 1 238.92,259.57 Q 238.70,256.81 236.25,258.07 A 1.40,0.84 -83.0 0 0 235.69,258.79 Q 235.19,260.11 233.25,259.75 Q 222.70,257.78 214.75,251.79 Q 206.40,243.35 207.75,231.29 Q 210.47,228.47 210.74,224.61 A 0.75,0.74 -5.6 0 1 211.29,223.95 Q 215.35,222.88 213.84,224.59 Q 211.16,227.60 209.16,232.26 A 1.09,1.08 31.7 0 0 209.46,233.52 Q 219.64,241.88 232.43,241.77 Q 240.75,241.69 247.11,238.33 Q 253.98,234.69 258.48,227.54 A 0.55,0.49 22.6 0 0 258.12,226.79 L 254.38,225.78 A 0.70,0.68 -81.4 0 1 253.87,225.07 Q 253.91,224.29 254.96,223.85 Q 255.40,223.67 254.97,223.50 Q 247.31,220.53 241.00,220.25 Q 228.50,219.70 215.49,220.27 A 3.13,3.04 26.2 0 0 213.94,220.77 Q 212.83,221.50 212.91,220.99 A 1.17,0.65 -22.5 0 1 213.44,220.32 Q 217.41,217.73 221.00,217.00 Q 229.05,215.37 239.68,214.84 Q 239.80,214.84 243.80,214.56 Q 248.41,214.24 253.01,214.92 Q 257.36,215.56 261.19,218.31 Q 264.16,220.45 264.20,224.00 Q 264.24,228.09 268.04,229.50 ZM 214.56,243.19 Q 212.67,240.88 210.65,238.69 Q 210.30,238.30 210.43,238.80 Q 212.74,247.83 222.01,248.95 Q 222.51,249.01 222.08,248.74 Q 216.07,245.03 214.56,243.19 Z"/>
<path fill="#eadad5" d="M 191.46,218.32 Q 188.18,218.25 184.97,217.41 Q 183.18,216.95 184.77,216.77 Q 184.99,216.75 185.22,216.77 Q 196.91,218.04 208.56,216.52 Q 208.76,216.50 208.93,216.51 Q 210.19,216.62 208.69,217.05 Q 202.94,218.68 197.02,218.45 Q 196.60,218.44 191.46,218.32 Z"/>
<path fill="#feb286" d="M 192.57,219.61 Q 199.92,220.04 207.25,218.93 Q 208.34,218.76 207.71,219.67 Q 206.51,221.37 205.93,223.78 Q 205.89,223.94 205.81,224.85 Q 205.70,225.96 204.70,225.25 A 1.82,1.02 84.1 0 1 204.15,224.47 Q 203.40,222.54 201.72,221.59 Q 200.66,221.00 198.67,221.00 Q 197.52,221.00 196.37,221.00 Q 196.29,221.00 194.63,220.89 Q 191.97,220.72 190.31,222.65 Q 190.17,222.81 189.53,224.09 Q 189.17,224.82 188.45,225.40 A 0.37,0.36 -28.3 0 1 187.87,225.23 L 186.21,219.78 A 0.36,0.35 -7.4 0 1 186.57,219.33 Q 189.57,219.44 192.57,219.61 Z"/>
<path fill="#feb286" d="M 117.96,233.50 Q 117.54,233.54 117.35,233.17 Q 114.48,227.69 109.16,224.61 Q 107.55,223.68 107.16,224.95 A 0.83,0.68 30.0 0 0 107.46,225.74 L 109.29,227.25 Q 106.99,229.94 106.75,232.50 Q 105.52,245.88 112.75,258.29 Q 114.49,262.26 118.00,264.75 Q 119.61,265.90 121.50,265.21 L 123.55,274.06 A 0.41,0.39 -4.0 0 1 123.11,274.53 Q 119.33,274.23 117.06,271.69 Q 116.52,271.08 114.78,268.62 Q 114.12,267.68 112.49,265.57 Q 107.50,259.10 105.18,251.41 Q 103.22,244.88 102.57,238.53 Q 101.85,231.54 103.75,225.25 Q 105.56,219.28 111.82,220.11 A 0.75,0.65 86.4 0 1 112.39,220.69 Q 112.94,223.29 116.66,224.32 A 1.14,0.98 7.5 0 1 117.49,225.25 L 117.96,233.50 Z"/>
<path fill="#feb286" d="M 271.25,265.21 Q 273.08,265.91 274.44,265.19 Q 278.50,263.02 280.21,258.25 Q 287.13,246.00 286.25,233.00 Q 286.06,230.25 283.71,227.25 L 285.29,225.98 A 1.24,0.95 -22.2 0 0 285.75,225.19 Q 285.86,223.50 284.06,224.31 Q 279.19,226.51 275.29,233.25 Q 274.88,231.03 274.94,228.77 Q 274.95,228.63 274.86,226.74 Q 274.73,223.93 278.06,223.94 Q 280.02,223.94 280.36,222.02 Q 280.56,220.97 281.38,220.10 A 1.14,1.06 22.9 0 1 282.26,219.78 Q 287.33,220.24 289.00,225.00 Q 291.03,230.78 290.40,237.51 Q 289.83,243.59 288.25,249.43 Q 286.67,255.32 283.65,260.54 Q 280.19,266.50 275.58,271.69 Q 274.24,273.19 272.96,273.76 Q 271.43,274.43 269.62,274.58 A 0.41,0.38 4.1 0 1 269.19,274.11 L 271.25,265.21 Z"/>
<rect fill="#fdbf65" x="-4.04" y="-0.70" transform="translate(119.12,220.88) rotate(2.5)" width="8.08" height="1.40" rx="0.66"/>
<path fill="#fdbf65" d="M 277.31,220.19 Q 279.11,220.52 277.88,221.29 Q 277.54,221.50 277.06,221.52 Q 273.78,221.64 270.50,221.80 Q 269.21,221.86 269.24,220.80 A 0.66,0.58 -3.7 0 1 269.80,220.24 Q 274.20,219.62 277.31,220.19 Z"/>
<path fill="#fdbf65" d="M 190.10,225.46 Q 191.30,222.18 194.46,221.88 Q 196.87,221.65 199.03,221.90 Q 201.75,222.21 202.99,224.88 Q 203.42,225.80 203.98,226.26 Q 204.64,226.81 205.36,227.30 Q 205.58,227.45 205.68,227.64 Q 206.06,228.36 205.24,228.08 Q 204.96,227.98 204.74,227.77 Q 202.07,225.19 200.09,224.16 Q 197.71,222.93 194.82,223.55 Q 192.13,224.12 190.13,226.91 A 2.74,2.73 -79.5 0 1 188.58,227.98 Q 185.74,228.71 188.32,227.12 Q 188.96,226.72 189.55,226.26 A 2.01,1.47 88.4 0 0 190.10,225.46 Z"/>
<path fill="#b68567" d="M 123.50,229.21 L 123.04,229.50 Q 121.98,225.98 122.25,225.00 Q 122.78,223.12 123.18,224.68 Q 123.25,224.96 123.24,225.33 Q 123.17,227.28 123.50,229.21 Z"/>
<path fill="#813c2e" d="M 162.25,224.29 Q 165.47,229.86 161.75,234.75 Q 157.70,240.08 150.97,237.72 Q 144.04,235.30 144.56,227.81 Q 145.14,227.09 144.29,227.00 Q 146.11,224.56 149.21,224.50 L 149.79,226.50 Q 147.99,231.59 152.56,233.44 Q 154.60,234.26 156.37,233.11 Q 157.83,232.16 158.45,230.34 Q 159.55,227.16 156.65,224.81 Q 156.26,224.49 156.74,224.38 Q 159.47,223.74 162.25,224.29 Z"/>
<path fill="#ffffff" d="M 144.29,227.00 Q 145.14,227.09 144.56,227.81 Q 144.04,235.30 150.97,237.72 Q 157.70,240.08 161.75,234.75 Q 165.47,229.86 162.25,224.29 Q 164.82,223.85 167.41,224.04 Q 167.57,224.05 171.10,224.12 Q 172.58,224.15 173.98,224.62 Q 175.24,225.05 176.34,226.21 Q 178.73,228.72 180.20,231.70 A 1.43,1.42 59.9 0 1 179.73,233.49 Q 167.55,241.84 153.23,238.86 Q 146.36,237.44 142.11,231.56 A 1.50,1.42 46.4 0 1 142.10,229.81 L 144.29,227.00 Z"/>
<path fill="#813c2e" d="M 231.75,224.29 Q 233.37,226.82 233.25,228.75 Q 232.76,236.79 225.00,238.46 Q 223.52,238.06 222.00,238.29 Q 218.63,237.71 216.00,235.54 Q 216.61,235.32 216.18,234.94 Q 215.72,234.54 215.60,234.31 L 213.50,230.21 Q 214.99,226.32 218.71,224.50 L 219.71,227.00 Q 219.08,226.80 219.00,227.25 Q 218.00,232.87 223.00,233.75 Q 226.54,234.37 227.79,230.43 Q 228.89,226.95 225.98,224.74 Q 225.47,224.35 226.10,224.23 Q 228.87,223.70 231.75,224.29 Z"/>
<path fill="#77271d" d="M 117.96,233.50 L 117.71,237.50 Q 116.44,236.77 115.81,235.42 Q 115.16,234.04 114.39,235.36 Q 110.39,242.26 112.79,250.21 Q 112.94,250.70 112.59,250.32 Q 111.12,248.67 110.81,246.94 Q 109.50,239.55 113.38,232.48 A 0.97,0.96 43.6 0 0 113.35,231.49 Q 111.71,228.94 109.29,227.25 L 107.46,225.74 A 0.83,0.68 30.0 0 1 107.16,224.95 Q 107.55,223.68 109.16,224.61 Q 114.48,227.69 117.35,233.17 Q 117.54,233.54 117.96,233.50 Z"/>
<path fill="#ffffff" d="M 149.79,226.50 L 149.21,224.50 L 154.07,224.39 Q 156.58,224.33 154.81,226.30 Q 152.26,229.14 149.79,226.50 Z"/>
<path fill="#ffffff" d="M 219.71,227.00 L 218.71,224.50 L 223.94,224.39 Q 225.43,224.36 224.59,225.71 Q 222.52,229.02 219.71,227.00 Z"/>
<path fill="#ffffff" d="M 231.75,224.29 Q 242.14,224.16 244.25,224.75 Q 248.96,226.08 250.99,230.48 A 0.89,0.86 -40.7 0 1 250.91,231.35 Q 246.60,237.72 239.44,239.19 Q 232.60,240.59 224.75,238.96 Q 224.67,238.56 225.00,238.46 Q 232.76,236.79 233.25,228.75 Q 233.37,226.82 231.75,224.29 Z"/>
<path fill="#77271d" d="M 283.71,227.25 Q 281.60,228.61 279.66,231.47 A 1.21,1.20 47.5 0 0 279.61,232.77 Q 284.05,240.45 281.26,248.98 Q 281.19,249.20 281.06,249.37 Q 280.34,250.33 280.65,248.83 Q 282.18,241.50 278.45,235.24 A 0.53,0.53 59.5 0 0 277.73,235.05 Q 276.09,235.98 275.29,237.75 L 275.29,233.25 Q 279.19,226.51 284.06,224.31 Q 285.86,223.50 285.75,225.19 A 1.24,0.95 -22.2 0 1 285.29,225.98 L 283.71,227.25 Z"/>
<path fill="#191b1b" d="M 269.69,226.95 L 269.59,225.54 A 1.21,0.77 74.9 0 1 269.86,224.68 Q 270.24,224.34 270.43,224.98 Q 270.51,225.22 270.41,225.51 Q 270.13,226.40 270.02,226.97 Q 269.78,228.30 269.69,226.95 Z"/>
<path fill="#feb286" d="M 206.25,231.04 L 205.96,234.75 Q 205.37,234.90 205.19,235.94 Q 203.80,243.74 204.50,249.75 Q 205.14,255.23 206.74,258.29 A 0.35,0.22 73.3 0 0 206.97,258.49 L 207.13,258.51 A 0.34,0.26 89.2 0 0 207.41,258.13 Q 206.88,252.03 206.70,245.91 Q 206.70,245.82 206.46,244.76 Q 206.30,244.01 207.00,243.46 Q 215.83,261.37 236.25,262.50 Q 258.35,263.72 267.44,244.44 Q 268.13,242.97 268.49,240.41 Q 268.58,239.73 268.91,239.33 Q 269.29,238.87 269.79,238.50 Q 270.47,244.55 269.75,247.75 Q 263.88,273.75 260.75,290.25 Q 258.86,300.18 253.17,307.64 Q 244.05,319.58 231.96,328.50 Q 226.00,328.07 220.53,325.76 Q 219.58,325.36 221.16,327.85 Q 221.22,327.94 221.11,327.92 Q 218.25,327.27 215.90,325.36 Q 212.41,322.52 209.22,320.12 Q 208.52,319.59 208.87,320.40 Q 211.23,325.76 209.19,323.56 Q 206.65,320.84 204.71,315.25 Q 205.59,314.64 206.52,314.11 Q 207.16,313.75 207.46,313.35 Q 208.49,311.97 206.26,312.16 Q 195.79,313.06 185.31,312.11 A 1.18,0.83 17.9 0 0 184.43,312.38 Q 183.85,313.04 184.81,313.69 Q 185.32,314.03 188.29,315.00 Q 186.28,320.09 185.56,321.31 Q 184.35,323.38 184.83,321.02 Q 185.03,320.04 184.72,319.21 Q 184.53,318.71 184.26,319.19 Q 180.92,325.24 174.55,327.79 Q 173.92,328.04 173.41,328.08 Q 171.64,328.21 173.06,326.49 Q 173.91,325.46 172.66,325.92 Q 166.87,328.05 161.50,328.79 Q 151.04,321.57 141.44,309.81 Q 137.05,304.44 134.58,298.82 Q 133.01,295.23 131.26,286.45 Q 127.47,267.38 123.06,248.44 Q 122.54,246.20 123.21,237.00 L 123.86,238.19 Q 124.24,238.89 124.27,239.05 Q 125.99,248.72 132.50,254.86 Q 138.51,260.52 147.69,262.22 Q 158.99,264.32 170.50,259.25 Q 181.96,254.20 186.00,243.00 Q 187.12,239.90 187.00,230.96 Q 189.96,229.87 192.01,227.65 Q 193.66,225.87 194.94,225.52 Q 198.77,224.48 201.44,227.56 Q 203.65,230.12 206.25,231.04 ZM 137.2882,263.5629 A 1.77,1.54 -23.9 0 0 135.0461,262.8720 A 1.77,1.54 -23.9 0 0 134.0518,264.9971 A 1.77,1.54 -23.9 0 0 136.2939,265.6880 A 1.77,1.54 -23.9 0 0 137.2882,263.5629 ZM 256.94,265.81 Q 258.44,266.24 258.89,264.74 A 1.12,1.08 37.2 0 0 258.75,263.83 Q 257.31,261.59 255.62,263.66 A 0.81,0.76 -39.3 0 0 255.51,264.52 Q 256.03,265.55 256.94,265.81 ZM 147.6486,266.7093 A 2.06,1.57 -11.5 0 0 145.3170,265.5815 A 2.06,1.57 -11.5 0 0 143.6114,267.5307 A 2.06,1.57 -11.5 0 0 145.9430,268.6585 A 2.06,1.57 -11.5 0 0 147.6486,266.7093 ZM 249.1911,267.5928 A 2.03,1.57 12.6 0 0 247.5525,265.6178 A 2.03,1.57 12.6 0 0 245.2289,266.7072 A 2.03,1.57 12.6 0 0 246.8675,268.6822 A 2.03,1.57 12.6 0 0 249.1911,267.5928 ZM 202.50,276.29 Q 201.67,276.24 199.25,277.00 Q 196.14,277.97 192.25,276.50 Q 190.58,275.87 189.75,276.04 Q 187.28,273.98 185.19,275.62 Q 182.96,277.37 182.57,277.52 Q 178.82,278.96 179.09,274.63 Q 179.14,273.70 179.83,272.00 Q 180.36,270.70 180.61,269.30 Q 180.70,268.79 180.30,269.13 Q 177.35,271.68 177.14,275.34 Q 177.00,277.85 178.57,279.20 Q 180.38,280.77 183.25,279.96 L 192.25,281.96 Q 196.63,285.40 200.75,281.71 L 209.50,279.96 Q 214.26,280.87 215.40,277.39 Q 216.10,275.22 214.98,272.70 Q 213.97,270.43 212.09,268.70 Q 211.92,268.54 211.75,268.51 Q 211.23,268.40 211.50,269.00 Q 213.04,272.47 213.64,275.01 A 1.64,1.48 51.5 0 1 213.58,275.96 Q 211.92,280.08 208.56,276.69 Q 205.45,273.54 202.50,276.29 ZM 162.44,301.31 Q 164.79,301.64 167.14,301.95 Q 169.31,302.23 171.81,302.81 Q 198.08,308.92 223.31,302.08 Q 224.70,301.71 226.13,301.74 Q 232.38,301.88 229.92,298.28 Q 229.02,296.94 227.83,296.59 Q 225.99,296.03 225.01,298.10 A 1.17,0.97 -81.2 0 1 224.34,298.69 Q 196.13,306.18 167.92,298.69 A 1.34,1.20 78.4 0 1 167.18,298.14 Q 165.01,294.82 162.19,298.19 Q 159.87,300.95 162.44,301.31 Z"/>
<path fill="#de7d5e" d="M 109.29,227.25 Q 111.71,228.94 113.35,231.49 A 0.97,0.96 43.6 0 1 113.38,232.48 Q 109.50,239.55 110.81,246.94 Q 111.12,248.67 112.59,250.32 Q 112.94,250.70 112.79,250.21 Q 110.39,242.26 114.39,235.36 Q 115.16,234.04 115.81,235.42 Q 116.44,236.77 117.71,237.50 Q 117.91,240.91 117.97,244.32 Q 118.04,247.95 118.66,251.10 Q 119.93,257.55 121.21,264.00 Q 118.32,264.63 116.32,262.43 Q 114.49,260.40 112.75,258.29 Q 105.52,245.88 106.75,232.50 Q 106.99,229.94 109.29,227.25 Z"/>
<path fill="#de7d5e" d="M 283.71,227.25 Q 286.06,230.25 286.25,233.00 Q 287.13,246.00 280.21,258.25 Q 278.52,259.79 277.03,261.54 Q 274.85,264.08 271.50,263.96 Q 274.85,251.06 275.29,237.75 Q 276.09,235.98 277.73,235.05 A 0.53,0.53 59.5 0 1 278.45,235.24 Q 282.18,241.50 280.65,248.83 Q 280.34,250.33 281.06,249.37 Q 281.19,249.20 281.26,248.98 Q 284.05,240.45 279.61,232.77 A 1.21,1.20 47.5 0 1 279.66,231.47 Q 281.60,228.61 283.71,227.25 Z"/>
<path fill="#ffffff" d="M 123.50,229.21 Q 124.52,230.06 125.71,229.25 Q 123.83,240.69 130.46,250.00 Q 136.02,257.55 144.44,259.81 Q 159.96,263.98 174.00,255.50 Q 177.27,253.52 180.21,250.00 Q 184.21,245.92 184.95,240.24 Q 185.55,235.64 185.54,231.00 L 187.00,230.96 Q 187.12,239.90 186.00,243.00 Q 181.96,254.20 170.50,259.25 Q 158.99,264.32 147.69,262.22 Q 138.51,260.52 132.50,254.86 Q 125.99,248.72 124.27,239.05 Q 124.24,238.89 123.86,238.19 L 123.21,237.00 L 123.04,229.50 L 123.50,229.21 Z"/>
<path fill="#ffffff" d="M 269.79,238.50 Q 269.29,238.87 268.91,239.33 Q 268.58,239.73 268.49,240.41 Q 268.13,242.97 267.44,244.44 Q 258.35,263.72 236.25,262.50 Q 215.83,261.37 207.00,243.46 L 205.96,234.75 L 206.25,231.04 Q 207.07,230.81 207.75,231.29 Q 206.40,243.35 214.75,251.79 Q 225.10,261.56 240.25,260.75 Q 252.06,260.12 260.04,252.75 Q 268.65,243.99 267.71,231.50 Q 267.63,230.46 268.04,229.50 L 269.20,229.42 A 0.46,0.41 -3.2 0 1 269.70,229.81 L 269.79,238.50 Z"/>
<path fill="#ffffff" d="M 213.50,230.21 L 215.60,234.31 Q 215.72,234.54 216.18,234.94 Q 216.61,235.32 216.00,235.54 Q 215.08,234.95 214.12,234.42 Q 211.31,232.87 213.50,230.21 Z"/>
<path fill="#77271d" d="M 205.96,234.75 L 207.00,243.46 Q 206.30,244.01 206.46,244.76 Q 206.70,245.82 206.70,245.91 Q 206.88,252.03 207.41,258.13 A 0.34,0.26 89.2 0 1 207.13,258.51 L 206.97,258.49 A 0.35,0.22 73.3 0 1 206.74,258.29 Q 205.14,255.23 204.50,249.75 Q 203.80,243.74 205.19,235.94 Q 205.37,234.90 205.96,234.75 Z"/>
<path fill="#de7d5e" d="M 214.56,243.19 Q 216.07,245.03 222.08,248.74 Q 222.51,249.01 222.01,248.95 Q 212.74,247.83 210.43,238.80 Q 210.30,238.30 210.65,238.69 Q 212.67,240.88 214.56,243.19 Z"/>
<path fill="#cf9472" d="M 222.00,238.29 Q 223.52,238.06 225.00,238.46 Q 224.67,238.56 224.75,238.96 L 222.00,238.29 Z"/>
<path fill="#de7d5e" d="M 182.17,238.85 Q 182.82,238.09 182.54,239.05 Q 180.16,247.33 171.32,248.86 Q 170.81,248.95 171.23,248.66 Q 176.97,244.84 182.17,238.85 Z"/>
<path fill="#b68567" d="M 180.21,250.00 Q 177.27,253.52 174.00,255.50 Q 159.96,263.98 144.44,259.81 Q 136.02,257.55 130.46,250.00 Q 130.84,249.80 131.31,250.44 Q 135.31,255.84 141.72,257.65 Q 146.81,259.09 147.19,259.20 Q 150.13,260.07 153.24,260.23 A 0.66,0.65 9.9 0 0 153.89,259.78 Q 155.20,255.63 157.73,259.33 A 0.84,0.82 69.9 0 0 158.50,259.70 Q 170.97,258.42 180.21,250.00 Z"/>
<path fill="#b68567" d="M 214.75,251.79 Q 222.70,257.78 233.25,259.75 Q 235.19,260.11 235.69,258.79 A 1.40,0.84 -83.0 0 1 236.25,258.07 Q 238.70,256.81 238.92,259.57 A 0.54,0.51 87.6 0 0 239.43,260.07 Q 242.39,260.08 245.20,259.34 Q 248.69,258.43 250.76,257.84 Q 255.69,256.43 259.41,252.66 Q 259.79,252.27 260.04,252.75 Q 252.06,260.12 240.25,260.75 Q 225.10,261.56 214.75,251.79 Z"/>
<path fill="#77271d" d="M 112.75,258.29 Q 114.49,260.40 116.32,262.43 Q 118.32,264.63 121.21,264.00 L 121.50,265.21 Q 119.61,265.90 118.00,264.75 Q 114.49,262.26 112.75,258.29 Z"/>
<path fill="#813c2e" d="M 280.21,258.25 Q 278.50,263.02 274.44,265.19 Q 273.08,265.91 271.25,265.21 Q 271.07,264.49 271.50,263.96 Q 274.85,264.08 277.03,261.54 Q 278.52,259.79 280.21,258.25 Z"/>
<ellipse fill="#ca7d5e" cx="0.00" cy="0.00" transform="translate(135.67,264.28) rotate(-23.9)" rx="1.77" ry="1.54"/>
<path fill="#ca7d5e" d="M 256.94,265.81 Q 256.03,265.55 255.51,264.52 A 0.81,0.76 -39.3 0 1 255.62,263.66 Q 257.31,261.59 258.75,263.83 A 1.12,1.08 37.2 0 1 258.89,264.74 Q 258.44,266.24 256.94,265.81 Z"/>
<ellipse fill="#ca7d5e" cx="0.00" cy="0.00" transform="translate(145.63,267.12) rotate(-11.5)" rx="2.06" ry="1.57"/>
<ellipse fill="#ca7d5e" cx="0.00" cy="0.00" transform="translate(247.21,267.15) rotate(12.6)" rx="2.03" ry="1.57"/>
<path fill="#77271d" d="M 209.50,279.96 L 206.19,277.31 A 1.22,1.05 40.0 0 0 204.63,277.33 L 200.75,281.71 Q 196.63,285.40 192.25,281.96 L 188.58,277.70 A 1.95,1.74 -40.7 0 0 185.98,277.65 L 183.25,279.96 Q 180.38,280.77 178.57,279.20 Q 177.00,277.85 177.14,275.34 Q 177.35,271.68 180.30,269.13 Q 180.70,268.79 180.61,269.30 Q 180.36,270.70 179.83,272.00 Q 179.14,273.70 179.09,274.63 Q 178.82,278.96 182.57,277.52 Q 182.96,277.37 185.19,275.62 Q 187.28,273.98 189.75,276.04 Q 192.81,279.84 194.06,280.69 Q 196.86,282.57 199.31,280.06 Q 201.58,277.74 202.50,276.29 Q 205.45,273.54 208.56,276.69 Q 211.92,280.08 213.58,275.96 A 1.64,1.48 51.5 0 0 213.64,275.01 Q 213.04,272.47 211.50,269.00 Q 211.23,268.40 211.75,268.51 Q 211.92,268.54 212.09,268.70 Q 213.97,270.43 214.98,272.70 Q 216.10,275.22 215.40,277.39 Q 214.26,280.87 209.50,279.96 Z"/>
<path fill="#ce6148" d="M 189.75,276.04 Q 190.58,275.87 192.25,276.50 Q 196.14,277.97 199.25,277.00 Q 201.67,276.24 202.50,276.29 Q 201.58,277.74 199.31,280.06 Q 196.86,282.57 194.06,280.69 Q 192.81,279.84 189.75,276.04 Z"/>
<path fill="#ca7d5e" d="M 192.25,281.96 L 183.25,279.96 L 185.98,277.65 A 1.95,1.74 -40.7 0 1 188.58,277.70 L 192.25,281.96 Z"/>
<path fill="#ca7d5e" d="M 209.50,279.96 L 200.75,281.71 L 204.63,277.33 A 1.22,1.05 40.0 0 1 206.19,277.31 L 209.50,279.96 Z"/>
<path fill="#000000" d="M 162.44,301.31 Q 159.87,300.95 162.19,298.19 Q 165.01,294.82 167.18,298.14 A 1.34,1.20 78.4 0 0 167.92,298.69 Q 196.13,306.18 224.34,298.69 A 1.17,0.97 -81.2 0 0 225.01,298.10 Q 225.99,296.03 227.83,296.59 Q 229.02,296.94 229.92,298.28 Q 232.38,301.88 226.13,301.74 Q 224.70,301.71 223.31,302.08 Q 198.08,308.92 171.81,302.81 Q 169.31,302.23 167.14,301.95 Q 164.79,301.64 162.44,301.31 Z"/>
<path fill="#ce6148" d="M 204.71,315.25 Q 196.46,316.70 188.29,315.00 Q 185.32,314.03 184.81,313.69 Q 183.85,313.04 184.43,312.38 A 1.18,0.83 17.9 0 1 185.31,312.11 Q 195.79,313.06 206.26,312.16 Q 208.49,311.97 207.46,313.35 Q 207.16,313.75 206.52,314.11 Q 205.59,314.64 204.71,315.25 Z"/>
<path fill="#191b1b" d="M 188.29,315.00 Q 196.46,316.70 204.71,315.25 Q 206.65,320.84 209.19,323.56 Q 211.23,325.76 208.87,320.40 Q 208.52,319.59 209.22,320.12 Q 212.41,322.52 215.90,325.36 Q 218.25,327.27 221.11,327.92 Q 221.22,327.94 221.16,327.85 Q 219.58,325.36 220.53,325.76 Q 226.00,328.07 231.96,328.50 Q 231.85,329.21 230.56,330.06 Q 225.66,333.32 216.75,340.76 Q 209.19,347.08 199.25,347.50 Q 190.23,347.88 182.94,344.78 Q 179.72,343.41 173.83,338.66 Q 168.82,334.62 164.19,331.56 Q 162.33,330.33 161.50,328.79 Q 166.87,328.05 172.66,325.92 Q 173.91,325.46 173.06,326.49 Q 171.64,328.21 173.41,328.08 Q 173.92,328.04 174.55,327.79 Q 180.92,325.24 184.26,319.19 Q 184.53,318.71 184.72,319.21 Q 185.03,320.04 184.83,321.02 Q 184.35,323.38 185.56,321.31 Q 186.28,320.09 188.29,315.00 Z"/>
<path fill="#354435" d="M 259.96,342.50 Q 259.74,343.05 259.28,343.20 Q 258.81,343.35 258.75,343.38 Q 243.61,351.26 228.36,358.91 Q 224.66,360.76 227.50,360.27 Q 227.91,360.20 228.35,360.03 Q 241.45,355.02 254.55,350.04 Q 256.65,349.24 257.00,351.21 Q 253.03,353.94 245.25,357.25 Q 232.61,362.62 219.77,367.51 A 0.58,0.55 64.1 0 1 219.08,367.25 Q 217.60,364.61 214.90,364.92 Q 213.03,365.13 212.26,366.56 Q 211.51,367.95 211.83,370.01 A 1.66,1.66 -18.2 0 1 210.96,371.73 Q 203.23,375.74 197.00,380.71 L 193.00,380.71 Q 190.07,377.05 186.35,375.21 Q 184.21,374.14 184.81,371.82 Q 185.44,369.40 184.12,367.90 Q 182.84,366.44 180.89,366.60 Q 178.69,366.78 177.66,369.48 A 0.94,0.93 22.4 0 1 176.40,370.00 Q 166.25,365.44 155.40,361.42 Q 144.05,357.21 133.53,351.25 Q 130.46,349.50 131.75,346.21 Q 134.30,346.68 137.44,348.31 Q 145.21,352.36 155.00,355.25 Q 155.81,355.49 155.87,354.94 A 0.97,0.66 23.7 0 0 155.39,354.17 Q 146.44,348.41 136.94,343.63 Q 135.81,343.06 134.38,341.95 Q 133.15,341.00 131.79,340.25 Q 129.95,333.23 135.10,330.26 Q 136.30,329.58 141.42,327.80 Q 144.65,326.68 147.98,325.93 Q 149.46,325.60 150.17,326.51 A 0.37,0.35 -26.4 0 1 149.96,327.07 Q 144.94,328.54 141.81,330.56 Q 139.69,331.94 139.82,334.17 Q 139.91,335.74 141.57,337.33 Q 144.43,340.07 147.82,342.18 Q 153.80,345.90 160.09,349.05 Q 171.69,354.88 172.61,355.41 Q 180.55,359.96 185.81,364.44 Q 191.41,369.20 194.94,374.84 A 0.98,0.98 -42.9 0 0 196.57,374.90 Q 199.28,371.16 202.33,367.96 Q 205.05,365.12 209.16,362.11 Q 221.28,353.26 234.76,346.59 Q 241.58,343.21 248.21,339.47 Q 250.61,338.12 251.75,336.18 Q 253.32,333.50 250.70,331.82 Q 246.50,329.13 241.50,328.79 Q 240.97,328.55 240.96,328.00 Q 242.90,325.12 246.28,326.16 Q 252.19,328.00 257.71,330.77 Q 260.35,332.10 261.00,335.00 Q 261.52,337.32 259.96,342.50 Z"/>
<path fill="#253025" d="M 240.96,328.00 Q 240.97,328.55 241.50,328.79 Q 240.90,329.39 241.84,329.59 Q 245.29,330.33 247.88,332.10 Q 250.06,333.59 248.01,334.99 L 240.27,340.27 A 1.21,1.00 56.1 0 1 238.75,339.82 L 234.82,333.79 A 0.96,0.92 55.1 0 1 235.02,332.51 L 240.96,328.00 Z"/>
<path fill="#253025" d="M 144.63,335.38 Q 142.36,333.87 144.51,331.94 Q 147.37,329.36 152.00,328.80 A 1.37,1.09 -24.4 0 1 152.92,329.03 L 157.88,332.91 A 0.51,0.48 -50.1 0 1 157.92,333.62 Q 155.33,336.61 153.75,340.24 A 0.83,0.77 -62.0 0 1 152.59,340.64 L 144.63,335.38 Z"/>
<path fill="#eadad5" d="M 166.04,338.75 Q 165.51,339.59 164.54,339.75 Q 164.07,338.80 163.28,338.91 A 0.55,0.48 79.7 0 0 162.90,339.55 Q 164.45,347.63 171.79,351.48 Q 171.98,351.58 172.01,351.71 Q 172.04,351.83 171.93,351.92 A 0.37,0.24 35.5 0 1 171.58,351.90 L 158.14,344.86 A 0.68,0.65 22.4 0 1 157.80,344.09 Q 159.04,339.97 162.20,336.90 A 0.79,0.79 -55.6 0 1 163.04,336.74 Q 164.73,337.43 166.04,338.75 Z"/>
<path fill="#eadad5" d="M 228.71,339.50 Q 227.60,339.64 226.96,338.75 Q 228.86,335.82 231.19,337.56 Q 233.18,339.05 234.53,342.96 A 0.60,0.57 -23.8 0 1 234.24,343.65 L 226.85,347.68 Q 225.35,348.50 226.43,347.20 Q 229.00,344.10 229.77,340.15 Q 230.27,337.63 228.71,339.50 Z"/>
<path fill="#a39996" d="M 166.04,338.75 L 170.38,341.96 Q 170.94,342.37 170.25,342.59 Q 165.60,344.06 164.54,339.75 Q 165.51,339.59 166.04,338.75 Z"/>
<path fill="#a39996" d="M 226.96,338.75 Q 227.60,339.64 228.71,339.50 Q 227.13,343.95 222.73,342.65 A 0.34,0.33 -61.9 0 1 222.57,342.11 Q 224.41,339.98 226.96,338.75 Z"/>
<path fill="#2a362a" d="M 131.79,340.25 Q 133.15,341.00 134.38,341.95 Q 135.81,343.06 136.94,343.63 Q 146.44,348.41 155.39,354.17 A 0.97,0.66 23.7 0 1 155.87,354.94 Q 155.81,355.49 155.00,355.25 Q 145.21,352.36 137.44,348.31 Q 134.30,346.68 131.75,346.21 L 131.79,340.25 Z"/>
<path fill="#2a362a" d="M 259.96,342.50 Q 260.03,344.37 260.07,346.25 Q 260.14,349.75 257.00,351.21 Q 256.65,349.24 254.55,350.04 Q 241.45,355.02 228.35,360.03 Q 227.91,360.20 227.50,360.27 Q 224.66,360.76 228.36,358.91 Q 243.61,351.26 258.75,343.38 Q 258.81,343.35 259.28,343.20 Q 259.74,343.05 259.96,342.50 Z"/>
<path fill="#feb286" d="M 170.90,347.90 Q 170.19,347.36 171.08,347.27 L 175.32,346.83 A 3.36,3.30 -33.2 0 1 177.32,347.23 Q 183.63,350.75 190.10,351.70 Q 196.75,352.68 203.41,351.75 Q 210.33,350.78 216.39,346.84 A 1.35,1.03 -49.7 0 1 217.31,346.64 L 221.78,347.61 Q 222.29,347.72 221.85,348.06 Q 216.34,352.22 212.31,354.56 Q 202.18,360.46 194.85,369.80 A 0.33,0.33 -39.8 0 1 194.29,369.75 Q 190.24,362.08 183.35,357.13 Q 177.33,352.81 170.90,347.90 Z"/>
<path fill="#2a362a" d="M 179.00,374.71 Q 178.16,374.96 177.30,375.14 Q 176.47,375.32 175.60,375.06 Q 160.70,370.53 145.77,366.10 Q 137.15,363.54 131.81,359.69 Q 127.60,356.65 126.25,350.46 Q 126.58,350.20 126.96,350.21 A 1.25,0.68 61.3 0 1 127.74,350.71 Q 130.17,353.73 134.00,355.75 Q 140.32,359.09 144.84,360.88 Q 161.96,367.69 179.00,374.71 Z"/>
<path fill="#354435" d="M 285.04,356.50 Q 252.42,375.50 214.79,379.50 Q 214.92,376.87 216.04,374.50 Q 220.44,373.98 228.56,371.31 Q 247.39,365.13 252.94,362.94 Q 258.66,360.67 261.15,356.17 Q 261.20,356.08 262.01,354.94 Q 262.75,353.89 262.25,352.54 L 264.21,350.67 A 1.03,0.95 -61.1 0 1 265.06,350.39 Q 270.58,351.23 276.02,352.47 Q 276.09,352.48 278.50,352.91 Q 282.36,353.60 285.04,356.50 Z"/>
<path fill="#354435" d="M 126.25,350.46 Q 127.60,356.65 131.81,359.69 Q 137.15,363.54 145.77,366.10 Q 160.70,370.53 175.60,375.06 Q 176.47,375.32 177.30,375.14 Q 178.16,374.96 179.00,374.71 Q 181.59,376.38 181.75,379.71 Q 179.92,379.83 175.25,379.25 Q 138.44,374.70 107.50,356.96 Q 107.94,355.40 109.53,354.75 Q 117.59,351.44 126.25,350.46 Z"/>
<path fill="#2a362a" d="M 262.25,352.54 Q 262.75,353.89 262.01,354.94 Q 261.20,356.08 261.15,356.17 Q 258.66,360.67 252.94,362.94 Q 247.39,365.13 228.56,371.31 Q 220.44,373.98 216.04,374.50 Q 216.19,372.76 218.06,372.06 Q 234.04,366.17 249.66,359.38 Q 256.26,356.52 262.25,352.54 Z"/>
<path fill="#354435" d="M 213.25,379.71 L 212.25,379.71 Q 212.38,374.00 214.61,368.77 Q 214.91,368.07 215.23,368.54 Q 215.44,368.83 215.24,369.50 Q 213.80,374.52 213.25,379.71 Z"/>
<path fill="#a39996" d="M 197.68,370.61 L 196.20,373.50 A 0.63,0.53 -63.6 0 1 195.45,373.83 Q 195.06,373.65 195.48,373.15 Q 195.71,372.89 195.82,372.66 Q 196.61,371.04 197.91,369.81 Q 198.62,369.14 198.34,369.94 Q 198.29,370.08 198.11,370.18 A 1.32,0.78 -14.3 0 0 197.68,370.61 Z"/>
<rect fill="#393d3d" x="-0.45" y="-4.19" transform="translate(182.68,374.64) rotate(-15.6)" width="0.90" height="8.38" rx="0.42"/>
<path fill="#354435" d="M 210.25,379.71 L 200.50,380.46 Q 200.05,380.01 200.69,379.69 Q 205.15,377.45 209.77,375.49 Q 210.90,375.01 210.71,376.37 L 210.25,379.71 Z"/>
<path fill="#2a362a" d="M 190.50,380.21 L 187.25,380.21 Q 185.61,380.13 186.22,378.64 A 0.63,0.61 16.6 0 1 186.93,378.27 Q 188.99,378.70 190.50,380.21 Z"/>
</svg>
