<?xml version="1.0" standalone="no"?><svg xmlns:xlink="http://www.w3.org/1999/xlink" xmlns="http://www.w3.org/2000/svg" viewBox="0 0 1000 642.8567435672401" preserveAspectRatio="xMaxYMax slice"><g transform="scale(1.3975146599287827)"><rect x="0" y="0" width="766.6666666666667" height="460" fill="#ffffff"/><circle cx="25.55" cy="25.55" r="5.11" fill="#fafafb"/><circle cx="76.67" cy="25.55" r="5.11" fill="#f7d4ef"/><circle cx="127.78" cy="25.55" r="5.11" fill="#606060"/><circle cx="178.89000000000001" cy="25.55" r="5.11" fill="#f8d8f0"/><circle cx="230" cy="25.55" r="5.11" fill="#ea91d6"/><circle cx="281.11" cy="25.55" r="5.11" fill="#0e0e0e"/><circle cx="332.22" cy="25.55" r="5.11" fill="#f4f5f7"/><circle cx="383.33000000000004" cy="25.55" r="5.11" fill="#b889bd"/><circle cx="434.44" cy="25.55" r="5.11" fill="#ceaed1"/><circle cx="485.55" cy="25.55" r="5.11" fill="#944d9b"/><circle cx="536.67" cy="25.55" r="5.11" fill="#a86ead"/><circle cx="587.78" cy="25.55" r="5.11" fill="#f6f7f8"/><circle cx="638.89" cy="25.55" r="5.11" fill="#b98abd"/><circle cx="690" cy="25.55" r="5.11" fill="#e1e1e1"/><circle cx="741.11" cy="25.55" r="5.11" fill="#c198c5"/><circle cx="25.55" cy="76.67" r="5.11" fill="#efefef"/><circle cx="76.67" cy="76.67" r="5.11" fill="#8c8c8c"/><circle cx="127.78" cy="76.67" r="5.11" fill="#ceaed1"/><circle cx="178.89000000000001" cy="76.67" r="5.11" fill="#dfc9e1"/><circle cx="230" cy="76.67" r="5.11" fill="#f6f6f6"/><circle cx="281.11" cy="76.67" r="5.11" fill="#b1b1b1"/><circle cx="332.22" cy="76.67" r="5.11" fill="#822e8a"/><circle cx="383.33000000000004" cy="76.67" r="5.11" fill="#a5a5a5"/><circle cx="434.44" cy="76.67" r="5.11" fill="#f7f2f8"/><circle cx="485.55" cy="76.67" r="5.11" fill="#f6f6f6"/><circle cx="536.67" cy="76.67" r="5.11" fill="#f3c0e7"/><circle cx="587.78" cy="76.67" r="5.11" fill="#e98cd4"/><circle cx="638.89" cy="76.67" r="5.11" fill="#f2b8e4"/><circle cx="690" cy="76.67" r="5.11" fill="#9f5ea5"/><circle cx="741.11" cy="76.67" r="5.11" fill="#e9eaee"/><circle cx="25.55" cy="127.78" r="5.11" fill="#f8dbf2"/><circle cx="76.67" cy="127.78" r="5.11" fill="#151515"/><circle cx="127.78" cy="127.78" r="5.11" fill="#f2bbe6"/><circle cx="178.89000000000001" cy="127.78" r="5.11" fill="#656565"/><circle cx="230" cy="127.78" r="5.11" fill="#e7e7e7"/><circle cx="281.11" cy="127.78" r="5.11" fill="#f1b4e3"/><circle cx="332.22" cy="127.78" r="5.11" fill="#c39ac6"/><circle cx="383.33000000000004" cy="127.78" r="5.11" fill="#909090"/><circle cx="434.44" cy="127.78" r="5.11" fill="#f7d4ef"/><circle cx="485.55" cy="127.78" r="5.11" fill="#fefbfe"/><circle cx="536.67" cy="127.78" r="5.11" fill="#5b5b5b"/><circle cx="587.78" cy="127.78" r="5.11" fill="#eff0f3"/><circle cx="638.89" cy="127.78" r="5.11" fill="#5d5d5d"/><circle cx="690" cy="127.78" r="5.11" fill="#eadceb"/><circle cx="741.11" cy="127.78" r="5.11" fill="#b889bd"/><circle cx="25.55" cy="178.89000000000001" r="5.11" fill="#fefefe"/><circle cx="76.67" cy="178.89000000000001" r="5.11" fill="#fef7fc"/><circle cx="127.78" cy="178.89000000000001" r="5.11" fill="#eaecef"/><circle cx="178.89000000000001" cy="178.89000000000001" r="5.11" fill="#fef9fd"/><circle cx="230" cy="178.89000000000001" r="5.11" fill="#848484"/><circle cx="281.11" cy="178.89000000000001" r="5.11" fill="#b98bbe"/><circle cx="332.22" cy="178.89000000000001" r="5.11" fill="#fdfefe"/><circle cx="383.33000000000004" cy="178.89000000000001" r="5.11" fill="#f4c2e8"/><circle cx="434.44" cy="178.89000000000001" r="5.11" fill="#777777"/><circle cx="485.55" cy="178.89000000000001" r="5.11" fill="#964f9c"/><circle cx="536.67" cy="178.89000000000001" r="5.11" fill="#353535"/><circle cx="587.78" cy="178.89000000000001" r="5.11" fill="#dbc3dd"/><circle cx="638.89" cy="178.89000000000001" r="5.11" fill="#d4d4d4"/><circle cx="690" cy="178.89000000000001" r="5.11" fill="#b17db6"/><circle cx="741.11" cy="178.89000000000001" r="5.11" fill="#e67cce"/><circle cx="25.55" cy="230" r="5.11" fill="#656565"/><circle cx="76.67" cy="230" r="5.11" fill="#f9f9fa"/><circle cx="127.78" cy="230" r="5.11" fill="#f5f6f8"/><circle cx="178.89000000000001" cy="230" r="5.11" fill="#f2f3f5"/><circle cx="230" cy="230" r="5.11" fill="#954e9c"/><circle cx="281.11" cy="230" r="5.11" fill="#f3bee7"/><circle cx="332.22" cy="230" r="5.11" fill="#2b2b2b"/><circle cx="383.33000000000004" cy="230" r="5.11" fill="#d3b6d6"/><circle cx="434.44" cy="230" r="5.11" fill="#f7f8f9"/><circle cx="485.55" cy="230" r="5.11" fill="#e98ad3"/><circle cx="536.67" cy="230" r="5.11" fill="#eea4dd"/><circle cx="587.78" cy="230" r="5.11" fill="#c096c4"/><circle cx="638.89" cy="230" r="5.11" fill="#6c6c6c"/><circle cx="690" cy="230" r="5.11" fill="#ec9bd9"/><circle cx="741.11" cy="230" r="5.11" fill="#e9ebee"/><circle cx="25.55" cy="281.11" r="5.11" fill="#af7ab4"/><circle cx="76.67" cy="281.11" r="5.11" fill="#ed9eda"/><circle cx="127.78" cy="281.11" r="5.11" fill="#832f8a"/><circle cx="178.89000000000001" cy="281.11" r="5.11" fill="#fcfcfc"/><circle cx="230" cy="281.11" r="5.11" fill="#dedede"/><circle cx="281.11" cy="281.11" r="5.11" fill="#f6f7f8"/><circle cx="332.22" cy="281.11" r="5.11" fill="#b8b8b8"/><circle cx="383.33000000000004" cy="281.11" r="5.11" fill="#f2b9e5"/><circle cx="434.44" cy="281.11" r="5.11" fill="#ed9eda"/><circle cx="485.55" cy="281.11" r="5.11" fill="#b4b4b4"/><circle cx="536.67" cy="281.11" r="5.11" fill="#f5c8ea"/><circle cx="587.78" cy="281.11" r="5.11" fill="#f5c9eb"/><circle cx="638.89" cy="281.11" r="5.11" fill="#7b7b7b"/><circle cx="690" cy="281.11" r="5.11" fill="#515151"/><circle cx="741.11" cy="281.11" r="5.11" fill="#eff0f2"/><circle cx="25.55" cy="332.22" r="5.11" fill="#d6d6d6"/><circle cx="76.67" cy="332.22" r="5.11" fill="#ab72b0"/><circle cx="127.78" cy="332.22" r="5.11" fill="#d4b7d7"/><circle cx="178.89000000000001" cy="332.22" r="5.11" fill="#f6d0ed"/><circle cx="230" cy="332.22" r="5.11" fill="#eceef1"/><circle cx="281.11" cy="332.22" r="5.11" fill="#f8f9fa"/><circle cx="332.22" cy="332.22" r="5.11" fill="#f4f5f7"/><circle cx="383.33000000000004" cy="332.22" r="5.11" fill="#b481b8"/><circle cx="434.44" cy="332.22" r="5.11" fill="#f7f8f9"/><circle cx="485.55" cy="332.22" r="5.11" fill="#fdfdfe"/><circle cx="536.67" cy="332.22" r="5.11" fill="#ba8bbe"/><circle cx="587.78" cy="332.22" r="5.11" fill="#954e9c"/><circle cx="638.89" cy="332.22" r="5.11" fill="#d5b9d8"/><circle cx="690" cy="332.22" r="5.11" fill="#904697"/><circle cx="741.11" cy="332.22" r="5.11" fill="#717171"/><circle cx="25.55" cy="383.33000000000004" r="5.11" fill="#7e7e7e"/><circle cx="76.67" cy="383.33000000000004" r="5.11" fill="#fdf3fb"/><circle cx="127.78" cy="383.33000000000004" r="5.11" fill="#e4d2e6"/><circle cx="178.89000000000001" cy="383.33000000000004" r="5.11" fill="#717171"/><circle cx="230" cy="383.33000000000004" r="5.11" fill="#fdfdfe"/><circle cx="281.11" cy="383.33000000000004" r="5.11" fill="#f3f4f6"/><circle cx="332.22" cy="383.33000000000004" r="5.11" fill="#f6cfed"/><circle cx="383.33000000000004" cy="383.33000000000004" r="5.11" fill="#4f4f4f"/><circle cx="434.44" cy="383.33000000000004" r="5.11" fill="#fae5f5"/><circle cx="485.55" cy="383.33000000000004" r="5.11" fill="#a0a0a0"/><circle cx="536.67" cy="383.33000000000004" r="5.11" fill="#edeef1"/><circle cx="587.78" cy="383.33000000000004" r="5.11" fill="#822f8a"/><circle cx="638.89" cy="383.33000000000004" r="5.11" fill="#f2f3f5"/><circle cx="690" cy="383.33000000000004" r="5.11" fill="#f5c9eb"/><circle cx="741.11" cy="383.33000000000004" r="5.11" fill="#f5f5f7"/><circle cx="25.55" cy="434.44" r="5.11" fill="#f8f8f9"/><circle cx="76.67" cy="434.44" r="5.11" fill="#f3bee7"/><circle cx="127.78" cy="434.44" r="5.11" fill="#bcbcbc"/><circle cx="178.89000000000001" cy="434.44" r="5.11" fill="#ad76b2"/><circle cx="230" cy="434.44" r="5.11" fill="#666666"/><circle cx="281.11" cy="434.44" r="5.11" fill="#e9ebee"/><circle cx="332.22" cy="434.44" r="5.11" fill="#9c59a2"/><circle cx="383.33000000000004" cy="434.44" r="5.11" fill="#d2b3d4"/><circle cx="434.44" cy="434.44" r="5.11" fill="#cfcfcf"/><circle cx="485.55" cy="434.44" r="5.11" fill="#eadceb"/><circle cx="536.67" cy="434.44" r="5.11" fill="#9a57a1"/><circle cx="587.78" cy="434.44" r="5.11" fill="#f3c0e7"/><circle cx="638.89" cy="434.44" r="5.11" fill="#fffeff"/><circle cx="690" cy="434.44" r="5.11" fill="#ed9fdb"/><circle cx="741.11" cy="434.44" r="5.11" fill="#bc90c0"/></g></svg>