<?xml version="1.0" encoding="UTF-8" standalone="no"?>
<!DOCTYPE svg PUBLIC "-//W3C//DTD SVG 1.1//EN" "http://www.w3.org/Graphics/SVG/1.1/DTD/svg11.dtd">
<svg xmlns="http://www.w3.org/2000/svg" version="1.1" viewBox="0 0 398 398">
<path fill="#000000" d="M 285.04,356.50 Q 284.41,355.09 282.93,354.58 Q 274.87,351.77 266.41,350.49 Q 265.03,350.28 264.09,350.85 Q 263.04,351.50 262.25,352.54 Q 256.25,356.51 249.66,359.38 Q 234.05,366.17 218.06,372.06 Q 216.12,372.78 216.04,374.50 Q 214.80,376.83 215.00,379.46 L 210.00,379.71 L 210.72,376.07 Q 210.95,374.90 209.89,375.39 Q 205.95,377.25 201.71,378.91 Q 200.48,379.39 201.00,380.46 L 196.75,380.71 Q 203.21,375.87 211.01,371.69 A 1.59,1.59 72.1 0 0 211.83,370.05 Q 211.46,367.56 212.57,366.13 Q 213.71,364.66 215.82,364.89 Q 217.96,365.11 219.09,367.24 A 0.58,0.55 65.2 0 0 219.78,367.51 Q 232.07,362.81 248.25,356.00 Q 253.20,353.91 257.00,351.21 Q 261.27,348.58 259.96,343.25 Q 260.18,340.65 260.56,339.56 Q 262.59,333.85 258.19,331.06 Q 253.45,328.06 245.30,326.10 Q 243.88,325.76 242.89,326.29 Q 241.76,326.91 240.96,328.00 L 234.95,332.75 A 0.83,0.76 54.6 0 0 234.82,333.82 L 238.74,339.80 A 1.22,1.00 56.4 0 0 240.26,340.27 L 248.01,334.99 Q 250.06,333.59 247.87,332.10 Q 245.39,330.40 242.08,329.74 Q 241.78,329.68 241.58,329.53 Q 240.70,328.88 242.25,328.96 Q 246.97,329.25 250.81,331.94 Q 253.73,333.98 251.69,336.44 Q 249.90,338.59 247.40,339.86 Q 235.62,345.88 224.08,352.34 Q 211.73,359.26 204.94,365.44 Q 200.33,369.63 196.52,374.91 A 0.95,0.94 -43.4 0 1 194.95,374.87 Q 189.72,366.57 181.01,360.71 Q 172.85,355.21 164.06,350.87 Q 154.08,345.94 152.75,345.16 Q 147.26,341.94 142.23,338.01 Q 138.62,335.19 140.32,332.35 Q 141.30,330.72 144.19,329.29 Q 146.93,327.92 149.95,327.18 Q 151.15,326.89 150.06,326.30 Q 148.91,325.68 147.32,326.08 Q 144.23,326.86 141.22,327.90 Q 136.33,329.59 135.29,330.15 Q 129.83,333.11 131.79,340.25 L 131.75,346.21 Q 130.47,349.49 133.54,351.23 Q 144.05,357.20 155.39,361.42 Q 166.24,365.46 176.40,370.01 A 0.94,0.94 22.2 0 0 177.66,369.48 Q 178.69,366.78 180.89,366.60 Q 182.84,366.44 184.12,367.91 Q 185.44,369.41 184.81,371.83 Q 184.22,374.11 186.31,375.19 Q 190.08,377.15 193.25,380.71 Q 191.93,380.84 190.75,380.21 Q 189.76,379.07 188.33,378.64 Q 187.84,378.50 187.23,378.19 Q 185.84,377.51 186.20,379.45 A 0.94,0.45 13.9 0 0 186.81,379.95 L 187.50,380.21 L 181.50,379.71 Q 181.62,376.99 179.75,375.21 Q 178.53,374.40 177.17,373.85 Q 165.83,369.26 154.39,364.94 Q 142.87,360.59 132.13,354.58 Q 129.68,353.21 128.09,350.92 Q 127.34,349.83 126.25,350.46 Q 117.54,351.50 110.06,354.56 Q 108.51,355.20 107.00,356.71 L 103.57,354.88 A 1.26,1.06 -47.7 0 1 103.64,352.92 Q 109.82,348.19 117.13,347.19 Q 120.40,346.75 120.84,346.66 Q 123.06,346.26 124.55,345.96 Q 128.15,345.25 127.00,341.76 Q 124.45,333.98 128.66,329.07 Q 130.73,326.65 136.06,324.57 Q 139.92,323.06 144.33,321.66 A 0.46,0.46 61.1 0 0 144.54,320.93 Q 141.48,317.28 138.41,313.84 Q 129.90,304.30 127.32,291.74 Q 126.35,287.03 125.24,281.31 A 2.22,2.21 -2.3 0 0 123.31,279.53 Q 120.56,279.24 118.18,278.31 Q 115.95,277.45 114.05,275.24 Q 111.31,272.07 107.81,267.19 Q 102.26,259.43 99.99,250.88 Q 98.50,245.28 97.84,238.95 Q 97.18,232.56 98.25,226.75 Q 98.81,223.75 100.64,220.81 Q 102.51,217.83 105.01,216.33 Q 109.61,213.56 114.73,215.87 Q 116.29,216.57 116.08,214.87 Q 115.06,206.77 114.35,199.26 Q 112.30,177.54 118.61,156.72 A 1.71,1.52 47.7 0 0 118.60,155.77 Q 116.38,148.13 120.71,141.67 Q 120.99,141.25 121.05,140.76 Q 121.71,134.77 127.69,130.51 A 1.23,1.19 83.2 0 0 128.11,129.96 Q 129.80,125.60 133.77,122.73 A 1.86,1.73 -8.5 0 0 134.37,121.98 Q 136.58,116.70 141.52,113.84 Q 142.78,113.10 143.68,111.95 Q 146.33,108.52 149.59,107.46 Q 151.08,106.98 152.20,105.90 Q 157.08,101.23 162.55,101.91 A 2.93,2.90 30.1 0 0 164.66,101.36 Q 172.25,95.71 180.00,96.91 A 1.71,1.68 -51.7 0 0 180.95,96.79 Q 184.33,95.28 187.79,96.57 A 1.37,1.36 45.3 0 0 188.71,96.58 Q 193.22,94.99 197.60,96.78 A 1.34,1.33 47.3 0 0 198.47,96.82 Q 203.61,95.27 207.96,96.54 A 1.24,1.23 39.1 0 0 208.88,96.45 Q 213.53,94.04 218.30,96.43 Q 218.54,96.55 218.80,96.59 Q 225.16,97.41 227.94,99.62 A 1.87,1.77 67.1 0 0 228.81,100.00 Q 233.56,100.63 236.41,104.24 A 1.60,1.60 76.8 0 0 237.34,104.82 Q 242.76,105.92 244.92,109.38 A 3.13,3.12 79.6 0 0 246.98,110.80 Q 251.43,111.66 253.89,114.55 Q 254.32,115.05 254.93,115.29 Q 263.28,118.51 264.95,125.20 A 1.02,1.01 -85.1 0 0 265.52,125.88 Q 268.46,127.18 270.08,129.82 Q 270.41,130.37 271.16,133.48 Q 271.50,134.85 272.31,136.01 Q 273.79,138.12 273.85,138.26 Q 275.06,140.89 274.59,144.41 A 2.82,2.81 -54.3 0 0 274.85,146.01 Q 276.78,150.01 274.42,153.65 A 2.60,2.60 -37.2 0 0 274.12,155.83 Q 280.52,176.46 278.43,197.52 Q 277.57,206.18 275.76,216.09 Q 275.59,216.97 276.41,216.60 Q 285.64,212.47 291.44,219.56 Q 294.31,223.08 294.80,229.27 Q 295.74,241.29 292.40,252.84 Q 290.51,259.35 286.59,264.87 Q 283.12,269.76 279.53,274.57 Q 276.95,278.01 269.26,279.82 A 2.26,2.25 0.8 0 0 267.60,281.42 Q 266.72,284.67 265.98,289.25 Q 263.64,303.68 253.97,314.32 Q 252.23,316.24 251.05,317.66 Q 249.67,319.33 248.14,321.00 A 0.42,0.42 -59.8 0 0 248.32,321.69 Q 254.31,323.66 259.10,325.99 Q 268.23,330.45 265.11,342.57 Q 264.49,344.98 266.91,345.58 Q 269.98,346.35 274.77,346.84 Q 283.33,347.73 289.63,353.41 A 0.46,0.46 -90.0 0 1 289.63,354.09 Q 287.64,355.82 285.04,356.50 ZM 122.79,150.75 Q 122.53,153.42 123.91,155.65 A 1.13,1.11 37.2 0 1 124.04,156.54 L 122.29,162.50 L 120.04,173.00 L 119.04,186.75 Q 119.20,200.57 121.34,214.23 Q 121.36,214.38 121.47,216.27 Q 121.62,218.88 124.48,217.87 A 1.75,1.30 -76.0 0 0 125.22,217.26 Q 127.69,213.64 131.56,212.06 Q 134.48,210.87 139.25,209.46 L 145.25,208.71 Q 160.81,208.44 175.73,212.71 Q 175.79,212.73 178.11,213.50 Q 180.66,214.36 184.25,214.75 Q 195.87,216.02 206.41,215.02 Q 210.01,214.67 215.76,212.94 Q 230.86,208.37 246.75,208.71 L 252.50,208.21 Q 253.77,209.40 255.48,209.81 Q 262.97,211.61 267.99,217.32 A 1.24,0.70 58.2 0 0 268.81,217.77 L 269.83,217.71 A 0.79,0.59 -84.1 0 0 270.41,217.08 Q 273.22,202.80 273.71,188.25 L 273.21,178.25 Q 272.92,170.69 270.75,163.46 L 268.92,154.70 A 2.87,2.78 63.3 0 1 269.75,152.04 Q 272.32,149.69 269.61,146.85 A 1.44,1.12 26.9 0 1 269.21,146.00 Q 269.13,144.48 269.71,143.00 Q 270.29,140.53 267.56,138.36 A 2.57,2.56 -66.6 0 1 266.62,135.97 Q 267.41,130.61 261.96,129.82 Q 260.02,129.53 260.00,127.57 Q 259.95,121.57 253.46,120.30 A 3.18,3.17 -8.7 0 1 251.31,118.73 Q 249.87,116.12 246.72,115.61 Q 246.64,115.60 244.30,115.69 Q 242.50,115.76 241.81,114.22 Q 240.64,111.64 240.61,111.60 Q 238.66,109.36 234.91,109.53 A 1.88,1.86 -11.6 0 1 233.09,108.34 Q 231.52,104.31 226.99,105.15 A 1.12,0.70 -20.1 0 1 226.09,104.96 L 224.21,102.99 A 1.49,0.37 51.2 0 0 223.46,102.42 Q 221.06,101.76 218.56,102.11 A 1.06,1.02 62.0 0 1 217.70,101.83 Q 215.15,99.42 211.79,100.41 Q 211.40,100.52 210.97,100.94 Q 210.27,101.61 209.36,101.86 Q 208.59,102.07 207.24,101.49 Q 203.63,99.95 199.27,101.81 A 2.90,2.89 51.3 0 1 196.44,101.49 Q 194.97,100.42 192.88,100.52 Q 192.39,100.54 189.84,101.57 Q 187.75,102.42 185.66,101.04 A 1.28,0.66 42.2 0 0 184.75,100.80 L 181.69,101.76 A 1.58,0.42 -23.0 0 1 180.77,101.89 Q 172.57,100.04 166.89,105.99 Q 165.55,107.39 163.65,106.96 Q 158.67,105.83 155.44,109.44 Q 153.82,111.24 152.12,111.89 Q 149.32,112.96 149.09,113.14 Q 147.47,114.39 146.52,116.29 Q 145.94,117.45 144.83,117.83 Q 143.11,118.40 142.85,118.59 Q 139.93,120.72 138.91,124.59 A 1.92,1.92 -6.0 0 1 137.90,125.83 Q 133.03,128.24 132.25,133.52 A 1.41,1.41 87.2 0 1 131.20,134.68 Q 127.78,135.56 126.48,138.58 Q 126.13,139.39 126.14,141.11 Q 126.15,142.97 125.44,143.69 Q 122.53,146.62 122.79,150.75 ZM 230.75,212.04 Q 224.42,213.04 218.24,214.70 Q 212.57,216.22 209.19,220.69 Q 206.69,223.98 207.85,228.03 Q 208.00,228.53 208.28,228.08 Q 209.16,226.69 209.31,225.56 Q 210.03,220.05 214.31,218.06 Q 221.30,214.82 230.08,214.16 Q 240.27,213.40 240.39,213.39 Q 246.54,212.81 250.75,213.25 Q 256.57,213.85 260.44,216.06 Q 265.31,218.85 265.95,224.92 Q 266.02,225.57 266.23,226.04 Q 267.54,228.88 267.25,224.25 Q 266.92,218.87 263.66,216.34 Q 258.20,212.10 251.29,211.50 Q 240.99,210.31 230.75,212.04 ZM 182.23,218.75 Q 180.43,216.78 178.25,216.00 Q 166.64,211.82 152.51,211.08 Q 143.84,210.63 135.00,213.25 Q 124.79,216.28 125.94,226.75 Q 126.00,227.30 126.32,226.88 Q 127.07,225.86 127.25,224.25 Q 127.62,221.01 129.64,218.59 Q 131.30,216.59 134.51,215.30 Q 140.12,213.04 146.75,213.25 Q 160.56,213.69 171.65,215.78 Q 177.10,216.81 180.19,219.06 Q 183.72,221.64 184.44,226.76 Q 184.51,227.30 184.73,227.68 Q 185.93,229.86 185.75,226.50 Q 185.61,223.94 184.77,222.19 Q 184.10,220.79 182.23,218.75 ZM 125.71,229.25 Q 124.52,230.06 123.50,229.21 Q 123.16,227.24 123.10,225.25 Q 123.05,223.13 122.36,224.72 Q 122.25,224.99 122.27,225.30 Q 122.42,227.44 123.04,229.50 L 123.21,237.00 Q 122.55,245.93 123.06,248.19 Q 126.36,262.69 129.40,277.26 Q 132.96,294.30 133.26,295.19 Q 136.16,303.73 142.69,311.31 Q 152.30,322.46 161.50,328.79 Q 162.33,330.33 164.19,331.56 Q 168.82,334.62 173.83,338.66 Q 179.72,343.41 182.93,344.78 Q 190.21,347.87 199.25,347.50 Q 209.19,347.09 216.76,340.76 Q 225.66,333.32 230.56,330.06 Q 231.85,329.21 231.96,328.50 Q 239.03,323.29 245.06,316.98 Q 251.88,309.85 254.92,305.08 Q 259.13,298.46 260.68,290.49 Q 264.61,270.29 269.20,250.24 Q 270.52,244.52 269.75,238.71 L 269.70,229.81 A 0.46,0.40 -2.6 0 0 269.20,229.42 L 268.04,229.50 Q 264.37,228.14 264.25,224.00 Q 264.13,220.08 260.60,217.96 Q 254.82,214.49 248.00,214.57 Q 235.39,214.71 222.93,216.66 Q 217.71,217.48 213.33,220.39 Q 213.03,220.59 212.92,220.83 Q 212.63,221.52 213.98,220.71 Q 214.66,220.31 215.46,220.27 Q 229.00,219.70 242.00,220.25 Q 245.55,220.40 254.84,223.29 A 0.57,0.39 21.6 0 1 255.26,223.92 Q 255.12,224.15 254.75,224.25 Q 252.00,224.97 254.56,225.94 Q 256.12,226.52 258.37,226.84 A 0.33,0.32 20.1 0 1 258.61,227.34 Q 254.46,233.88 248.41,237.56 Q 242.62,241.08 235.05,241.63 Q 221.85,242.57 210.19,234.06 Q 208.79,233.04 208.79,232.00 L 214.14,223.96 A 0.34,0.32 -67.1 0 0 213.95,223.45 Q 210.99,222.90 210.51,225.14 Q 209.90,227.98 209.84,228.11 Q 209.11,229.72 208.21,231.25 L 208.00,231.29 Q 207.16,230.88 206.25,231.04 Q 203.65,230.12 201.44,227.56 Q 198.77,224.48 194.94,225.52 Q 193.66,225.87 192.01,227.65 Q 189.96,229.87 187.00,230.96 L 185.54,231.00 Q 183.77,229.54 182.93,227.49 Q 182.90,227.43 182.56,225.33 Q 182.20,223.11 178.67,223.55 Q 178.24,223.60 178.53,223.92 Q 181.48,227.09 183.75,232.17 A 1.02,1.01 -32.3 0 1 183.47,233.37 Q 172.56,242.33 159.02,241.67 Q 151.09,241.29 145.10,237.93 Q 138.55,234.25 134.50,227.42 A 0.34,0.33 -20.5 0 1 134.74,226.92 Q 136.87,226.54 138.82,225.61 Q 139.28,225.40 139.38,225.08 Q 139.55,224.52 138.68,224.32 Q 138.18,224.21 137.83,223.89 A 0.35,0.32 -32.8 0 1 137.98,223.33 Q 146.41,220.43 150.50,220.25 Q 163.88,219.68 177.74,220.27 A 2.73,2.65 -25.0 0 1 179.18,220.77 Q 181.72,222.60 179.94,220.56 Q 179.07,219.57 176.58,218.48 Q 174.98,217.78 172.83,217.31 Q 164.59,215.52 156.19,214.97 Q 147.78,214.42 145.83,214.45 Q 140.58,214.54 135.50,216.25 Q 129.12,218.39 128.56,225.31 Q 128.35,227.98 125.71,229.25 ZM 197.14,218.46 Q 202.82,218.56 208.38,217.21 Q 210.13,216.79 209.01,216.55 Q 208.78,216.50 208.50,216.53 Q 196.92,218.04 185.31,216.78 Q 184.96,216.75 184.69,216.78 Q 183.21,216.96 185.06,217.69 Q 186.73,218.35 191.24,218.36 Q 191.55,218.36 197.14,218.46 ZM 192.57,219.61 Q 189.57,219.44 186.57,219.33 A 0.36,0.36 82.6 0 0 186.21,219.80 L 187.80,225.00 Q 188.30,226.64 188.96,225.06 Q 190.63,221.03 194.38,220.83 Q 196.45,220.73 198.62,220.80 Q 200.96,220.88 202.75,222.40 Q 203.17,222.76 203.77,223.96 Q 204.22,224.84 205.04,225.42 A 0.41,0.41 22.0 0 0 205.68,225.15 Q 206.24,221.74 207.60,219.82 Q 208.34,218.77 207.06,218.95 Q 199.69,220.04 192.57,219.61 ZM 121.50,265.21 L 121.21,264.00 Q 120.95,262.32 119.00,253.50 Q 117.59,247.13 117.71,237.50 L 117.96,233.50 L 117.50,225.32 A 1.22,1.02 8.7 0 0 116.65,224.35 Q 112.90,223.21 112.27,220.55 A 0.71,0.65 86.1 0 0 111.69,220.00 Q 105.54,219.40 103.81,225.06 Q 101.80,231.64 102.61,238.91 Q 103.30,245.13 105.06,251.06 Q 106.83,257.07 110.41,262.37 Q 113.62,267.11 117.20,271.58 Q 119.33,274.23 123.11,274.53 A 0.41,0.39 -4.0 0 0 123.55,274.06 L 121.50,265.21 ZM 275.29,233.25 L 275.29,237.75 Q 274.85,251.06 271.50,263.96 Q 271.07,264.49 271.25,265.21 L 269.25,274.06 A 0.42,0.40 3.6 0 0 269.69,274.54 Q 273.46,274.29 276.56,270.56 Q 291.66,252.44 290.03,230.02 Q 289.91,228.36 289.57,226.73 Q 288.39,220.99 282.69,219.74 A 1.51,1.50 -77.9 0 0 280.89,220.91 Q 280.50,222.89 278.72,223.68 Q 278.68,223.70 276.72,224.08 Q 274.78,224.47 274.88,226.58 Q 274.96,228.28 274.95,228.43 Q 274.87,230.86 275.29,233.25 ZM 115.40,221.25 A 0.18,0.18 -88.5 0 0 115.58,221.44 Q 118.66,221.45 121.75,221.52 Q 123.91,221.56 122.89,220.58 A 1.36,1.07 -18.8 0 0 121.99,220.26 Q 118.99,220.32 116.00,219.97 Q 115.46,219.90 115.40,221.25 ZM 277.05,220.29 Q 273.43,219.74 269.81,220.24 A 0.64,0.55 -5.1 0 0 269.26,220.81 Q 269.28,221.89 270.75,221.75 Q 271.74,221.65 276.85,221.51 Q 277.28,221.50 277.62,221.35 Q 279.23,220.63 277.05,220.29 ZM 189.52,226.22 Q 185.11,229.25 189.49,227.38 Q 189.92,227.20 190.23,226.79 Q 194.40,221.31 200.98,224.34 A 1.82,1.49 81.7 0 1 201.69,224.99 Q 202.91,226.92 204.91,227.99 A 0.90,0.63 37.2 0 0 205.72,228.02 Q 206.14,227.75 205.44,227.31 Q 203.89,226.35 203.09,225.19 Q 201.60,223.00 201.29,222.79 Q 199.92,221.84 198.17,221.85 Q 195.71,221.86 195.32,221.85 Q 191.44,221.74 190.10,225.46 A 1.64,1.44 86.2 0 1 189.52,226.22 ZM 167.50,238.96 Q 173.92,238.44 178.79,234.25 Q 181.52,232.74 179.46,230.00 Q 177.89,227.04 175.29,224.97 Q 173.75,223.74 172.03,224.27 Q 171.55,224.41 171.99,224.68 Q 175.31,226.66 175.00,230.00 Q 174.69,233.34 171.81,234.06 Q 169.39,234.67 167.41,233.25 Q 164.80,231.38 166.04,227.50 Q 171.40,229.66 170.99,224.81 A 0.71,0.70 4.6 0 0 170.45,224.18 Q 168.10,223.63 165.75,224.29 Q 163.97,223.84 162.25,224.29 Q 155.83,223.95 149.48,224.73 Q 146.66,225.07 145.03,226.41 Q 143.10,227.98 141.96,230.30 A 0.91,0.90 42.2 0 0 142.01,231.18 Q 146.10,237.70 153.82,239.13 Q 160.68,240.40 167.50,238.96 ZM 231.75,224.29 Q 226.02,223.93 220.32,224.51 Q 218.07,224.74 216.68,226.10 Q 214.24,228.49 212.65,232.10 A 1.14,1.14 29.3 0 0 213.05,233.51 Q 223.97,240.97 237.00,239.71 Q 244.20,239.46 248.75,234.04 Q 252.86,231.19 249.29,228.00 Q 246.43,223.41 241.00,224.54 L 235.00,224.29 Q 233.36,223.91 231.75,224.29 ZM 269.82,224.64 Q 269.41,225.53 269.64,226.24 A 0.99,0.56 56.1 0 1 269.68,226.76 Q 269.36,228.11 269.98,226.99 Q 270.66,225.75 270.31,224.67 Q 270.10,224.04 269.82,224.64 ZM 144.81,335.45 Q 148.06,338.19 152.47,340.47 A 0.98,0.98 -64.6 0 0 153.81,339.99 Q 155.26,336.74 157.93,333.62 A 0.51,0.47 -51.2 0 0 157.88,332.91 L 152.75,328.97 A 1.76,1.70 51.1 0 0 151.00,328.75 L 145.17,331.36 Q 141.75,332.89 144.81,335.45 ZM 164.54,339.75 Q 165.60,344.06 170.25,342.59 Q 170.94,342.37 170.38,341.96 L 166.04,338.75 Q 164.73,337.43 163.04,336.74 A 0.79,0.79 -55.6 0 0 162.20,336.90 Q 159.04,339.97 157.80,344.09 A 0.68,0.65 22.4 0 0 158.14,344.86 L 171.58,351.90 A 0.37,0.24 35.5 0 0 171.93,351.92 Q 172.04,351.83 172.01,351.71 Q 171.98,351.58 171.79,351.48 Q 164.46,347.62 162.90,339.55 A 0.55,0.48 79.7 0 1 163.28,338.91 Q 164.07,338.80 164.54,339.75 ZM 226.96,338.75 Q 224.41,339.98 222.57,342.11 A 0.34,0.33 -61.9 0 0 222.73,342.65 Q 227.13,343.95 228.71,339.50 Q 230.27,337.63 229.77,340.15 Q 229.00,344.10 226.43,347.20 Q 225.35,348.50 226.85,347.68 L 234.24,343.65 A 0.60,0.57 -23.8 0 0 234.53,342.96 Q 233.18,339.07 231.19,337.56 Q 228.82,335.78 226.96,338.75 ZM 170.90,347.90 Q 177.33,352.81 183.35,357.13 Q 190.24,362.08 194.29,369.75 A 0.33,0.33 -39.8 0 0 194.85,369.80 Q 202.18,360.46 212.31,354.56 Q 216.34,352.22 221.85,348.06 Q 222.29,347.72 221.78,347.61 L 217.31,346.64 A 1.35,1.03 -49.7 0 0 216.39,346.84 Q 210.33,350.78 203.41,351.75 Q 196.75,352.68 190.10,351.70 Q 183.63,350.75 177.32,347.23 A 3.36,3.30 -33.2 0 0 175.32,346.83 L 171.08,347.27 Q 170.19,347.36 170.90,347.90 ZM 214.32,369.51 Q 212.83,373.51 212.16,377.74 Q 211.99,378.79 212.70,378.78 A 0.73,0.58 -83.0 0 0 213.30,378.19 L 215.18,368.92 A 0.47,0.37 -82.5 0 0 214.85,368.36 Q 214.53,368.35 214.46,368.83 Q 214.39,369.32 214.32,369.51 ZM 198.11,370.18 Q 198.29,370.08 198.34,369.94 Q 198.62,369.14 197.91,369.81 Q 196.61,371.04 195.82,372.66 Q 195.71,372.89 195.48,373.15 Q 195.06,373.65 195.45,373.83 A 0.63,0.53 -63.6 0 0 196.20,373.50 L 197.68,370.61 A 1.32,0.78 -14.3 0 1 198.11,370.18 ZM 182.0819,370.8517 A 0.38 0.38 0.0 0 0 181.6137,370.5878 L 181.4981,370.6201 A 0.38 0.38 0.0 0 0 181.2343,371.0883 L 183.2781,378.4083 A 0.38 0.38 0.0 0 0 183.7463,378.6722 L 183.8619,378.6399 A 0.38 0.38 0.0 0 0 184.1257,378.1717 L 182.0819,370.8517 Z"/>
<path fill="#393d3d" d="M 269.71,143.00 Q 265.74,142.09 265.17,137.91 A 2.04,2.04 5.2 0 0 263.80,136.27 Q 262.53,135.84 262.15,133.37 A 2.10,2.10 1.2 0 0 260.47,131.62 Q 257.98,131.15 257.06,128.88 Q 256.14,126.62 255.95,126.42 Q 254.89,125.37 252.97,125.76 Q 250.79,126.19 249.33,123.98 L 246.99,120.45 A 1.45,1.18 -4.8 0 0 246.21,119.92 Q 244.27,119.42 242.40,119.96 Q 239.42,120.83 238.84,120.70 Q 236.80,120.26 235.94,117.56 Q 234.34,112.54 229.64,113.90 Q 227.13,114.62 226.66,114.57 Q 224.89,114.39 224.05,112.36 A 1.69,1.69 65.7 0 0 221.76,111.49 Q 219.32,112.68 217.52,110.71 Q 211.54,104.18 204.38,110.32 Q 202.30,112.10 200.18,110.37 Q 196.26,107.19 192.30,111.08 A 1.40,1.40 41.1 0 1 190.49,111.20 Q 187.32,108.81 184.13,110.14 A 2.86,2.84 -38.9 0 1 181.43,109.86 Q 174.57,105.19 169.52,110.57 A 1.73,1.44 -70.0 0 1 168.70,111.05 Q 166.64,111.46 164.59,111.04 Q 161.96,110.50 161.24,110.69 Q 159.49,111.16 158.42,113.06 Q 157.10,115.42 154.41,115.08 Q 152.22,114.80 150.48,117.13 Q 150.47,117.15 149.55,118.83 Q 148.40,120.97 145.44,121.53 Q 143.39,121.92 143.20,124.00 Q 142.98,126.45 140.37,127.51 Q 135.47,129.50 134.90,133.64 A 3.42,3.42 76.3 0 1 133.48,135.98 Q 129.24,138.99 129.04,143.25 Q 128.96,144.95 127.37,145.56 Q 124.78,146.54 124.03,149.51 Q 123.79,150.47 122.79,150.75 Q 122.53,146.62 125.44,143.69 Q 126.15,142.97 126.14,141.11 Q 126.13,139.39 126.48,138.58 Q 127.78,135.56 131.20,134.68 A 1.41,1.41 87.2 0 0 132.25,133.52 Q 133.03,128.24 137.90,125.83 A 1.92,1.92 -6.0 0 0 138.91,124.59 Q 139.93,120.72 142.85,118.59 Q 143.11,118.40 144.83,117.83 Q 145.94,117.45 146.52,116.29 Q 147.47,114.39 149.09,113.14 Q 149.32,112.96 152.12,111.89 Q 153.82,111.24 155.44,109.44 Q 158.67,105.83 163.65,106.96 Q 165.55,107.39 166.89,105.99 Q 172.57,100.04 180.77,101.89 A 1.58,0.42 -23.0 0 0 181.69,101.76 L 184.75,100.80 A 1.28,0.66 42.2 0 1 185.66,101.04 Q 187.75,102.42 189.84,101.57 Q 192.39,100.54 192.88,100.52 Q 194.97,100.42 196.44,101.49 A 2.90,2.89 51.3 0 0 199.27,101.81 Q 203.63,99.95 207.24,101.49 Q 208.59,102.07 209.36,101.86 Q 210.27,101.61 210.97,100.94 Q 211.40,100.52 211.79,100.41 Q 215.15,99.42 217.70,101.83 A 1.06,1.02 62.0 0 0 218.56,102.11 Q 221.06,101.76 223.46,102.42 A 1.49,0.37 51.2 0 1 224.21,102.99 L 226.09,104.96 A 1.12,0.70 -20.1 0 0 226.99,105.15 Q 231.52,104.31 233.09,108.34 A 1.88,1.86 -11.6 0 0 234.91,109.53 Q 238.66,109.36 240.61,111.60 Q 240.64,111.64 241.81,114.22 Q 242.50,115.76 244.30,115.69 Q 246.64,115.60 246.72,115.61 Q 249.87,116.12 251.31,118.73 A 3.18,3.17 -8.7 0 0 253.46,120.30 Q 259.95,121.57 260.00,127.57 Q 260.02,129.53 261.96,129.82 Q 267.41,130.61 266.62,135.97 A 2.57,2.56 -66.6 0 0 267.56,138.36 Q 270.29,140.53 269.71,143.00 Z"/>
<path fill="#272b2b" d="M 269.71,143.00 Q 269.13,144.48 269.21,146.00 A 1.44,1.12 26.9 0 0 269.61,146.85 Q 272.32,149.69 269.75,152.04 A 2.87,2.78 63.3 0 0 268.92,154.70 L 270.75,163.46 Q 267.91,163.18 266.07,161.13 A 1.44,0.83 60.2 0 0 265.25,160.65 Q 264.48,160.61 264.46,161.50 L 263.75,156.05 A 1.90,1.52 -86.8 0 0 262.70,154.57 Q 252.87,151.03 242.48,149.92 Q 208.41,146.31 174.24,147.92 Q 160.19,148.58 154.29,149.26 Q 142.27,150.66 130.55,154.31 Q 129.02,154.79 128.75,156.75 L 128.04,161.75 Q 126.54,161.44 124.94,162.19 Q 123.82,162.71 122.29,162.50 L 124.04,156.54 A 1.13,1.11 37.2 0 0 123.91,155.65 Q 122.53,153.42 122.79,150.75 Q 123.79,150.47 124.03,149.51 Q 124.78,146.54 127.37,145.56 Q 128.96,144.95 129.04,143.25 Q 129.24,138.99 133.48,135.98 A 3.42,3.42 76.3 0 0 134.90,133.64 Q 135.47,129.50 140.37,127.51 Q 142.98,126.45 143.20,124.00 Q 143.39,121.92 145.44,121.53 Q 148.40,120.97 149.55,118.83 Q 150.47,117.15 150.48,117.13 Q 152.22,114.80 154.41,115.08 Q 157.10,115.42 158.42,113.06 Q 159.49,111.16 161.24,110.69 Q 161.96,110.50 164.59,111.04 Q 166.64,111.46 168.70,111.05 A 1.73,1.44 -70.0 0 0 169.52,110.57 Q 174.57,105.19 181.43,109.86 A 2.86,2.84 -38.9 0 0 184.13,110.14 Q 187.32,108.81 190.49,111.20 A 1.40,1.40 41.1 0 0 192.30,111.08 Q 196.26,107.19 200.18,110.37 Q 202.30,112.10 204.38,110.32 Q 211.54,104.18 217.52,110.71 Q 219.32,112.68 221.76,111.49 A 1.69,1.69 65.7 0 1 224.05,112.36 Q 224.89,114.39 226.66,114.57 Q 227.13,114.62 229.64,113.90 Q 234.34,112.54 235.94,117.56 Q 236.80,120.26 238.84,120.70 Q 239.42,120.83 242.40,119.96 Q 244.27,119.42 246.21,119.92 A 1.45,1.18 -4.8 0 1 246.99,120.45 L 249.33,123.98 Q 250.79,126.19 252.97,125.76 Q 254.89,125.37 255.95,126.42 Q 256.14,126.62 257.06,128.88 Q 257.98,131.15 260.47,131.62 A 2.10,2.10 1.2 0 1 262.15,133.37 Q 262.53,135.84 263.80,136.27 A 2.04,2.04 5.2 0 1 265.17,137.91 Q 265.74,142.09 269.71,143.00 ZM 183.08,113.35 Q 180.89,112.67 179.97,113.39 A 1.50,1.49 39.4 0 1 178.39,113.54 Q 174.00,111.33 171.81,115.06 Q 171.21,116.09 172.21,116.53 A 1.03,0.79 -45.7 0 0 173.09,116.40 Q 175.54,114.80 178.07,116.24 A 1.56,1.03 45.6 0 0 179.00,116.44 Q 180.15,116.25 180.74,115.45 A 1.32,1.31 31.7 0 1 182.39,115.06 Q 184.39,116.08 184.25,114.78 A 1.68,1.67 5.8 0 0 183.08,113.35 ZM 216.16,115.23 Q 216.64,115.40 217.10,115.61 Q 219.08,116.49 218.70,114.87 Q 218.55,114.24 218.05,113.77 Q 216.71,112.50 214.81,112.53 A 1.75,1.00 -51.8 0 0 213.92,112.89 Q 213.21,113.42 212.38,113.60 Q 211.72,113.74 210.30,113.32 Q 206.63,112.22 205.00,115.50 Q 204.18,117.14 205.51,117.25 A 1.61,0.88 -45.4 0 0 206.41,116.98 Q 209.09,115.30 212.05,116.54 A 1.49,1.10 42.1 0 0 212.98,116.63 Q 214.26,116.27 215.31,115.39 A 0.90,0.82 -53.2 0 1 216.16,115.23 ZM 195.09,118.61 Q 197.49,120.30 197.72,117.99 A 0.89,0.84 21.4 0 0 197.35,117.20 Q 193.12,114.14 190.73,118.55 A 0.36,0.35 -72.2 0 0 190.99,119.08 Q 192.68,119.30 194.25,118.54 A 0.84,0.84 49.7 0 1 195.09,118.61 ZM 230.63,118.43 Q 228.08,116.77 225.37,118.10 Q 224.50,118.53 224.15,119.38 Q 223.25,121.56 226.25,120.75 Q 227.20,120.49 230.06,121.19 Q 233.71,122.08 231.85,119.60 Q 231.32,118.88 230.63,118.43 ZM 157.56,120.69 Q 154.88,119.85 152.84,121.74 Q 152.09,122.44 151.89,123.33 Q 151.50,125.11 153.44,124.99 Q 153.68,124.98 154.32,124.60 L 156.78,123.17 A 1.02,0.56 37.1 0 1 157.65,123.30 Q 158.29,123.68 158.87,123.32 A 0.82,0.71 70.2 0 0 159.19,122.50 Q 158.91,121.11 157.56,120.69 ZM 247.66,125.75 Q 244.10,123.92 242.05,126.36 A 0.83,0.52 -46.3 0 0 241.87,127.22 Q 242.26,127.73 243.86,127.24 A 3.30,3.25 -42.4 0 1 246.00,127.32 Q 248.81,128.43 248.76,127.44 A 2.02,2.01 12.1 0 0 247.66,125.75 Z"/>
<path fill="#393d3d" d="M 183.08,113.35 A 1.68,1.67 5.8 0 1 184.25,114.78 Q 184.39,116.08 182.39,115.06 A 1.32,1.31 31.7 0 0 180.74,115.45 Q 180.15,116.25 179.00,116.44 A 1.56,1.03 45.6 0 1 178.07,116.24 Q 175.54,114.80 173.09,116.40 A 1.03,0.79 -45.7 0 1 172.21,116.53 Q 171.21,116.09 171.81,115.06 Q 174.00,111.33 178.39,113.54 A 1.50,1.49 39.4 0 0 179.97,113.39 Q 180.89,112.67 183.08,113.35 Z"/>
<path fill="#393d3d" d="M 215.31,115.39 Q 214.26,116.27 212.98,116.63 A 1.49,1.10 42.1 0 1 212.05,116.54 Q 209.09,115.30 206.41,116.98 A 1.61,0.88 -45.4 0 1 205.51,117.25 Q 204.18,117.14 205.00,115.50 Q 206.63,112.22 210.30,113.32 Q 211.72,113.74 212.38,113.60 Q 213.21,113.42 213.92,112.89 A 1.75,1.00 -51.8 0 1 214.81,112.53 Q 216.71,112.50 218.05,113.77 Q 218.55,114.24 218.70,114.87 Q 219.08,116.49 217.10,115.61 Q 216.64,115.40 216.16,115.23 A 0.90,0.82 -53.2 0 0 215.31,115.39 Z"/>
<path fill="#393d3d" d="M 194.25,118.54 Q 192.68,119.30 190.99,119.08 A 0.36,0.35 -72.2 0 1 190.73,118.55 Q 193.12,114.14 197.35,117.20 A 0.89,0.84 21.4 0 1 197.72,117.99 Q 197.49,120.30 195.09,118.61 A 0.84,0.84 49.7 0 0 194.25,118.54 Z"/>
<path fill="#393d3d" d="M 231.85,119.60 Q 233.71,122.08 230.06,121.19 Q 227.20,120.49 226.25,120.75 Q 223.25,121.56 224.15,119.38 Q 224.50,118.53 225.37,118.10 Q 228.08,116.77 230.63,118.43 Q 231.32,118.88 231.85,119.60 Z"/>
<path fill="#393d3d" d="M 157.56,120.69 Q 158.91,121.11 159.19,122.50 A 0.82,0.71 70.2 0 1 158.87,123.32 Q 158.29,123.68 157.65,123.30 A 1.02,0.56 37.1 0 0 156.78,123.17 L 154.32,124.60 Q 153.68,124.98 153.44,124.99 Q 151.50,125.11 151.89,123.33 Q 152.09,122.44 152.84,121.74 Q 154.88,119.85 157.56,120.69 Z"/>
<path fill="#393d3d" d="M 247.66,125.75 A 2.02,2.01 12.1 0 1 248.76,127.44 Q 248.81,128.43 246.00,127.32 A 3.30,3.25 -42.4 0 0 243.86,127.24 Q 242.26,127.73 241.87,127.22 A 0.83,0.52 -46.3 0 1 242.05,126.36 Q 244.10,123.92 247.66,125.75 Z"/>
<path fill="#000000" d="M 264.46,161.50 L 266.21,178.00 L 266.50,187.96 Q 266.01,188.65 265.53,188.04 Q 265.32,187.77 265.27,187.29 Q 263.64,172.97 261.36,157.83 A 2.23,2.21 -85.8 0 0 259.83,156.04 Q 249.34,152.76 237.67,151.70 Q 198.48,148.14 159.25,151.25 Q 143.89,152.47 131.91,156.52 A 0.86,0.82 85.6 0 0 131.36,157.19 Q 129.66,167.78 127.25,187.50 Q 127.11,188.62 126.45,188.25 A 1.05,0.78 -80.1 0 1 126.04,187.44 L 125.96,184.50 L 126.79,172.50 L 128.04,161.75 L 128.75,156.75 Q 129.02,154.79 130.55,154.31 Q 142.27,150.66 154.29,149.26 Q 160.19,148.58 174.24,147.92 Q 208.41,146.31 242.48,149.92 Q 252.87,151.03 262.70,154.57 A 1.90,1.52 -86.8 0 1 263.75,156.05 L 264.46,161.50 Z"/>
<path fill="#feb286" d="M 266.50,187.96 Q 266.84,186.78 267.68,187.05 Q 268.67,187.36 268.75,187.37 Q 271.26,187.67 273.71,188.25 Q 273.22,202.80 270.41,217.08 A 0.79,0.59 -84.1 0 1 269.83,217.71 L 268.81,217.77 A 1.24,0.70 58.2 0 1 267.99,217.32 Q 262.97,211.61 255.48,209.81 Q 253.77,209.40 252.50,208.21 Q 245.88,200.18 235.50,199.75 Q 223.95,199.27 212.59,203.15 Q 208.29,204.62 208.25,208.94 Q 208.24,211.00 210.23,210.50 Q 218.57,208.46 227.00,207.00 Q 237.87,205.12 246.75,208.25 Q 247.30,208.44 246.75,208.71 Q 230.86,208.37 215.76,212.94 Q 210.01,214.67 206.41,215.02 Q 195.87,216.02 184.25,214.75 Q 180.66,214.36 178.11,213.50 Q 175.79,212.73 175.73,212.71 Q 160.81,208.44 145.25,208.71 Q 153.30,205.34 160.25,206.25 Q 171.38,207.71 182.38,210.53 Q 184.35,211.04 184.59,209.02 Q 184.83,207.01 183.50,205.34 Q 182.57,204.17 180.48,203.39 Q 171.41,199.99 160.50,199.75 Q 147.04,199.45 139.25,209.46 Q 134.48,210.87 131.56,212.06 Q 127.69,213.64 125.22,217.26 A 1.75,1.30 -76.0 0 1 124.48,217.87 Q 121.62,218.88 121.47,216.27 Q 121.36,214.38 121.34,214.23 Q 119.20,200.57 119.04,186.75 Q 119.73,185.88 120.74,185.70 Q 122.34,185.43 122.58,185.34 Q 124.23,184.76 125.96,184.50 L 126.04,187.44 A 1.05,0.78 -80.1 0 0 126.45,188.25 Q 127.11,188.62 127.25,187.50 Q 129.66,167.78 131.36,157.19 A 0.86,0.82 85.6 0 1 131.91,156.52 Q 143.89,152.47 159.25,151.25 Q 198.48,148.14 237.67,151.70 Q 249.34,152.76 259.83,156.04 A 2.23,2.21 -85.8 0 1 261.36,157.83 Q 263.64,172.97 265.27,187.29 Q 265.32,187.77 265.53,188.04 Q 266.01,188.65 266.50,187.96 Z"/>
<path fill="#99725b" d="M 270.75,163.46 Q 272.92,170.69 273.21,178.25 L 266.89,177.36 A 0.68,0.35 11.2 0 0 266.23,177.55 Q 266.16,177.74 266.21,178.00 L 264.46,161.50 Q 264.48,160.61 265.25,160.65 A 1.44,0.83 60.2 0 1 266.07,161.13 Q 267.91,163.18 270.75,163.46 Z"/>
<path fill="#99725b" d="M 128.04,161.75 L 126.79,172.50 Q 126.61,171.12 125.00,171.50 Q 121.81,172.25 120.04,173.00 L 122.29,162.50 Q 123.82,162.71 124.94,162.19 Q 126.54,161.44 128.04,161.75 Z"/>
<path fill="#b38366" d="M 126.79,172.50 L 125.96,184.50 Q 124.23,184.76 122.58,185.34 Q 122.34,185.43 120.74,185.70 Q 119.73,185.88 119.04,186.75 L 120.04,173.00 Q 121.81,172.25 125.00,171.50 Q 126.61,171.12 126.79,172.50 Z"/>
<path fill="#be896a" d="M 273.21,178.25 L 273.71,188.25 Q 271.26,187.67 268.75,187.37 Q 268.67,187.36 267.68,187.05 Q 266.84,186.78 266.50,187.96 L 266.21,178.00 Q 266.16,177.74 266.23,177.55 A 0.68,0.35 11.2 0 1 266.89,177.36 L 273.21,178.25 Z"/>
<path fill="#191b1b" d="M 145.25,208.71 L 139.25,209.46 Q 147.04,199.45 160.50,199.75 Q 171.41,199.99 180.48,203.39 Q 182.57,204.17 183.50,205.34 Q 184.83,207.01 184.59,209.02 Q 184.35,211.04 182.38,210.53 Q 171.38,207.71 160.25,206.25 Q 153.30,205.34 145.25,208.71 Z"/>
<path fill="#191b1b" d="M 252.50,208.21 L 246.75,208.71 Q 247.30,208.44 246.75,208.25 Q 237.87,205.12 227.00,207.00 Q 218.57,208.46 210.23,210.50 Q 208.24,211.00 208.25,208.94 Q 208.29,204.62 212.59,203.15 Q 223.95,199.27 235.50,199.75 Q 245.88,200.18 252.50,208.21 Z"/>
<path fill="#eadad5" d="M 251.29,211.50 Q 248.74,212.30 245.25,212.00 Q 239.67,211.52 233.19,212.94 Q 231.38,213.33 230.75,212.04 Q 240.99,210.31 251.29,211.50 Z"/>
<path fill="#fdc065" d="M 184.77,222.19 Q 185.61,223.94 185.75,226.50 Q 185.93,229.86 184.73,227.68 Q 184.51,227.30 184.44,226.76 Q 183.72,221.64 180.19,219.06 Q 177.10,216.81 171.65,215.78 Q 160.56,213.69 146.75,213.25 Q 140.12,213.04 134.51,215.30 Q 131.30,216.59 129.64,218.59 Q 127.62,221.01 127.25,224.25 Q 127.07,225.86 126.32,226.88 Q 126.00,227.30 125.94,226.75 Q 124.79,216.28 135.00,213.25 Q 143.84,210.63 152.51,211.08 Q 166.64,211.82 178.25,216.00 Q 180.43,216.78 182.23,218.75 Q 184.10,220.79 184.77,222.19 Z"/>
<path fill="#fdc065" d="M 251.29,211.50 Q 258.20,212.10 263.66,216.34 Q 266.92,218.87 267.25,224.25 Q 267.54,228.88 266.23,226.04 Q 266.02,225.57 265.95,224.92 Q 265.31,218.85 260.44,216.06 Q 256.57,213.85 250.75,213.25 Q 246.54,212.81 240.39,213.39 Q 240.27,213.40 230.08,214.16 Q 221.30,214.82 214.31,218.06 Q 210.03,220.05 209.31,225.56 Q 209.16,226.69 208.28,228.08 Q 208.00,228.53 207.85,228.03 Q 206.69,223.98 209.19,220.69 Q 212.57,216.22 218.24,214.70 Q 224.42,213.04 230.75,212.04 Q 231.38,213.33 233.19,212.94 Q 239.67,211.52 245.25,212.00 Q 248.74,212.30 251.29,211.50 Z"/>
<path fill="#feb286" d="M 185.54,231.00 Q 185.55,235.64 184.93,240.24 Q 184.11,246.29 179.75,250.54 Q 171.20,257.76 159.25,259.75 Q 157.34,260.07 157.19,258.80 A 1.03,0.74 -85.2 0 0 156.75,258.07 Q 154.26,256.78 154.02,259.51 A 0.57,0.53 -88.7 0 1 153.51,260.03 Q 148.96,260.21 144.83,258.39 Q 144.02,258.03 143.09,258.02 Q 141.87,258.01 141.25,257.75 Q 134.99,255.18 130.78,249.93 A 0.25,0.14 54.8 0 0 130.54,249.82 Q 130.47,249.87 130.46,250.00 Q 123.83,240.69 125.71,229.25 Q 128.35,227.98 128.56,225.31 Q 129.12,218.39 135.50,216.25 Q 140.58,214.54 145.83,214.45 Q 147.78,214.42 156.19,214.97 Q 164.59,215.52 172.83,217.31 Q 174.98,217.78 176.58,218.48 Q 179.07,219.57 179.94,220.56 Q 181.72,222.60 179.18,220.77 A 2.73,2.65 -25.0 0 0 177.74,220.27 Q 163.88,219.68 150.50,220.25 Q 146.41,220.43 137.98,223.33 A 0.35,0.32 -32.8 0 0 137.83,223.89 Q 138.18,224.21 138.68,224.32 Q 139.55,224.52 139.38,225.08 Q 139.28,225.40 138.82,225.61 Q 136.87,226.54 134.74,226.92 A 0.34,0.33 -20.5 0 0 134.50,227.42 Q 138.55,234.25 145.10,237.93 Q 151.09,241.29 159.02,241.67 Q 172.56,242.33 183.47,233.37 A 1.02,1.01 -32.3 0 0 183.75,232.17 Q 181.48,227.09 178.53,223.92 Q 178.24,223.60 178.67,223.55 Q 182.20,223.11 182.56,225.33 Q 182.90,227.43 182.93,227.49 Q 183.77,229.54 185.54,231.00 ZM 181.58,239.47 Q 176.93,245.07 171.17,248.44 Q 169.96,249.16 171.35,248.95 Q 179.26,247.73 182.29,239.89 Q 183.22,237.49 181.58,239.47 Z"/>
<path fill="#feb286" d="M 268.04,229.50 Q 267.66,231.02 267.75,233.50 Q 268.13,244.57 260.25,252.54 Q 259.78,252.36 259.44,252.69 Q 255.77,256.34 250.85,257.93 Q 245.26,259.72 239.44,260.04 A 0.53,0.52 85.9 0 1 238.90,259.56 Q 238.53,256.36 235.75,258.50 A 3.06,0.55 -39.2 0 1 233.50,259.75 Q 223.09,258.18 214.75,251.79 Q 206.20,243.36 208.00,231.29 L 208.21,231.25 L 208.79,232.00 Q 208.79,233.04 210.19,234.06 Q 221.85,242.57 235.05,241.63 Q 242.62,241.08 248.41,237.56 Q 254.46,233.88 258.61,227.34 A 0.33,0.32 20.1 0 0 258.37,226.84 Q 256.12,226.52 254.56,225.94 Q 252.00,224.97 254.75,224.25 Q 255.12,224.15 255.26,223.92 A 0.57,0.39 21.6 0 0 254.84,223.29 Q 245.55,220.40 242.00,220.25 Q 229.00,219.70 215.46,220.27 Q 214.66,220.31 213.98,220.71 Q 212.63,221.52 212.92,220.83 Q 213.03,220.59 213.33,220.39 Q 217.71,217.48 222.93,216.66 Q 235.39,214.71 248.00,214.57 Q 254.82,214.49 260.60,217.96 Q 264.13,220.08 264.25,224.00 Q 264.37,228.14 268.04,229.50 ZM 214.56,243.19 Q 212.67,240.88 210.65,238.69 Q 210.30,238.30 210.43,238.80 Q 212.75,247.75 221.93,249.00 Q 222.45,249.07 222.02,248.79 Q 215.84,244.75 214.56,243.19 Z"/>
<path fill="#eadad5" d="M 191.24,218.36 Q 186.73,218.35 185.06,217.69 Q 183.21,216.96 184.69,216.78 Q 184.96,216.75 185.31,216.78 Q 196.92,218.04 208.50,216.53 Q 208.78,216.50 209.01,216.55 Q 210.13,216.79 208.38,217.21 Q 202.82,218.56 197.14,218.46 Q 191.55,218.36 191.24,218.36 Z"/>
<path fill="#feb286" d="M 192.57,219.61 Q 199.69,220.04 207.06,218.95 Q 208.34,218.77 207.60,219.82 Q 206.24,221.74 205.68,225.15 A 0.41,0.41 22.0 0 1 205.04,225.42 Q 204.22,224.84 203.77,223.96 Q 203.17,222.76 202.75,222.40 Q 200.96,220.88 198.62,220.80 Q 196.45,220.73 194.38,220.83 Q 190.63,221.03 188.96,225.06 Q 188.30,226.64 187.80,225.00 L 186.21,219.80 A 0.36,0.36 82.6 0 1 186.57,219.33 Q 189.57,219.44 192.57,219.61 Z"/>
<path fill="#feb286" d="M 117.96,233.50 Q 117.54,233.54 117.35,233.17 Q 114.48,227.69 109.16,224.61 Q 107.55,223.68 107.16,224.95 A 0.83,0.68 30.0 0 0 107.46,225.74 L 109.29,227.25 Q 106.44,230.83 106.51,235.50 Q 106.70,247.71 112.75,258.29 Q 114.49,262.26 118.00,264.75 Q 119.61,265.90 121.50,265.21 L 123.55,274.06 A 0.41,0.39 -4.0 0 1 123.11,274.53 Q 119.33,274.23 117.20,271.58 Q 113.62,267.11 110.41,262.37 Q 106.83,257.07 105.06,251.06 Q 103.30,245.13 102.61,238.91 Q 101.80,231.64 103.81,225.06 Q 105.54,219.40 111.69,220.00 A 0.71,0.65 86.1 0 1 112.27,220.55 Q 112.90,223.21 116.65,224.35 A 1.22,1.02 8.7 0 1 117.50,225.32 L 117.96,233.50 Z"/>
<path fill="#feb286" d="M 271.25,265.21 Q 273.08,265.91 274.44,265.19 Q 278.52,263.03 280.21,258.25 Q 286.89,246.45 286.25,233.50 Q 286.09,230.23 283.71,227.25 L 285.29,225.98 A 1.24,0.95 -22.2 0 0 285.75,225.19 Q 285.86,223.50 284.06,224.31 Q 279.19,226.51 275.29,233.25 Q 274.87,230.86 274.95,228.43 Q 274.96,228.28 274.88,226.58 Q 274.78,224.47 276.72,224.08 Q 278.68,223.70 278.72,223.68 Q 280.50,222.89 280.89,220.91 A 1.51,1.50 -77.9 0 1 282.69,219.74 Q 288.39,220.99 289.57,226.73 Q 289.91,228.36 290.03,230.02 Q 291.66,252.44 276.56,270.56 Q 273.46,274.29 269.69,274.54 A 0.42,0.40 3.6 0 1 269.25,274.06 L 271.25,265.21 Z"/>
<path fill="#fdc065" d="M 115.40,221.25 Q 115.46,219.90 116.00,219.97 Q 118.99,220.32 121.99,220.26 A 1.36,1.07 -18.8 0 1 122.89,220.58 Q 123.91,221.56 121.75,221.52 Q 118.66,221.45 115.58,221.44 A 0.18,0.18 -88.5 0 1 115.40,221.25 Z"/>
<path fill="#fdc065" d="M 277.05,220.29 Q 279.23,220.63 277.62,221.35 Q 277.28,221.50 276.85,221.51 Q 271.74,221.65 270.75,221.75 Q 269.28,221.89 269.26,220.81 A 0.64,0.55 -5.1 0 1 269.81,220.24 Q 273.43,219.74 277.05,220.29 Z"/>
<path fill="#fdc065" d="M 190.10,225.46 Q 191.44,221.74 195.32,221.85 Q 195.71,221.86 198.17,221.85 Q 199.92,221.84 201.29,222.79 Q 201.60,223.00 203.09,225.19 Q 203.89,226.35 205.44,227.31 Q 206.14,227.75 205.72,228.02 A 0.90,0.63 37.2 0 1 204.91,227.99 Q 202.91,226.92 201.69,224.99 A 1.82,1.49 81.7 0 0 200.98,224.34 Q 194.40,221.31 190.23,226.79 Q 189.92,227.20 189.49,227.38 Q 185.11,229.25 189.52,226.22 A 1.64,1.44 86.2 0 0 190.10,225.46 Z"/>
<path fill="#feb286" d="M 208.79,232.00 L 208.21,231.25 Q 209.11,229.72 209.84,228.11 Q 209.90,227.98 210.51,225.14 Q 210.99,222.90 213.95,223.45 A 0.34,0.32 -67.1 0 1 214.14,223.96 L 208.79,232.00 Z"/>
<path fill="#b38366" d="M 123.50,229.21 L 123.04,229.50 Q 122.42,227.44 122.27,225.30 Q 122.25,224.99 122.36,224.72 Q 123.05,223.13 123.10,225.25 Q 123.16,227.24 123.50,229.21 Z"/>
<path fill="#ffffff" d="M 162.25,224.29 Q 157.60,234.44 167.50,238.96 Q 160.68,240.40 153.82,239.13 Q 146.10,237.70 142.01,231.18 A 0.91,0.90 42.2 0 1 141.96,230.30 Q 143.10,227.98 145.03,226.41 Q 146.66,225.07 149.48,224.73 Q 155.83,223.95 162.25,224.29 Z"/>
<path fill="#813c2e" d="M 165.75,224.29 Q 165.44,225.93 166.04,227.50 Q 164.80,231.38 167.41,233.25 Q 169.39,234.67 171.81,234.06 Q 174.69,233.34 175.00,230.00 Q 175.31,226.66 171.99,224.68 Q 171.55,224.41 172.03,224.27 Q 173.75,223.74 175.29,224.97 Q 177.89,227.04 179.46,230.00 L 178.79,234.25 Q 173.92,238.44 167.50,238.96 Q 157.60,234.44 162.25,224.29 Q 163.97,223.84 165.75,224.29 Z"/>
<path fill="#ffffff" d="M 166.04,227.50 Q 165.44,225.93 165.75,224.29 Q 168.10,223.63 170.45,224.18 A 0.71,0.70 4.6 0 1 170.99,224.81 Q 171.40,229.66 166.04,227.50 Z"/>
<path fill="#813c2e" d="M 235.00,224.29 L 235.75,227.71 Q 234.94,227.85 235.00,229.00 Q 235.13,231.42 236.46,232.85 Q 237.80,234.31 239.92,234.27 Q 241.73,234.24 243.02,232.99 Q 244.14,231.91 244.36,230.20 Q 244.85,226.49 241.04,224.75 L 241.00,224.54 Q 246.43,223.41 249.29,228.00 L 248.75,234.04 Q 244.20,239.46 237.00,239.71 Q 237.45,239.10 236.56,238.69 Q 227.00,234.29 231.75,224.29 Q 233.36,223.91 235.00,224.29 Z"/>
<path fill="#77271d" d="M 117.96,233.50 L 117.71,237.50 Q 116.44,236.77 115.81,235.42 Q 115.16,234.04 114.39,235.36 Q 110.51,242.00 112.69,249.81 Q 112.89,250.55 112.45,250.29 Q 112.32,250.21 112.24,250.03 Q 108.17,241.16 113.23,232.93 A 1.05,0.94 -41.8 0 0 113.33,232.03 Q 112.17,228.98 109.29,227.25 L 107.46,225.74 A 0.83,0.68 30.0 0 1 107.16,224.95 Q 107.55,223.68 109.16,224.61 Q 114.48,227.69 117.35,233.17 Q 117.54,233.54 117.96,233.50 Z"/>
<path fill="#ffffff" d="M 231.75,224.29 Q 227.00,234.29 236.56,238.69 Q 237.45,239.10 237.00,239.71 Q 223.97,240.97 213.05,233.51 A 1.14,1.14 29.3 0 1 212.65,232.10 Q 214.24,228.49 216.68,226.10 Q 218.07,224.74 220.32,224.51 Q 226.02,223.93 231.75,224.29 Z"/>
<path fill="#ffffff" d="M 235.00,224.29 L 241.00,224.54 L 241.04,224.75 Q 240.44,229.47 235.75,227.71 L 235.00,224.29 Z"/>
<path fill="#191b1b" d="M 269.82,224.64 Q 270.10,224.04 270.31,224.67 Q 270.66,225.75 269.98,226.99 Q 269.36,228.11 269.68,226.76 A 0.99,0.56 56.1 0 0 269.64,226.24 Q 269.41,225.53 269.82,224.64 Z"/>
<path fill="#77271d" d="M 283.71,227.25 Q 281.60,228.61 279.67,231.46 A 1.24,1.23 -42.9 0 0 279.62,232.79 Q 284.29,240.73 281.04,249.41 A 0.48,0.32 -74.3 0 1 280.65,249.74 Q 280.41,249.70 280.50,249.30 Q 282.02,242.47 279.09,236.17 Q 277.90,233.61 276.77,235.85 A 1.37,0.96 -4.2 0 1 276.07,236.42 Q 275.27,236.71 275.29,237.75 L 275.29,233.25 Q 279.19,226.51 284.06,224.31 Q 285.86,223.50 285.75,225.19 A 1.24,0.95 -22.2 0 1 285.29,225.98 L 283.71,227.25 Z"/>
<path fill="#000000" d="M 241.04,224.75 Q 244.85,226.49 244.36,230.20 Q 244.14,231.91 243.02,232.99 Q 241.73,234.24 239.92,234.27 Q 237.80,234.31 236.46,232.85 Q 235.13,231.42 235.00,229.00 Q 234.94,227.85 235.75,227.71 Q 240.44,229.47 241.04,224.75 Z"/>
<path fill="#feb286" d="M 206.25,231.04 L 205.96,234.75 Q 205.37,234.90 205.19,235.94 Q 204.18,241.54 204.29,246.16 Q 204.38,250.16 204.72,252.34 Q 205.21,255.45 206.73,258.29 A 0.37,0.23 71.2 0 0 206.97,258.49 L 207.13,258.51 A 0.34,0.26 89.2 0 0 207.41,258.13 Q 206.88,252.03 206.70,245.91 Q 206.70,245.90 206.46,244.75 Q 206.31,244.04 206.96,243.50 Q 220.04,267.43 247.06,261.56 Q 263.19,258.06 268.20,241.97 Q 268.22,241.90 268.43,240.37 Q 268.59,239.22 269.75,238.71 Q 270.52,244.52 269.20,250.24 Q 264.61,270.29 260.68,290.49 Q 259.13,298.46 254.92,305.08 Q 251.88,309.85 245.06,316.98 Q 239.03,323.29 231.96,328.50 Q 226.00,328.07 220.53,325.76 Q 219.58,325.36 221.16,327.85 Q 221.22,327.94 221.11,327.92 Q 218.25,327.27 215.90,325.36 Q 212.41,322.52 209.22,320.12 Q 208.52,319.59 208.87,320.40 Q 211.23,325.76 209.19,323.56 Q 206.65,320.84 204.71,315.25 Q 205.59,314.64 206.52,314.11 Q 207.16,313.75 207.46,313.35 Q 208.49,311.97 206.26,312.16 Q 195.79,313.06 185.31,312.11 A 1.18,0.83 17.9 0 0 184.43,312.38 Q 183.85,313.04 184.81,313.69 Q 185.32,314.03 188.29,315.00 L 185.06,322.21 A 0.47,0.36 -74.1 0 1 184.68,322.49 Q 184.42,322.48 184.57,322.07 Q 185.09,320.61 184.67,319.22 Q 184.52,318.73 184.26,319.19 Q 180.97,325.14 174.73,327.72 Q 174.15,327.96 173.61,328.04 Q 171.30,328.37 172.94,326.69 Q 174.46,325.12 172.44,325.94 Q 167.16,328.06 161.50,328.79 Q 152.30,322.46 142.69,311.31 Q 136.16,303.73 133.26,295.19 Q 132.96,294.30 129.40,277.26 Q 126.36,262.69 123.06,248.19 Q 122.55,245.93 123.21,237.00 Q 123.26,237.74 123.78,238.25 A 1.66,0.93 29.3 0 1 124.27,239.05 Q 126.00,248.71 132.51,254.85 Q 138.45,260.46 147.68,262.20 Q 160.50,264.62 173.00,258.00 Q 183.78,252.29 186.50,240.75 Q 186.99,238.67 187.00,230.96 Q 189.96,229.87 192.01,227.65 Q 193.66,225.87 194.94,225.52 Q 198.77,224.48 201.44,227.56 Q 203.65,230.12 206.25,231.04 ZM 137.2882,263.5629 A 1.77,1.54 -23.9 0 0 135.0461,262.8720 A 1.77,1.54 -23.9 0 0 134.0518,264.9971 A 1.77,1.54 -23.9 0 0 136.2939,265.6880 A 1.77,1.54 -23.9 0 0 137.2882,263.5629 ZM 256.94,265.81 Q 258.44,266.24 258.89,264.74 A 1.12,1.08 37.2 0 0 258.75,263.83 Q 257.31,261.59 255.62,263.66 A 0.81,0.76 -39.3 0 0 255.51,264.52 Q 256.03,265.55 256.94,265.81 ZM 147.6486,266.7093 A 2.06,1.57 -11.5 0 0 145.3170,265.5815 A 2.06,1.57 -11.5 0 0 143.6114,267.5307 A 2.06,1.57 -11.5 0 0 145.9430,268.6585 A 2.06,1.57 -11.5 0 0 147.6486,266.7093 ZM 249.1911,267.5928 A 2.03,1.57 12.6 0 0 247.5525,265.6178 A 2.03,1.57 12.6 0 0 245.2289,266.7072 A 2.03,1.57 12.6 0 0 246.8675,268.6822 A 2.03,1.57 12.6 0 0 249.1911,267.5928 ZM 202.50,276.29 Q 201.67,276.24 199.25,277.00 Q 196.14,277.97 192.25,276.50 Q 190.58,275.87 189.75,276.04 Q 187.28,273.98 185.19,275.62 Q 182.96,277.37 182.57,277.52 Q 178.82,278.96 179.09,274.63 Q 179.14,273.70 179.83,272.00 Q 180.36,270.70 180.61,269.30 Q 180.70,268.79 180.30,269.13 Q 177.35,271.68 177.14,275.34 Q 177.00,277.85 178.57,279.20 Q 180.38,280.77 183.25,279.96 L 192.25,281.96 Q 196.63,285.40 200.75,281.71 L 209.50,279.96 Q 214.26,280.87 215.40,277.39 Q 216.10,275.22 214.98,272.70 Q 213.97,270.43 212.09,268.70 Q 211.92,268.54 211.75,268.51 Q 211.23,268.40 211.50,269.00 Q 213.04,272.47 213.64,275.01 A 1.64,1.48 51.5 0 1 213.58,275.96 Q 211.92,280.08 208.56,276.69 Q 205.45,273.54 202.50,276.29 ZM 162.44,301.31 Q 164.79,301.64 167.14,301.95 Q 169.31,302.23 171.81,302.81 Q 198.08,308.92 223.31,302.08 Q 224.70,301.71 226.13,301.74 Q 232.38,301.88 229.92,298.28 Q 229.02,296.94 227.83,296.59 Q 225.99,296.03 225.01,298.10 A 1.17,0.97 -81.2 0 1 224.34,298.69 Q 196.13,306.18 167.92,298.69 A 1.34,1.20 78.4 0 1 167.18,298.14 Q 165.01,294.82 162.19,298.19 Q 159.87,300.95 162.44,301.31 Z"/>
<path fill="#de7d5e" d="M 109.29,227.25 Q 112.17,228.98 113.33,232.03 A 1.05,0.94 -41.8 0 1 113.23,232.93 Q 108.17,241.16 112.24,250.03 Q 112.32,250.21 112.45,250.29 Q 112.89,250.55 112.69,249.81 Q 110.51,242.00 114.39,235.36 Q 115.16,234.04 115.81,235.42 Q 116.44,236.77 117.71,237.50 Q 117.59,247.13 119.00,253.50 Q 120.95,262.32 121.21,264.00 Q 118.10,264.61 116.06,262.19 Q 114.41,260.24 112.75,258.29 Q 106.70,247.71 106.51,235.50 Q 106.44,230.83 109.29,227.25 Z"/>
<path fill="#de7d5e" d="M 283.71,227.25 Q 286.09,230.23 286.25,233.50 Q 286.89,246.45 280.21,258.25 Q 278.52,259.79 277.03,261.54 Q 274.85,264.08 271.50,263.96 Q 274.85,251.06 275.29,237.75 Q 275.27,236.71 276.07,236.42 A 1.37,0.96 -4.2 0 0 276.77,235.85 Q 277.90,233.61 279.09,236.17 Q 282.02,242.47 280.50,249.30 Q 280.41,249.70 280.65,249.74 A 0.48,0.32 -74.3 0 0 281.04,249.41 Q 284.29,240.73 279.62,232.79 A 1.24,1.23 -42.9 0 1 279.67,231.46 Q 281.60,228.61 283.71,227.25 Z"/>
<path fill="#ffffff" d="M 249.29,228.00 Q 252.86,231.19 248.75,234.04 L 249.29,228.00 Z"/>
<path fill="#ffffff" d="M 123.50,229.21 Q 124.52,230.06 125.71,229.25 Q 123.83,240.69 130.46,250.00 Q 136.93,258.78 148.25,260.50 Q 166.97,263.34 179.75,250.54 Q 184.11,246.29 184.93,240.24 Q 185.55,235.64 185.54,231.00 L 187.00,230.96 Q 186.99,238.67 186.50,240.75 Q 183.78,252.29 173.00,258.00 Q 160.50,264.62 147.68,262.20 Q 138.45,260.46 132.51,254.85 Q 126.00,248.71 124.27,239.05 A 1.66,0.93 29.3 0 0 123.78,238.25 Q 123.26,237.74 123.21,237.00 L 123.04,229.50 L 123.50,229.21 Z"/>
<path fill="#ffffff" d="M 269.75,238.71 Q 268.59,239.22 268.43,240.37 Q 268.22,241.90 268.20,241.97 Q 263.19,258.06 247.06,261.56 Q 220.04,267.43 206.96,243.50 L 205.96,234.75 L 206.25,231.04 Q 207.16,230.88 208.00,231.29 Q 206.20,243.36 214.75,251.79 Q 225.09,261.57 240.25,260.75 Q 252.24,260.10 260.25,252.54 Q 268.13,244.57 267.75,233.50 Q 267.66,231.02 268.04,229.50 L 269.20,229.42 A 0.46,0.40 -2.6 0 1 269.70,229.81 L 269.75,238.71 Z"/>
<path fill="#eadad5" d="M 179.46,230.00 Q 181.52,232.74 178.79,234.25 L 179.46,230.00 Z"/>
<path fill="#77271d" d="M 205.96,234.75 L 206.96,243.50 Q 206.31,244.04 206.46,244.75 Q 206.70,245.90 206.70,245.91 Q 206.88,252.03 207.41,258.13 A 0.34,0.26 89.2 0 1 207.13,258.51 L 206.97,258.49 A 0.37,0.23 71.2 0 1 206.73,258.29 Q 205.21,255.45 204.72,252.34 Q 204.38,250.16 204.29,246.16 Q 204.18,241.54 205.19,235.94 Q 205.37,234.90 205.96,234.75 Z"/>
<path fill="#de7d5e" d="M 214.56,243.19 Q 215.84,244.75 222.02,248.79 Q 222.45,249.07 221.93,249.00 Q 212.75,247.75 210.43,238.80 Q 210.30,238.30 210.65,238.69 Q 212.67,240.88 214.56,243.19 Z"/>
<path fill="#de7d5e" d="M 181.58,239.47 Q 183.22,237.49 182.29,239.89 Q 179.26,247.73 171.35,248.95 Q 169.96,249.16 171.17,248.44 Q 176.93,245.07 181.58,239.47 Z"/>
<path fill="#99725b" d="M 179.75,250.54 Q 166.97,263.34 148.25,260.50 Q 136.93,258.78 130.46,250.00 Q 130.47,249.87 130.54,249.82 A 0.25,0.14 54.8 0 1 130.78,249.93 Q 134.99,255.18 141.25,257.75 Q 141.87,258.01 143.09,258.02 Q 144.02,258.03 144.83,258.39 Q 148.96,260.21 153.51,260.03 A 0.57,0.53 -88.7 0 0 154.02,259.51 Q 154.26,256.78 156.75,258.07 A 1.03,0.74 -85.2 0 1 157.19,258.80 Q 157.34,260.07 159.25,259.75 Q 171.20,257.76 179.75,250.54 Z"/>
<path fill="#99725b" d="M 214.75,251.79 Q 223.09,258.18 233.50,259.75 A 3.06,0.55 -39.2 0 0 235.75,258.50 Q 238.53,256.36 238.90,259.56 A 0.53,0.52 85.9 0 0 239.44,260.04 Q 245.26,259.72 250.85,257.93 Q 255.77,256.34 259.44,252.69 Q 259.78,252.36 260.25,252.54 Q 252.24,260.10 240.25,260.75 Q 225.09,261.57 214.75,251.79 Z"/>
<path fill="#77271d" d="M 112.75,258.29 Q 114.41,260.24 116.06,262.19 Q 118.10,264.61 121.21,264.00 L 121.50,265.21 Q 119.61,265.90 118.00,264.75 Q 114.49,262.26 112.75,258.29 Z"/>
<path fill="#813c2e" d="M 280.21,258.25 Q 278.52,263.03 274.44,265.19 Q 273.08,265.91 271.25,265.21 Q 271.07,264.49 271.50,263.96 Q 274.85,264.08 277.03,261.54 Q 278.52,259.79 280.21,258.25 Z"/>
<ellipse fill="#ca7d5e" cx="0.00" cy="0.00" transform="translate(135.67,264.28) rotate(-23.9)" rx="1.77" ry="1.54"/>
<path fill="#ca7d5e" d="M 256.94,265.81 Q 256.03,265.55 255.51,264.52 A 0.81,0.76 -39.3 0 1 255.62,263.66 Q 257.31,261.59 258.75,263.83 A 1.12,1.08 37.2 0 1 258.89,264.74 Q 258.44,266.24 256.94,265.81 Z"/>
<ellipse fill="#ca7d5e" cx="0.00" cy="0.00" transform="translate(145.63,267.12) rotate(-11.5)" rx="2.06" ry="1.57"/>
<ellipse fill="#ca7d5e" cx="0.00" cy="0.00" transform="translate(247.21,267.15) rotate(12.6)" rx="2.03" ry="1.57"/>
<path fill="#77271d" d="M 209.50,279.96 L 206.19,277.31 A 1.22,1.05 40.0 0 0 204.63,277.33 L 200.75,281.71 Q 196.63,285.40 192.25,281.96 L 188.58,277.70 A 1.95,1.74 -40.7 0 0 185.98,277.65 L 183.25,279.96 Q 180.38,280.77 178.57,279.20 Q 177.00,277.85 177.14,275.34 Q 177.35,271.68 180.30,269.13 Q 180.70,268.79 180.61,269.30 Q 180.36,270.70 179.83,272.00 Q 179.14,273.70 179.09,274.63 Q 178.82,278.96 182.57,277.52 Q 182.96,277.37 185.19,275.62 Q 187.28,273.98 189.75,276.04 Q 192.95,279.94 194.06,280.69 Q 196.86,282.57 199.31,280.06 Q 201.58,277.74 202.50,276.29 Q 205.45,273.54 208.56,276.69 Q 211.92,280.08 213.58,275.96 A 1.64,1.48 51.5 0 0 213.64,275.01 Q 213.04,272.47 211.50,269.00 Q 211.23,268.40 211.75,268.51 Q 211.92,268.54 212.09,268.70 Q 213.97,270.43 214.98,272.70 Q 216.10,275.22 215.40,277.39 Q 214.26,280.87 209.50,279.96 Z"/>
<path fill="#cf6249" d="M 189.75,276.04 Q 190.58,275.87 192.25,276.50 Q 196.14,277.97 199.25,277.00 Q 201.67,276.24 202.50,276.29 Q 201.58,277.74 199.31,280.06 Q 196.86,282.57 194.06,280.69 Q 192.95,279.94 189.75,276.04 Z"/>
<path fill="#ca7d5e" d="M 192.25,281.96 L 183.25,279.96 L 185.98,277.65 A 1.95,1.74 -40.7 0 1 188.58,277.70 L 192.25,281.96 Z"/>
<path fill="#ca7d5e" d="M 209.50,279.96 L 200.75,281.71 L 204.63,277.33 A 1.22,1.05 40.0 0 1 206.19,277.31 L 209.50,279.96 Z"/>
<path fill="#000000" d="M 162.44,301.31 Q 159.87,300.95 162.19,298.19 Q 165.01,294.82 167.18,298.14 A 1.34,1.20 78.4 0 0 167.92,298.69 Q 196.13,306.18 224.34,298.69 A 1.17,0.97 -81.2 0 0 225.01,298.10 Q 225.99,296.03 227.83,296.59 Q 229.02,296.94 229.92,298.28 Q 232.38,301.88 226.13,301.74 Q 224.70,301.71 223.31,302.08 Q 198.08,308.92 171.81,302.81 Q 169.31,302.23 167.14,301.95 Q 164.79,301.64 162.44,301.31 Z"/>
<path fill="#cf6249" d="M 204.71,315.25 Q 196.46,316.70 188.29,315.00 Q 185.32,314.03 184.81,313.69 Q 183.85,313.04 184.43,312.38 A 1.18,0.83 17.9 0 1 185.31,312.11 Q 195.79,313.06 206.26,312.16 Q 208.49,311.97 207.46,313.35 Q 207.16,313.75 206.52,314.11 Q 205.59,314.64 204.71,315.25 Z"/>
<path fill="#191b1b" d="M 188.29,315.00 Q 196.46,316.70 204.71,315.25 Q 206.65,320.84 209.19,323.56 Q 211.23,325.76 208.87,320.40 Q 208.52,319.59 209.22,320.12 Q 212.41,322.52 215.90,325.36 Q 218.25,327.27 221.11,327.92 Q 221.22,327.94 221.16,327.85 Q 219.58,325.36 220.53,325.76 Q 226.00,328.07 231.96,328.50 Q 231.85,329.21 230.56,330.06 Q 225.66,333.32 216.76,340.76 Q 209.19,347.09 199.25,347.50 Q 190.21,347.87 182.93,344.78 Q 179.72,343.41 173.83,338.66 Q 168.82,334.62 164.19,331.56 Q 162.33,330.33 161.50,328.79 Q 167.16,328.06 172.44,325.94 Q 174.46,325.12 172.94,326.69 Q 171.30,328.37 173.61,328.04 Q 174.15,327.96 174.73,327.72 Q 180.97,325.14 184.26,319.19 Q 184.52,318.73 184.67,319.22 Q 185.09,320.61 184.57,322.07 Q 184.42,322.48 184.68,322.49 A 0.47,0.36 -74.1 0 0 185.06,322.21 L 188.29,315.00 Z"/>
<path fill="#354435" d="M 259.96,343.25 Q 259.63,343.49 259.24,343.52 Q 258.57,343.59 258.30,343.72 Q 242.21,351.70 226.40,360.23 Q 225.25,360.85 226.36,360.46 Q 240.53,355.46 254.56,350.05 Q 256.65,349.24 257.00,351.21 Q 253.20,353.91 248.25,356.00 Q 232.07,362.81 219.78,367.51 A 0.58,0.55 65.2 0 1 219.09,367.24 Q 217.96,365.11 215.82,364.89 Q 213.71,364.66 212.57,366.13 Q 211.46,367.56 211.83,370.05 A 1.59,1.59 71.0 0 1 211.01,371.69 Q 203.21,375.87 196.75,380.71 L 193.25,380.71 Q 190.08,377.15 186.31,375.19 Q 184.22,374.11 184.81,371.83 Q 185.44,369.41 184.12,367.91 Q 182.84,366.44 180.89,366.60 Q 178.69,366.78 177.66,369.48 A 0.94,0.94 22.2 0 1 176.40,370.01 Q 166.24,365.46 155.39,361.42 Q 144.05,357.20 133.54,351.23 Q 130.47,349.49 131.75,346.21 Q 133.42,346.34 134.91,347.11 Q 144.58,352.11 155.00,355.25 Q 155.81,355.49 155.87,354.94 A 0.97,0.66 23.7 0 0 155.39,354.17 Q 146.44,348.41 136.94,343.63 Q 135.81,343.06 134.38,341.95 Q 133.15,341.00 131.79,340.25 Q 129.83,333.11 135.29,330.15 Q 136.33,329.59 141.22,327.90 Q 144.23,326.86 147.32,326.08 Q 148.91,325.68 150.06,326.30 Q 151.15,326.89 149.95,327.18 Q 146.93,327.92 144.19,329.29 Q 141.30,330.72 140.32,332.35 Q 138.62,335.19 142.23,338.01 Q 147.26,341.94 152.75,345.16 Q 154.08,345.94 164.06,350.87 Q 172.85,355.21 181.01,360.71 Q 189.72,366.57 194.95,374.87 A 0.95,0.94 -43.4 0 0 196.52,374.91 Q 200.33,369.63 204.94,365.44 Q 211.73,359.26 224.08,352.34 Q 235.62,345.88 247.40,339.86 Q 249.90,338.59 251.69,336.44 Q 253.73,333.98 250.81,331.94 Q 246.97,329.25 242.25,328.96 Q 241.33,328.78 240.96,328.00 Q 241.76,326.91 242.89,326.29 Q 243.88,325.76 245.30,326.10 Q 253.45,328.06 258.19,331.06 Q 262.59,333.85 260.56,339.56 Q 260.18,340.65 259.96,343.25 Z"/>
<path fill="#253025" d="M 240.96,328.00 Q 241.33,328.78 242.25,328.96 Q 240.70,328.88 241.58,329.53 Q 241.78,329.68 242.08,329.74 Q 245.39,330.40 247.87,332.10 Q 250.06,333.59 248.01,334.99 L 240.26,340.27 A 1.22,1.00 56.4 0 1 238.74,339.80 L 234.82,333.82 A 0.83,0.76 54.6 0 1 234.95,332.75 L 240.96,328.00 Z"/>
<path fill="#253025" d="M 144.81,335.45 Q 141.75,332.89 145.17,331.36 L 151.00,328.75 A 1.76,1.70 51.1 0 1 152.75,328.97 L 157.88,332.91 A 0.51,0.47 -51.2 0 1 157.93,333.62 Q 155.26,336.74 153.81,339.99 A 0.98,0.98 -64.6 0 1 152.47,340.47 Q 148.06,338.19 144.81,335.45 Z"/>
<path fill="#eadad5" d="M 166.04,338.75 Q 165.51,339.59 164.54,339.75 Q 164.07,338.80 163.28,338.91 A 0.55,0.48 79.7 0 0 162.90,339.55 Q 164.46,347.62 171.79,351.48 Q 171.98,351.58 172.01,351.71 Q 172.04,351.83 171.93,351.92 A 0.37,0.24 35.5 0 1 171.58,351.90 L 158.14,344.86 A 0.68,0.65 22.4 0 1 157.80,344.09 Q 159.04,339.97 162.20,336.90 A 0.79,0.79 -55.6 0 1 163.04,336.74 Q 164.73,337.43 166.04,338.75 Z"/>
<path fill="#eadad5" d="M 228.71,339.50 Q 227.60,339.64 226.96,338.75 Q 228.82,335.78 231.19,337.56 Q 233.18,339.07 234.53,342.96 A 0.60,0.57 -23.8 0 1 234.24,343.65 L 226.85,347.68 Q 225.35,348.50 226.43,347.20 Q 229.00,344.10 229.77,340.15 Q 230.27,337.63 228.71,339.50 Z"/>
<path fill="#a49895" d="M 166.04,338.75 L 170.38,341.96 Q 170.94,342.37 170.25,342.59 Q 165.60,344.06 164.54,339.75 Q 165.51,339.59 166.04,338.75 Z"/>
<path fill="#a49895" d="M 226.96,338.75 Q 227.60,339.64 228.71,339.50 Q 227.13,343.95 222.73,342.65 A 0.34,0.33 -61.9 0 1 222.57,342.11 Q 224.41,339.98 226.96,338.75 Z"/>
<path fill="#2a362a" d="M 131.79,340.25 Q 133.15,341.00 134.38,341.95 Q 135.81,343.06 136.94,343.63 Q 146.44,348.41 155.39,354.17 A 0.97,0.66 23.7 0 1 155.87,354.94 Q 155.81,355.49 155.00,355.25 Q 144.58,352.11 134.91,347.11 Q 133.42,346.34 131.75,346.21 L 131.79,340.25 Z"/>
<path fill="#2a362a" d="M 259.96,343.25 Q 261.27,348.58 257.00,351.21 Q 256.65,349.24 254.56,350.05 Q 240.53,355.46 226.36,360.46 Q 225.25,360.85 226.40,360.23 Q 242.21,351.70 258.30,343.72 Q 258.57,343.59 259.24,343.52 Q 259.63,343.49 259.96,343.25 Z"/>
<path fill="#feb286" d="M 170.90,347.90 Q 170.19,347.36 171.08,347.27 L 175.32,346.83 A 3.36,3.30 -33.2 0 1 177.32,347.23 Q 183.63,350.75 190.10,351.70 Q 196.75,352.68 203.41,351.75 Q 210.33,350.78 216.39,346.84 A 1.35,1.03 -49.7 0 1 217.31,346.64 L 221.78,347.61 Q 222.29,347.72 221.85,348.06 Q 216.34,352.22 212.31,354.56 Q 202.18,360.46 194.85,369.80 A 0.33,0.33 -39.8 0 1 194.29,369.75 Q 190.24,362.08 183.35,357.13 Q 177.33,352.81 170.90,347.90 Z"/>
<path fill="#2a362a" d="M 179.75,375.21 Q 176.43,375.63 173.35,374.53 Q 170.02,373.34 169.94,373.31 Q 158.40,370.01 146.93,366.47 Q 142.01,364.95 135.75,362.00 Q 128.10,358.40 126.25,350.46 Q 127.34,349.83 128.09,350.92 Q 129.68,353.21 132.13,354.58 Q 142.87,360.59 154.39,364.94 Q 165.83,369.26 177.17,373.85 Q 178.53,374.40 179.75,375.21 Z"/>
<path fill="#354435" d="M 285.04,356.50 Q 252.52,375.45 215.00,379.46 Q 214.80,376.83 216.04,374.50 Q 220.85,373.94 225.41,372.44 Q 233.03,369.95 233.21,369.89 Q 244.45,366.61 255.17,361.89 Q 259.47,360.00 261.37,355.77 Q 261.54,355.39 261.93,354.98 Q 262.97,353.92 262.25,352.54 Q 263.04,351.50 264.09,350.85 Q 265.03,350.28 266.41,350.49 Q 274.87,351.77 282.93,354.58 Q 284.41,355.09 285.04,356.50 Z"/>
<path fill="#354435" d="M 126.25,350.46 Q 128.10,358.40 135.75,362.00 Q 142.01,364.95 146.93,366.47 Q 158.40,370.01 169.94,373.31 Q 170.02,373.34 173.35,374.53 Q 176.43,375.63 179.75,375.21 Q 181.62,376.99 181.50,379.71 Q 172.63,379.29 162.25,377.25 Q 132.55,371.42 107.00,356.71 Q 108.51,355.20 110.06,354.56 Q 117.54,351.50 126.25,350.46 Z"/>
<path fill="#2a362a" d="M 262.25,352.54 Q 262.97,353.92 261.93,354.98 Q 261.54,355.39 261.37,355.77 Q 259.47,360.00 255.17,361.89 Q 244.45,366.61 233.21,369.89 Q 233.03,369.95 225.41,372.44 Q 220.85,373.94 216.04,374.50 Q 216.12,372.78 218.06,372.06 Q 234.05,366.17 249.66,359.38 Q 256.25,356.51 262.25,352.54 Z"/>
<path fill="#354435" d="M 214.46,368.83 Q 214.53,368.35 214.85,368.36 A 0.47,0.37 -82.5 0 1 215.18,368.92 L 213.30,378.19 A 0.73,0.58 -83.0 0 1 212.70,378.78 Q 211.99,378.79 212.16,377.74 Q 212.83,373.51 214.32,369.51 Q 214.39,369.32 214.46,368.83 Z"/>
<path fill="#a49895" d="M 197.68,370.61 L 196.20,373.50 A 0.63,0.53 -63.6 0 1 195.45,373.83 Q 195.06,373.65 195.48,373.15 Q 195.71,372.89 195.82,372.66 Q 196.61,371.04 197.91,369.81 Q 198.62,369.14 198.34,369.94 Q 198.29,370.08 198.11,370.18 A 1.32,0.78 -14.3 0 0 197.68,370.61 Z"/>
<rect fill="#393d3d" x="-0.44" y="-4.18" transform="translate(182.68,374.63) rotate(-15.6)" width="0.88" height="8.36" rx="0.38"/>
<path fill="#354435" d="M 210.00,379.71 L 201.00,380.46 Q 200.48,379.39 201.71,378.91 Q 205.95,377.25 209.89,375.39 Q 210.95,374.90 210.72,376.07 L 210.00,379.71 Z"/>
<path fill="#2a362a" d="M 190.75,380.21 L 187.50,380.21 L 186.81,379.95 A 0.94,0.45 13.9 0 1 186.20,379.45 Q 185.84,377.51 187.23,378.19 Q 187.84,378.50 188.33,378.64 Q 189.76,379.07 190.75,380.21 Z"/>
</svg>
