
<svg xmlns="http://www.w3.org/2000/svg" version="1.1" viewBox="0 0 199 199">
<path fill="#000000" d="M 142.04,178.25 Q 140.47,176.44 138.00,176.20 Q 135.46,175.95 132.90,175.22 A 0.80,0.80 27.6 0 0 132.07,175.48 Q 130.76,177.06 129.44,177.69 Q 119.98,182.15 110.25,186.00 Q 107.24,187.19 108.00,189.96 L 105.25,189.96 Q 105.46,187.95 103.78,188.66 Q 102.47,189.21 101.12,189.70 A 0.46,0.34 -17.4 0 0 100.80,190.14 Q 100.85,190.31 101.00,190.46 Q 96.11,190.95 91.25,189.96 Q 91.73,188.90 91.76,187.76 Q 91.78,186.76 91.31,187.18 Q 91.07,187.40 90.85,188.18 Q 90.66,188.85 90.22,188.32 Q 89.39,187.35 88.04,186.87 Q 77.84,183.31 68.06,178.69 Q 65.47,177.46 63.83,175.63 A 0.98,0.89 62.8 0 0 63.01,175.32 Q 58.82,175.92 55.44,177.19 Q 54.59,177.50 54.21,178.50 Q 51.49,178.43 51.86,176.98 Q 52.07,176.18 53.18,175.52 Q 57.46,172.98 61.87,172.94 A 1.27,1.27 -4.7 0 0 63.12,171.47 Q 61.80,163.31 68.79,162.04 A 0.94,0.94 -24.3 0 0 69.36,160.54 Q 63.84,153.46 62.81,142.74 Q 62.56,140.19 60.03,139.81 Q 58.35,139.56 56.18,137.06 Q 48.92,128.69 48.87,117.84 Q 48.85,113.56 49.50,111.72 Q 50.66,108.40 54.52,107.31 A 2.76,2.76 -37.1 0 1 56.69,107.61 Q 58.51,108.72 58.02,106.25 Q 55.53,93.54 58.42,81.05 Q 58.70,79.86 58.93,76.38 Q 59.12,73.63 60.44,70.19 Q 61.43,67.60 62.64,66.17 Q 64.42,64.08 64.49,63.99 Q 68.61,58.08 76.06,52.81 Q 78.90,50.81 81.44,50.90 A 1.34,1.23 24.4 0 0 82.32,50.61 Q 85.06,48.29 88.00,48.25 Q 97.75,48.11 107.50,47.75 Q 109.84,47.66 114.90,50.14 Q 121.00,53.13 126.64,56.93 Q 126.69,56.96 129.41,58.35 Q 131.34,59.34 132.10,61.52 Q 132.27,62.01 132.63,62.33 Q 136.54,65.87 137.15,71.06 Q 137.16,71.17 137.80,73.84 Q 138.17,75.38 137.28,76.84 A 1.18,1.03 -39.8 0 0 137.14,77.73 Q 141.23,91.58 137.98,107.03 A 0.56,0.56 -88.5 0 0 138.61,107.70 Q 144.40,106.86 146.30,110.88 Q 147.99,114.43 147.82,118.17 Q 147.70,120.88 146.55,125.31 Q 144.84,131.92 140.22,137.20 Q 137.98,139.77 134.49,140.00 A 0.53,0.52 89.4 0 0 134.00,140.51 Q 133.59,150.85 127.00,160.85 A 0.77,0.76 -65.2 0 0 127.42,162.00 Q 134.04,163.99 132.92,170.24 Q 132.41,173.11 134.68,173.12 Q 136.70,173.13 136.82,173.15 Q 140.68,173.80 144.37,176.08 A 0.75,0.75 37.7 0 1 144.52,177.24 Q 143.65,178.15 142.04,178.25 ZM 61.96,73.00 Q 60.29,75.72 62.29,78.25 Q 59.98,84.28 59.79,90.75 Q 59.49,98.92 61.03,108.76 A 0.34,0.34 -21.9 0 0 61.57,108.99 Q 69.15,103.68 76.27,104.32 Q 84.27,105.04 92.00,107.29 Q 92.31,108.94 93.46,110.25 Q 93.62,111.16 94.14,111.92 A 1.46,1.34 31.6 0 1 94.39,112.80 Q 94.28,114.55 95.47,112.91 A 0.50,0.44 35.5 0 0 95.32,112.26 Q 94.65,111.78 95.33,111.26 A 0.54,0.44 52.8 0 1 96.01,111.43 Q 96.74,112.42 98.04,111.95 A 1.51,1.45 42.5 0 1 98.96,111.93 Q 100.10,112.28 100.78,111.48 A 0.64,0.51 -53.1 0 1 101.52,111.29 Q 102.39,111.82 101.68,112.60 A 0.60,0.46 -47.1 0 0 101.61,113.34 Q 101.81,113.54 102.06,113.60 A 0.64,0.49 -78.5 0 0 102.66,113.07 L 103.29,110.25 Q 105.39,108.56 103.25,107.29 Q 105.77,107.27 106.69,106.94 Q 116.67,103.28 127.05,104.90 Q 129.25,105.24 130.78,106.12 Q 132.51,107.12 133.94,108.57 Q 134.79,109.43 135.06,108.25 Q 136.60,101.34 136.71,94.00 Q 136.84,86.71 134.71,79.75 Q 133.75,77.21 135.19,75.15 A 1.17,0.72 64.7 0 0 135.28,74.30 L 134.71,72.00 Q 134.81,70.06 133.63,68.56 A 1.61,1.40 -68.4 0 1 133.32,67.68 Q 133.26,65.78 131.55,65.10 A 1.62,0.81 10.0 0 1 130.78,64.53 L 129.15,61.76 Q 128.88,61.30 128.50,61.06 L 124.11,58.34 A 1.72,1.54 -27.8 0 0 123.19,58.11 Q 121.42,58.17 120.74,56.66 Q 120.49,56.10 120.18,55.86 Q 118.97,54.91 117.42,54.63 A 1.19,1.07 76.0 0 1 116.68,54.13 Q 115.59,52.46 113.57,52.42 A 1.28,1.23 -21.6 0 1 112.72,52.07 Q 111.34,50.69 109.30,50.87 A 1.69,1.48 52.8 0 1 108.38,50.68 Q 106.63,49.75 104.92,50.73 A 1.05,1.03 39.9 0 1 104.04,50.80 Q 102.22,50.09 100.06,50.81 Q 98.91,51.20 97.52,50.65 Q 97.02,50.44 96.57,50.49 Q 91.85,50.94 89.44,50.81 Q 86.42,50.65 84.43,52.24 Q 83.33,53.12 82.74,53.30 Q 81.76,53.60 80.71,53.58 Q 79.44,53.56 78.86,53.87 Q 77.97,54.34 77.35,55.15 A 1.66,1.50 -78.0 0 1 76.58,55.71 Q 74.40,56.46 72.99,58.28 Q 72.68,58.67 72.24,58.89 Q 70.14,59.96 69.34,62.21 A 1.52,1.37 85.7 0 1 68.77,62.95 Q 67.31,63.91 67.00,64.75 Q 66.14,67.07 64.12,68.42 A 1.71,1.21 -87.8 0 0 63.55,69.16 L 61.96,73.00 ZM 118.25,105.79 Q 111.66,105.82 105.96,109.00 Q 105.15,109.71 104.75,110.71 Q 103.74,111.42 104.08,112.40 Q 104.54,113.74 104.55,113.82 Q 104.58,114.97 103.75,115.96 L 103.50,115.96 Q 102.23,115.17 101.12,114.20 Q 99.71,112.96 98.62,112.88 Q 96.70,112.73 95.48,114.28 Q 95.22,114.61 94.72,114.86 Q 94.27,115.08 93.96,115.50 Q 93.19,115.54 92.50,115.21 Q 90.14,112.45 91.96,116.00 L 92.00,116.71 Q 83.81,125.26 73.17,119.74 Q 69.42,117.80 67.43,114.05 A 0.55,0.55 73.6 0 1 67.87,113.24 Q 69.52,113.09 69.25,112.02 A 0.77,0.77 64.8 0 1 69.53,111.24 Q 73.98,107.91 79.00,107.25 Q 84.37,106.91 89.31,108.94 Q 91.81,109.96 91.94,112.31 Q 92.05,114.53 92.78,113.20 A 1.06,1.03 48.2 0 0 92.82,112.29 Q 91.32,108.64 87.51,107.47 Q 83.36,106.19 79.04,106.00 Q 75.01,104.92 71.00,105.96 Q 65.93,105.90 63.31,109.81 Q 62.56,110.93 63.29,112.25 L 64.04,113.25 L 62.96,114.75 L 62.25,114.96 Q 61.29,114.19 61.75,113.25 Q 62.09,112.56 61.79,112.37 A 0.51,0.37 -72.7 0 0 61.20,112.81 Q 61.02,113.93 61.54,115.00 L 61.71,121.25 Q 61.57,123.61 62.69,129.56 Q 64.28,138.07 65.73,146.60 Q 66.75,152.61 70.69,157.81 Q 75.33,163.95 80.56,168.19 Q 81.78,169.17 82.50,169.21 Q 83.10,169.53 83.12,170.20 A 1.07,0.80 -77.2 0 0 83.47,170.98 Q 85.18,172.19 86.77,173.55 Q 88.96,175.43 90.06,176.08 Q 99.34,181.60 108.50,174.75 Q 111.25,172.69 114.21,169.25 Q 118.25,166.48 121.51,162.89 Q 124.94,159.13 126.60,156.73 Q 129.03,153.24 129.81,149.31 Q 132.03,138.16 134.25,127.00 Q 134.96,123.41 134.96,121.50 Q 135.41,118.16 134.50,114.96 Q 133.52,114.64 132.87,113.95 Q 132.43,113.48 132.23,112.25 Q 131.78,109.56 129.21,108.25 Q 129.38,107.88 129.75,107.71 Q 132.12,108.99 132.86,111.52 Q 132.95,111.85 133.10,112.05 Q 133.94,113.19 133.73,111.41 Q 133.69,111.06 133.52,110.75 Q 130.73,105.74 124.75,105.54 Q 121.47,104.82 118.25,105.79 ZM 78.00,110.29 Q 73.72,109.73 71.31,114.34 A 1.90,1.89 -46.1 0 0 71.34,116.14 Q 72.86,118.84 75.59,119.85 Q 83.92,122.95 89.85,116.80 A 0.97,0.96 -28.3 0 0 90.11,115.95 Q 89.16,110.91 84.00,109.96 Q 80.95,109.31 78.00,110.29 ZM 60.21,132.75 Q 58.82,124.57 58.75,116.29 Q 59.78,112.85 57.02,111.40 Q 56.62,111.19 56.33,110.76 Q 55.45,109.41 53.65,110.40 A 3.45,3.42 81.3 0 0 51.95,112.74 Q 49.61,124.98 57.48,134.48 Q 58.21,135.37 59.00,136.03 Q 62.99,139.40 60.21,132.75 ZM 60.81,110.16 Q 54.71,110.21 60.76,110.89 A 0.71,0.52 12.8 0 0 61.44,110.59 Q 61.65,110.15 60.81,110.16 ZM 135.06,110.66 Q 137.12,111.50 138.53,110.61 Q 139.01,110.31 138.46,110.16 Q 136.74,109.69 135.09,110.15 Q 134.33,110.36 135.06,110.66 ZM 137.79,115.75 Q 137.53,116.62 138.00,117.29 Q 137.69,123.34 136.63,129.29 Q 136.61,129.39 136.18,130.65 Q 135.87,131.56 136.29,132.50 Q 135.23,134.73 135.16,135.79 Q 134.96,138.69 137.00,136.62 Q 146.32,127.16 144.94,113.81 Q 144.60,110.56 141.49,110.06 A 0.92,0.80 -64.2 0 0 140.70,110.40 Q 139.71,111.67 138.26,112.36 A 0.94,0.64 -18.2 0 0 137.72,113.06 L 137.79,115.75 ZM 90.16,111.24 Q 89.76,109.97 89.41,110.36 A 0.88,0.61 53.5 0 0 89.44,111.25 Q 91.02,113.96 90.16,111.24 ZM 92.19,183.81 Q 93.15,184.77 92.50,186.07 A 0.61,0.52 -61.2 0 0 92.65,186.81 L 96.85,189.60 A 2.00,1.75 -42.7 0 0 98.89,189.55 L 104.38,186.16 A 4.13,3.74 -9.5 0 0 106.11,183.97 Q 106.82,181.63 108.81,182.78 A 2.70,2.69 -39.5 0 0 111.05,182.99 Q 120.13,179.84 128.20,175.68 Q 129.77,174.87 129.97,172.56 L 130.27,169.13 Q 130.47,166.89 129.05,165.75 Q 127.37,164.40 124.75,164.00 Q 122.22,163.61 124.44,165.06 Q 126.85,166.64 125.70,168.38 Q 125.16,169.19 123.38,170.09 Q 112.82,175.40 103.10,182.12 Q 100.22,184.10 98.02,187.34 A 0.53,0.53 47.4 0 1 97.12,187.30 Q 95.04,183.50 91.61,181.09 Q 85.36,176.69 78.36,173.59 Q 73.85,171.60 69.96,168.11 A 0.96,0.95 -48.7 0 1 69.88,166.78 Q 72.50,163.75 71.03,164.12 Q 68.80,164.67 66.93,165.75 Q 65.54,166.54 65.75,168.73 L 66.23,174.02 A 1.94,1.54 -82.5 0 0 67.10,175.47 Q 77.09,180.67 88.28,184.59 A 0.57,0.54 -67.5 0 0 88.95,184.29 Q 90.15,181.78 92.19,183.81 ZM 73.20,165.80 Q 72.26,165.72 72.10,166.69 A 0.81,0.78 -69.3 0 0 72.45,167.50 L 76.01,169.76 Q 78.09,171.07 76.80,168.91 Q 75.93,167.45 74.32,166.29 Q 73.71,165.84 73.20,165.80 ZM 121.39,166.90 Q 121.18,167.45 120.76,167.87 Q 118.73,169.88 120.18,169.58 Q 120.61,169.49 121.12,169.12 Q 122.29,168.27 122.81,168.06 Q 124.60,167.37 123.62,166.33 A 1.07,1.00 -23.2 0 0 122.76,166.02 Q 121.66,166.15 121.39,166.90 ZM 80.31,171.69 Q 78.51,170.37 79.32,172.00 A 1.72,1.50 4.1 0 0 80.00,172.68 Q 87.23,176.73 80.31,171.69 ZM 115.80,172.36 Q 118.36,170.18 115.46,171.93 Q 114.10,172.74 115.24,172.61 A 1.13,1.04 -66.7 0 0 115.80,172.36 ZM 95.27,180.91 Q 94.66,180.89 95.00,181.35 L 97.09,184.21 A 0.52,0.49 -42.2 0 0 97.87,184.22 L 100.40,181.47 Q 100.78,181.06 100.20,181.05 L 95.27,180.91 ZM 106.68,186.95 L 106.17,187.78 A 0.61,0.58 -59.2 0 0 106.36,188.61 Q 106.90,188.93 106.77,186.98 Q 106.76,186.81 106.68,186.95 Z"/>
<path fill="#393d3d" d="M 134.71,72.00 Q 132.01,68.36 129.32,64.71 Q 127.92,62.81 126.41,62.73 A 2.70,2.68 78.7 0 1 124.11,61.18 Q 123.12,59.06 120.76,60.25 Q 118.95,61.16 118.33,59.23 Q 117.26,55.87 113.72,57.08 A 0.83,0.78 57.0 0 1 112.91,56.88 Q 111.73,55.70 110.06,55.67 A 1.31,1.23 -21.5 0 1 109.21,55.33 Q 107.00,53.23 104.04,53.93 A 2.03,1.11 -59.6 0 0 103.21,54.43 Q 101.43,56.13 99.40,54.79 A 1.23,0.56 40.7 0 0 98.50,54.53 L 96.18,55.25 Q 95.69,55.40 95.27,55.35 L 91.57,54.91 Q 90.91,54.83 90.65,54.67 Q 87.39,52.63 84.68,55.44 A 1.44,1.43 39.0 0 1 82.83,55.63 Q 81.33,54.60 79.90,55.89 Q 78.17,57.44 75.93,58.06 A 1.16,1.10 -83.3 0 0 75.23,58.64 Q 74.39,60.30 72.67,61.01 A 1.67,1.37 0.4 0 0 71.93,61.61 Q 71.56,62.22 71.15,62.80 Q 70.72,63.38 69.76,64.08 Q 68.06,65.31 67.14,67.23 Q 66.94,67.64 66.51,67.95 Q 65.15,68.94 64.75,71.00 Q 64.32,73.20 61.96,73.00 L 63.55,69.16 A 1.71,1.21 -87.8 0 1 64.12,68.42 Q 66.14,67.07 67.00,64.75 Q 67.31,63.91 68.77,62.95 A 1.52,1.37 85.7 0 0 69.34,62.21 Q 70.14,59.96 72.24,58.89 Q 72.68,58.67 72.99,58.28 Q 74.40,56.46 76.58,55.71 A 1.66,1.50 -78.0 0 0 77.35,55.15 Q 77.97,54.34 78.86,53.87 Q 79.44,53.56 80.71,53.58 Q 81.76,53.60 82.74,53.30 Q 83.33,53.12 84.43,52.24 Q 86.42,50.65 89.44,50.81 Q 91.85,50.94 96.57,50.49 Q 97.02,50.44 97.52,50.65 Q 98.91,51.20 100.06,50.81 Q 102.22,50.09 104.04,50.80 A 1.05,1.03 39.9 0 0 104.92,50.73 Q 106.63,49.75 108.38,50.68 A 1.69,1.48 52.8 0 0 109.30,50.87 Q 111.34,50.69 112.72,52.07 A 1.28,1.23 -21.6 0 0 113.57,52.42 Q 115.59,52.46 116.68,54.13 A 1.19,1.07 76.0 0 0 117.42,54.63 Q 118.97,54.91 120.18,55.86 Q 120.49,56.10 120.74,56.66 Q 121.42,58.17 123.19,58.11 A 1.72,1.54 -27.8 0 1 124.11,58.34 L 128.50,61.06 Q 128.88,61.30 129.15,61.76 L 130.78,64.53 A 1.62,0.81 10.0 0 0 131.55,65.10 Q 133.26,65.78 133.32,67.68 A 1.61,1.40 -68.4 0 0 133.63,68.56 Q 134.81,70.06 134.71,72.00 Z"/>
<path fill="#272b2b" d="M 134.71,72.00 L 135.28,74.30 A 1.17,0.72 64.7 0 1 135.19,75.15 Q 133.75,77.21 134.71,79.75 Q 134.45,79.50 134.18,79.53 A 0.94,0.42 -13.6 0 1 133.44,79.39 Q 132.28,78.20 132.21,80.25 Q 132.68,77.44 130.00,76.75 Q 124.47,75.33 120.23,74.90 Q 110.35,73.90 100.44,73.86 Q 88.85,73.81 83.56,74.15 Q 75.55,74.67 66.81,76.56 Q 64.39,77.09 64.04,79.00 Q 63.74,77.76 62.29,78.25 Q 60.29,75.72 61.96,73.00 Q 64.32,73.20 64.75,71.00 Q 65.15,68.94 66.51,67.95 Q 66.94,67.64 67.14,67.23 Q 68.06,65.31 69.76,64.08 Q 70.72,63.38 71.15,62.80 Q 71.56,62.22 71.93,61.61 A 1.67,1.37 0.4 0 1 72.67,61.01 Q 74.39,60.30 75.23,58.64 A 1.16,1.10 -83.3 0 1 75.93,58.06 Q 78.17,57.44 79.90,55.89 Q 81.33,54.60 82.83,55.63 A 1.44,1.43 39.0 0 0 84.68,55.44 Q 87.39,52.63 90.65,54.67 Q 90.91,54.83 91.57,54.91 L 95.27,55.35 Q 95.69,55.40 96.18,55.25 L 98.50,54.53 A 1.23,0.56 40.7 0 1 99.40,54.79 Q 101.43,56.13 103.21,54.43 A 2.03,1.11 -59.6 0 1 104.04,53.93 Q 107.00,53.23 109.21,55.33 A 1.31,1.23 -21.5 0 0 110.06,55.67 Q 111.73,55.70 112.91,56.88 A 0.83,0.78 57.0 0 0 113.72,57.08 Q 117.26,55.87 118.33,59.23 Q 118.95,61.16 120.76,60.25 Q 123.12,59.06 124.11,61.18 A 2.70,2.68 78.7 0 0 126.41,62.73 Q 127.92,62.81 129.32,64.71 Q 132.01,68.36 134.71,72.00 ZM 91.31,56.69 Q 87.91,55.92 86.81,56.56 Q 86.23,56.91 86.09,57.45 A 0.45,0.43 4.7 0 0 86.56,57.98 L 91.19,57.78 A 0.85,0.65 3.0 0 0 91.95,57.26 Q 92.06,56.86 91.31,56.69 ZM 102.64,58.05 L 108.95,57.75 A 0.45,0.40 -11.5 0 0 109.37,57.19 Q 109.26,56.89 108.94,56.81 Q 105.37,55.91 102.54,57.67 Q 101.87,58.09 102.64,58.05 ZM 97.70,58.48 Q 93.13,59.03 97.75,59.46 A 1.26,0.89 19.0 0 0 98.65,59.20 Q 99.12,58.74 98.42,58.52 Q 98.12,58.43 97.70,58.48 ZM 112.91,59.60 Q 116.82,61.47 115.55,59.65 A 0.93,0.89 71.2 0 0 114.76,59.24 L 112.97,59.28 Q 112.28,59.30 112.91,59.60 ZM 79.03,61.77 A 0.50,0.49 -24.9 0 0 79.32,61.00 Q 78.09,59.28 76.47,61.22 Q 75.24,62.70 79.03,61.77 Z"/>
<path fill="#393d3d" d="M 91.31,56.69 Q 92.06,56.86 91.95,57.26 A 0.85,0.65 3.0 0 1 91.19,57.78 L 86.56,57.98 A 0.45,0.43 4.7 0 1 86.09,57.45 Q 86.23,56.91 86.81,56.56 Q 87.91,55.92 91.31,56.69 Z"/>
<path fill="#393d3d" d="M 102.64,58.05 Q 101.87,58.09 102.54,57.67 Q 105.37,55.91 108.94,56.81 Q 109.26,56.89 109.37,57.19 A 0.45,0.40 -11.5 0 1 108.95,57.75 L 102.64,58.05 Z"/>
<path fill="#393d3d" d="M 98.42,58.52 Q 99.12,58.74 98.65,59.20 A 1.26,0.89 19.0 0 1 97.75,59.46 Q 93.13,59.03 97.70,58.48 Q 98.12,58.43 98.42,58.52 Z"/>
<path fill="#393d3d" d="M 112.91,59.60 Q 112.28,59.30 112.97,59.28 L 114.76,59.24 A 0.93,0.89 71.2 0 1 115.55,59.65 Q 116.82,61.47 112.91,59.60 Z"/>
<path fill="#393d3d" d="M 79.03,61.77 Q 75.24,62.70 76.47,61.22 Q 78.09,59.28 79.32,61.00 A 0.50,0.49 -24.9 0 1 79.03,61.77 Z"/>
<path fill="#000000" d="M 132.21,80.25 L 133.25,93.96 Q 132.62,94.37 132.52,93.50 Q 131.79,86.73 130.63,79.21 A 1.68,1.68 2.6 0 0 129.38,77.84 Q 122.42,76.13 115.50,75.55 Q 111.17,75.19 101.50,75.00 Q 88.86,74.75 76.25,76.02 Q 71.39,76.50 66.48,78.09 A 1.06,1.04 -4.7 0 0 65.76,78.92 L 63.57,93.50 Q 63.46,94.19 63.38,93.51 L 62.96,90.25 L 64.04,79.00 Q 64.39,77.09 66.81,76.56 Q 75.55,74.67 83.56,74.15 Q 88.85,73.81 100.44,73.86 Q 110.35,73.90 120.23,74.90 Q 124.47,75.33 130.00,76.75 Q 132.68,77.44 132.21,80.25 Z"/>
<path fill="#feb286" d="M 133.25,93.96 Q 134.98,93.45 136.71,94.00 Q 136.60,101.34 135.06,108.25 Q 134.79,109.43 133.94,108.57 Q 132.51,107.12 130.78,106.12 Q 129.25,105.24 127.05,104.90 Q 116.67,103.28 106.69,106.94 Q 105.77,107.27 103.25,107.29 Q 97.63,108.10 92.00,107.29 Q 84.27,105.04 76.27,104.32 Q 69.15,103.68 61.57,108.99 A 0.34,0.34 -21.9 0 1 61.03,108.76 Q 59.49,98.92 59.79,90.75 Q 61.25,89.91 62.96,90.25 L 63.38,93.51 Q 63.46,94.19 63.57,93.50 L 65.76,78.92 A 1.06,1.04 -4.7 0 1 66.48,78.09 Q 71.39,76.50 76.25,76.02 Q 88.86,74.75 101.50,75.00 Q 111.17,75.19 115.50,75.55 Q 122.42,76.13 129.38,77.84 A 1.68,1.68 2.6 0 1 130.63,79.21 Q 131.79,86.73 132.52,93.50 Q 132.62,94.37 133.25,93.96 ZM 90.32,98.42 Q 77.13,92.12 68.80,103.10 Q 68.50,103.50 68.92,103.24 Q 71.52,101.65 74.37,100.65 Q 77.38,99.60 80.75,99.81 Q 85.91,100.13 90.82,101.94 A 0.88,0.87 11.1 0 0 92.00,101.15 Q 92.07,99.26 90.32,98.42 ZM 123.69,99.13 Q 114.55,93.40 105.42,98.99 A 1.47,1.44 -5.4 0 0 104.80,99.72 Q 103.46,103.07 107.22,101.52 Q 117.40,97.33 127.05,103.03 Q 128.53,103.90 127.50,102.52 Q 126.10,100.65 123.69,99.13 Z"/>
<path fill="#a2785e" d="M 62.29,78.25 Q 63.74,77.76 64.04,79.00 L 62.96,90.25 Q 61.25,89.91 59.79,90.75 Q 59.98,84.28 62.29,78.25 Z"/>
<path fill="#a2785e" d="M 134.71,79.75 Q 136.84,86.71 136.71,94.00 Q 134.98,93.45 133.25,93.96 L 132.21,80.25 Q 132.28,78.20 133.44,79.39 A 0.94,0.42 -13.6 0 0 134.18,79.53 Q 134.45,79.50 134.71,79.75 Z"/>
<path fill="#191b1b" d="M 90.32,98.42 Q 92.07,99.26 92.00,101.15 A 0.88,0.87 11.1 0 1 90.82,101.94 Q 85.91,100.13 80.75,99.81 Q 77.38,99.60 74.37,100.65 Q 71.52,101.65 68.92,103.24 Q 68.50,103.50 68.80,103.10 Q 77.13,92.12 90.32,98.42 Z"/>
<path fill="#191b1b" d="M 123.69,99.13 Q 126.10,100.65 127.50,102.52 Q 128.53,103.90 127.05,103.03 Q 117.40,97.33 107.22,101.52 Q 103.46,103.07 104.80,99.72 A 1.47,1.44 -5.4 0 1 105.42,98.99 Q 114.55,93.40 123.69,99.13 Z"/>
<path fill="#b36e2f" d="M 124.75,105.54 Q 124.57,106.13 125.00,106.25 Q 128.38,107.20 129.75,107.71 Q 129.38,107.88 129.21,108.25 Q 125.87,107.39 122.44,107.68 Q 121.93,107.72 121.96,108.25 L 118.21,107.25 L 118.25,105.79 Q 121.47,104.82 124.75,105.54 Z"/>
<path fill="#b36e2f" d="M 79.04,106.00 Q 78.74,106.63 79.00,107.25 L 71.00,107.46 L 70.00,107.04 Q 71.60,107.05 71.00,105.96 Q 75.01,104.92 79.04,106.00 Z"/>
<path fill="#feb286" d="M 124.75,105.54 Q 130.73,105.74 133.52,110.75 Q 133.69,111.06 133.73,111.41 Q 133.94,113.19 133.10,112.05 Q 132.95,111.85 132.86,111.52 Q 132.12,108.99 129.75,107.71 Q 128.38,107.20 125.00,106.25 Q 124.57,106.13 124.75,105.54 Z"/>
<path fill="#feb286" d="M 118.25,105.79 L 118.21,107.25 Q 112.29,106.75 106.96,109.25 Q 106.08,109.81 105.96,109.00 Q 111.66,105.82 118.25,105.79 Z"/>
<path fill="#dd7d5d" d="M 71.00,105.96 Q 71.60,107.05 70.00,107.04 Q 66.32,107.02 64.33,109.89 A 1.60,0.93 71.7 0 0 64.14,110.81 Q 64.20,111.89 63.29,112.25 Q 62.56,110.93 63.31,109.81 Q 65.93,105.90 71.00,105.96 Z"/>
<path fill="#feb286" d="M 79.04,106.00 Q 83.36,106.19 87.51,107.47 Q 91.32,108.64 92.82,112.29 A 1.06,1.03 48.2 0 1 92.78,113.20 Q 92.05,114.53 91.94,112.31 Q 91.81,109.96 89.31,108.94 Q 84.37,106.91 79.00,107.25 Q 78.74,106.63 79.04,106.00 Z"/>
<path fill="#5c0202" d="M 70.00,107.04 L 71.00,107.46 Q 65.12,107.66 64.04,113.25 L 63.29,112.25 Q 64.20,111.89 64.14,110.81 A 1.60,0.93 71.7 0 1 64.33,109.89 Q 66.32,107.02 70.00,107.04 Z"/>
<path fill="#feb286" d="M 79.00,107.25 Q 73.98,107.91 69.53,111.24 A 0.77,0.77 64.8 0 0 69.25,112.02 Q 69.52,113.09 67.87,113.24 A 0.55,0.55 73.6 0 0 67.43,114.05 Q 69.42,117.80 73.17,119.74 Q 83.81,125.26 92.00,116.71 Q 92.72,120.88 90.82,124.09 Q 89.25,126.76 85.46,128.55 Q 76.71,132.70 68.47,127.91 Q 65.18,126.01 63.91,122.84 Q 62.40,119.05 62.96,114.75 L 64.04,113.25 Q 65.12,107.66 71.00,107.46 L 79.00,107.25 ZM 89.69,120.68 Q 88.09,122.31 86.54,123.62 Q 85.50,124.50 86.80,124.07 Q 89.38,123.20 90.75,120.94 A 1.07,0.90 -43.7 0 0 90.85,120.03 Q 90.52,119.25 90.09,120.11 Q 89.90,120.48 89.69,120.68 Z"/>
<path fill="#803b2d" d="M 92.00,107.29 Q 97.63,108.10 103.25,107.29 Q 105.39,108.56 103.29,110.25 Q 102.73,109.95 102.10,109.94 Q 101.67,109.94 100.99,110.32 Q 98.37,111.80 95.56,110.19 Q 94.58,109.62 93.46,110.25 Q 92.31,108.94 92.00,107.29 Z"/>
<path fill="#000000" d="M 118.21,107.25 L 121.96,108.25 L 126.76,111.05 A 1.07,0.83 -82.5 0 1 127.20,111.81 Q 127.35,113.16 128.70,113.48 A 0.40,0.38 20.0 0 1 128.97,114.02 Q 127.06,117.93 123.56,119.81 Q 112.58,125.74 104.50,116.50 L 106.00,112.29 Q 106.22,112.25 106.25,112.04 Q 107.28,111.39 107.75,110.29 Q 106.98,110.02 106.96,109.25 Q 112.29,106.75 118.21,107.25 ZM 112.75,109.96 Q 107.86,110.50 106.34,115.82 A 1.22,1.20 -60.1 0 0 106.65,117.02 Q 111.52,121.87 118.50,120.75 Q 122.85,120.05 125.26,115.93 A 1.14,1.13 51.7 0 0 125.36,115.02 Q 123.74,110.04 118.25,110.04 Q 115.50,109.43 112.75,109.96 Z"/>
<path fill="#feb286" d="M 129.21,108.25 Q 131.78,109.56 132.23,112.25 Q 132.43,113.48 132.87,113.95 Q 133.52,114.64 134.50,114.96 Q 133.60,115.21 133.82,116.04 Q 133.98,116.68 133.95,116.99 Q 132.50,129.03 121.84,130.02 Q 116.90,130.48 113.21,129.41 Q 108.77,128.13 105.94,124.06 Q 103.66,120.79 104.50,116.50 Q 112.58,125.74 123.56,119.81 Q 127.06,117.93 128.97,114.02 A 0.40,0.38 20.0 0 0 128.70,113.48 Q 127.35,113.16 127.20,111.81 A 1.07,0.83 -82.5 0 0 126.76,111.05 L 121.96,108.25 Q 121.93,107.72 122.44,107.68 Q 125.87,107.39 129.21,108.25 ZM 108.81,122.94 Q 107.89,122.56 106.68,120.50 Q 106.39,119.99 106.15,120.46 Q 105.79,121.15 106.39,121.87 Q 107.80,123.56 109.86,124.46 Q 110.69,124.82 110.15,124.10 Q 109.49,123.21 108.81,122.94 Z"/>
<path fill="#803b2d" d="M 105.96,109.00 Q 106.08,109.81 106.96,109.25 Q 106.98,110.02 107.75,110.29 Q 105.71,110.33 106.25,112.04 Q 106.22,112.25 106.00,112.29 Q 105.21,111.68 104.75,110.71 Q 105.15,109.71 105.96,109.00 Z"/>
<path fill="#803b2d" d="M 84.00,109.96 Q 83.48,110.02 83.94,110.56 Q 87.30,114.56 84.40,117.24 Q 82.26,119.21 79.56,118.69 Q 76.29,118.05 76.00,113.75 Q 75.90,112.28 78.00,110.29 Q 80.95,109.31 84.00,109.96 ZM 78.54,112.75 Q 77.99,117.36 81.96,116.10 A 1.28,1.21 4.8 0 0 82.70,115.51 Q 84.26,112.75 81.04,111.50 Q 78.61,109.52 78.54,112.75 Z"/>
<path fill="#803b2d" d="M 118.25,110.04 Q 119.77,111.42 119.94,112.56 Q 120.71,118.01 116.84,118.74 Q 113.80,119.32 111.80,116.96 Q 109.27,113.96 112.75,109.96 Q 115.50,109.43 118.25,110.04 ZM 113.75,112.96 Q 113.02,113.05 113.19,113.81 Q 114.12,118.00 117.29,115.74 A 1.31,1.29 -12.5 0 0 117.81,114.94 Q 118.32,112.54 116.04,112.00 Q 115.50,110.38 114.14,110.81 Q 113.47,111.02 113.27,111.63 Q 113.02,112.41 113.75,112.96 Z"/>
<path fill="#feb286" d="M 58.75,116.29 Q 58.23,116.38 57.96,116.00 Q 57.20,114.13 55.46,113.06 Q 52.50,111.23 54.79,113.50 Q 52.20,117.18 53.27,121.60 Q 53.86,124.04 56.25,128.75 Q 57.86,131.92 60.21,132.75 Q 62.99,139.40 59.00,136.03 Q 58.21,135.37 57.48,134.48 Q 49.61,124.98 51.95,112.74 A 3.45,3.42 81.3 0 1 53.65,110.40 Q 55.45,109.41 56.33,110.76 Q 56.62,111.19 57.02,111.40 Q 59.78,112.85 58.75,116.29 Z"/>
<path fill="#dd7d5d" d="M 60.81,110.16 Q 61.65,110.15 61.44,110.59 A 0.71,0.52 12.8 0 1 60.76,110.89 Q 54.71,110.21 60.81,110.16 Z"/>
<path fill="#ffffff" d="M 78.00,110.29 Q 75.90,112.28 76.00,113.75 Q 76.29,118.05 79.56,118.69 Q 82.26,119.21 84.40,117.24 Q 87.30,114.56 83.94,110.56 Q 83.48,110.02 84.00,109.96 Q 89.16,110.91 90.11,115.95 A 0.97,0.96 -28.3 0 1 89.85,116.80 Q 83.92,122.95 75.59,119.85 Q 72.86,118.84 71.34,116.14 A 1.90,1.89 -46.1 0 1 71.31,114.34 Q 73.72,109.73 78.00,110.29 Z"/>
<path fill="#feb286" d="M 103.29,110.25 L 102.66,113.07 A 0.64,0.49 -78.5 0 1 102.06,113.60 Q 101.81,113.54 101.61,113.34 A 0.60,0.46 -47.1 0 1 101.68,112.60 Q 102.39,111.82 101.52,111.29 A 0.64,0.51 -53.1 0 0 100.78,111.48 Q 100.10,112.28 98.96,111.93 A 1.51,1.45 42.5 0 0 98.04,111.95 Q 96.74,112.42 96.01,111.43 A 0.54,0.44 52.8 0 0 95.33,111.26 Q 94.65,111.78 95.32,112.26 A 0.50,0.44 35.5 0 1 95.47,112.91 Q 94.28,114.55 94.39,112.80 A 1.46,1.34 31.6 0 0 94.14,111.92 Q 93.62,111.16 93.46,110.25 Q 94.58,109.62 95.56,110.19 Q 98.37,111.80 100.99,110.32 Q 101.67,109.94 102.10,109.94 Q 102.73,109.95 103.29,110.25 Z"/>
<path fill="#ffffff" d="M 112.75,109.96 Q 109.27,113.96 111.80,116.96 Q 113.80,119.32 116.84,118.74 Q 120.71,118.01 119.94,112.56 Q 119.77,111.42 118.25,110.04 Q 123.74,110.04 125.36,115.02 A 1.14,1.13 51.7 0 1 125.26,115.93 Q 122.85,120.05 118.50,120.75 Q 111.52,121.87 106.65,117.02 A 1.22,1.20 -60.1 0 1 106.34,115.82 Q 107.86,110.50 112.75,109.96 Z"/>
<path fill="#dd7d5d" d="M 135.06,110.66 Q 134.33,110.36 135.09,110.15 Q 136.74,109.69 138.46,110.16 Q 139.01,110.31 138.53,110.61 Q 137.12,111.50 135.06,110.66 Z"/>
<path fill="#feb286" d="M 136.29,132.50 Q 137.64,132.88 138.48,131.71 Q 144.50,123.38 142.21,113.25 Q 142.92,112.70 142.65,112.30 A 0.68,0.49 -33.6 0 0 141.82,112.27 Q 139.84,113.59 138.61,115.64 A 0.57,0.37 -64.7 0 1 138.11,115.95 Q 137.94,115.91 137.79,115.75 L 137.72,113.06 A 0.94,0.64 -18.2 0 1 138.26,112.36 Q 139.71,111.67 140.70,110.40 A 0.92,0.80 -64.2 0 1 141.49,110.06 Q 144.60,110.56 144.94,113.81 Q 146.32,127.16 137.00,136.62 Q 134.96,138.69 135.16,135.79 Q 135.23,134.73 136.29,132.50 Z"/>
<path fill="#feb286" d="M 90.16,111.24 Q 91.02,113.96 89.44,111.25 A 0.88,0.61 53.5 0 1 89.41,110.36 Q 89.76,109.97 90.16,111.24 Z"/>
<path fill="#dd7d5d" d="M 107.75,110.29 Q 107.28,111.39 106.25,112.04 Q 105.71,110.33 107.75,110.29 Z"/>
<path fill="#ffffff" d="M 81.04,111.50 Q 80.94,114.01 78.54,112.75 Q 78.61,109.52 81.04,111.50 Z"/>
<path fill="#b36e2f" d="M 104.75,110.71 Q 105.21,111.68 106.00,112.29 L 104.50,116.50 Q 104.21,116.02 103.75,115.96 Q 104.58,114.97 104.55,113.82 Q 104.54,113.74 104.08,112.40 Q 103.74,111.42 104.75,110.71 Z"/>
<path fill="#ffffff" d="M 116.04,112.00 Q 115.58,113.63 113.75,112.96 Q 113.02,112.41 113.27,111.63 Q 113.47,111.02 114.14,110.81 Q 115.50,110.38 116.04,112.00 Z"/>
<path fill="#000000" d="M 81.04,111.50 Q 84.26,112.75 82.70,115.51 A 1.28,1.21 4.8 0 1 81.96,116.10 Q 77.99,117.36 78.54,112.75 Q 80.94,114.01 81.04,111.50 Z"/>
<path fill="#000000" d="M 116.04,112.00 Q 118.32,112.54 117.81,114.94 A 1.31,1.29 -12.5 0 1 117.29,115.74 Q 114.12,118.00 113.19,113.81 Q 113.02,113.05 113.75,112.96 Q 115.58,113.63 116.04,112.00 Z"/>
<path fill="#803b2d" d="M 142.21,113.25 L 139.56,115.68 A 0.72,0.61 55.2 0 0 139.48,116.51 Q 141.71,120.44 140.78,124.01 Q 140.24,126.07 140.25,123.74 Q 140.25,123.52 140.30,123.26 Q 140.82,120.56 139.69,118.31 Q 139.19,117.33 138.00,117.29 Q 137.53,116.62 137.79,115.75 Q 137.94,115.91 138.11,115.95 A 0.57,0.37 -64.7 0 0 138.61,115.64 Q 139.84,113.59 141.82,112.27 A 0.68,0.49 -33.6 0 1 142.65,112.30 Q 142.92,112.70 142.21,113.25 Z"/>
<path fill="#5c0202" d="M 57.96,116.00 Q 55.71,119.54 55.74,123.76 Q 55.74,124.27 55.59,123.78 Q 54.67,120.76 56.02,118.06 Q 56.83,116.44 56.65,115.64 Q 56.34,114.24 54.79,113.50 Q 52.50,111.23 55.46,113.06 Q 57.20,114.13 57.96,116.00 Z"/>
<path fill="#a2785e" d="M 62.25,114.96 L 61.54,115.00 Q 61.02,113.93 61.20,112.81 A 0.51,0.37 -72.7 0 1 61.79,112.37 Q 62.09,112.56 61.75,113.25 Q 61.29,114.19 62.25,114.96 Z"/>
<path fill="#feb286" d="M 103.50,115.96 Q 102.70,116.35 102.71,117.25 Q 101.19,122.68 103.00,128.01 Q 103.60,129.76 103.59,127.89 L 103.54,122.25 Q 110.29,133.23 123.00,131.00 Q 130.37,129.71 133.55,122.71 A 1.47,0.99 -9.4 0 1 134.22,122.08 Q 134.63,121.88 134.96,121.50 Q 134.96,123.41 134.25,127.00 Q 132.03,138.16 129.81,149.31 Q 129.03,153.24 126.60,156.73 Q 124.94,159.13 121.51,162.89 Q 118.25,166.48 114.21,169.25 Q 112.44,169.07 110.75,169.50 Q 108.00,170.21 105.44,168.98 A 0.41,0.36 18.5 0 0 104.87,169.22 L 104.76,170.00 Q 104.69,170.48 104.36,170.19 Q 103.47,169.42 103.08,168.29 A 0.88,0.80 83.9 0 0 102.44,167.72 Q 100.16,167.31 97.85,167.52 Q 97.71,167.53 95.29,167.46 Q 93.45,167.40 92.92,169.33 Q 92.65,170.31 92.40,169.78 Q 92.25,169.47 92.37,168.49 Q 92.46,167.69 91.83,168.20 Q 89.33,170.20 87.05,170.01 A 0.82,0.65 80.7 0 1 86.45,169.46 Q 86.13,168.49 85.20,168.80 Q 85.10,168.83 84.24,168.96 L 82.50,169.21 Q 81.78,169.17 80.56,168.19 Q 75.33,163.95 70.69,157.81 Q 66.75,152.61 65.73,146.60 Q 64.28,138.07 62.69,129.56 Q 61.57,123.61 61.71,121.25 Q 62.71,121.49 62.94,122.30 Q 63.16,123.09 63.18,123.15 Q 65.92,128.96 72.06,130.69 Q 80.73,133.12 88.19,127.94 Q 94.12,123.81 93.96,115.50 Q 94.27,115.08 94.72,114.86 Q 95.22,114.61 95.48,114.28 Q 96.70,112.73 98.62,112.88 Q 99.71,112.96 101.12,114.20 Q 102.23,115.17 103.50,115.96 ZM 128.21,132.05 Q 128.19,132.42 128.46,132.57 A 0.56,0.49 -64.6 0 0 129.19,132.25 Q 129.42,131.68 128.81,131.58 A 0.51,0.50 6.0 0 0 128.21,132.05 ZM 124.07,133.24 Q 121.43,133.39 124.16,133.66 A 0.27,0.21 -3.1 0 0 124.47,133.40 Q 124.41,133.22 124.07,133.24 ZM 92.25,139.71 Q 93.67,140.61 95.25,140.21 Q 98.18,143.54 101.29,140.25 Q 102.91,140.57 104.50,139.96 Q 109.41,140.06 107.00,135.73 Q 105.86,133.68 106.52,135.62 Q 107.78,139.27 105.37,138.78 Q 105.30,138.76 103.42,137.81 Q 101.67,136.92 100.25,139.04 Q 98.15,138.40 96.00,138.79 Q 94.39,136.81 92.73,137.88 Q 91.75,138.51 91.71,138.53 Q 88.70,139.92 89.95,135.26 Q 90.12,134.63 89.67,135.10 Q 89.18,135.62 88.80,136.49 Q 88.45,137.28 88.59,138.06 Q 89.10,140.83 92.25,139.71 ZM 116.81,146.19 A 3.20,0.63 -16.6 0 0 114.19,146.44 Q 98.50,150.49 82.80,146.56 Q 82.42,146.47 81.96,146.09 Q 80.97,145.25 79.82,146.10 Q 77.87,147.53 80.06,148.08 A 1.21,1.02 -3.7 0 1 80.80,148.63 Q 83.33,153.38 86.10,157.99 Q 88.55,162.07 91.10,163.39 Q 94.53,165.17 99.25,165.00 Q 106.86,164.72 110.21,158.97 Q 113.22,153.79 116.07,148.50 A 1.40,1.17 1.6 0 1 116.80,147.92 Q 118.64,147.28 116.81,146.19 Z"/>
<path fill="#dd7d5d" d="M 142.21,113.25 Q 144.50,123.38 138.48,131.71 Q 137.64,132.88 136.29,132.50 Q 135.87,131.56 136.18,130.65 Q 136.61,129.39 136.63,129.29 Q 137.69,123.34 138.00,117.29 Q 139.19,117.33 139.69,118.31 Q 140.82,120.56 140.30,123.26 Q 140.25,123.52 140.25,123.74 Q 140.24,126.07 140.78,124.01 Q 141.71,120.44 139.48,116.51 A 0.72,0.61 55.2 0 1 139.56,115.68 L 142.21,113.25 Z"/>
<path fill="#dd7d5d" d="M 54.79,113.50 Q 56.34,114.24 56.65,115.64 Q 56.83,116.44 56.02,118.06 Q 54.67,120.76 55.59,123.78 Q 55.74,124.27 55.74,123.76 Q 55.71,119.54 57.96,116.00 Q 58.23,116.38 58.75,116.29 Q 58.82,124.57 60.21,132.75 Q 57.86,131.92 56.25,128.75 Q 53.86,124.04 53.27,121.60 Q 52.20,117.18 54.79,113.50 Z"/>
<path fill="#a2785e" d="M 92.50,115.21 Q 91.97,115.45 91.96,116.00 Q 90.14,112.45 92.50,115.21 Z"/>
<path fill="#f4e8e2" d="M 62.96,114.75 Q 62.40,119.05 63.91,122.84 Q 65.18,126.01 68.47,127.91 Q 76.71,132.70 85.46,128.55 Q 89.25,126.76 90.82,124.09 Q 92.72,120.88 92.00,116.71 L 91.96,116.00 Q 91.97,115.45 92.50,115.21 Q 93.19,115.54 93.96,115.50 Q 94.12,123.81 88.19,127.94 Q 80.73,133.12 72.06,130.69 Q 65.92,128.96 63.18,123.15 Q 63.16,123.09 62.94,122.30 Q 62.71,121.49 61.71,121.25 L 61.54,115.00 L 62.25,114.96 L 62.96,114.75 Z"/>
<path fill="#f4e8e2" d="M 134.50,114.96 Q 135.41,118.16 134.96,121.50 Q 134.63,121.88 134.22,122.08 A 1.47,0.99 -9.4 0 0 133.55,122.71 Q 130.37,129.71 123.00,131.00 Q 110.29,133.23 103.54,122.25 L 102.71,117.25 Q 102.70,116.35 103.50,115.96 L 103.75,115.96 Q 104.21,116.02 104.50,116.50 Q 103.66,120.79 105.94,124.06 Q 108.77,128.13 113.21,129.41 Q 116.90,130.48 121.84,130.02 Q 132.50,129.03 133.95,116.99 Q 133.98,116.68 133.82,116.04 Q 133.60,115.21 134.50,114.96 Z"/>
<path fill="#803b2d" d="M 102.71,117.25 L 103.54,122.25 L 103.59,127.89 Q 103.60,129.76 103.00,128.01 Q 101.19,122.68 102.71,117.25 Z"/>
<path fill="#dd7d5d" d="M 90.09,120.11 Q 90.52,119.25 90.85,120.03 A 1.07,0.90 -43.7 0 1 90.75,120.94 Q 89.38,123.20 86.80,124.07 Q 85.50,124.50 86.54,123.62 Q 88.09,122.31 89.69,120.68 Q 89.90,120.48 90.09,120.11 Z"/>
<path fill="#dd7d5d" d="M 108.81,122.94 Q 109.49,123.21 110.15,124.10 Q 110.69,124.82 109.86,124.46 Q 107.80,123.56 106.39,121.87 Q 105.79,121.15 106.15,120.46 Q 106.39,119.99 106.68,120.50 Q 107.89,122.56 108.81,122.94 Z"/>
<path fill="#dd7d5d" d="M 128.81,131.58 Q 129.42,131.68 129.19,132.25 A 0.56,0.49 -64.6 0 1 128.46,132.57 Q 128.19,132.42 128.21,132.05 A 0.51,0.50 6.0 0 1 128.81,131.58 Z"/>
<path fill="#dd7d5d" d="M 124.07,133.24 Q 124.41,133.22 124.47,133.40 A 0.27,0.21 -3.1 0 1 124.16,133.66 Q 121.43,133.39 124.07,133.24 Z"/>
<path fill="#803b2d" d="M 96.00,138.79 Q 97.82,142.73 100.25,139.04 Q 101.67,136.92 103.42,137.81 Q 105.30,138.76 105.37,138.78 Q 107.78,139.27 106.52,135.62 Q 105.86,133.68 107.00,135.73 Q 109.41,140.06 104.50,139.96 Q 102.36,137.08 101.29,140.25 Q 98.18,143.54 95.25,140.21 Q 94.12,137.17 92.25,139.71 Q 89.10,140.83 88.59,138.06 Q 88.45,137.28 88.80,136.49 Q 89.18,135.62 89.67,135.10 Q 90.12,134.63 89.95,135.26 Q 88.70,139.92 91.71,138.53 Q 91.75,138.51 92.73,137.88 Q 94.39,136.81 96.00,138.79 Z"/>
<path fill="#dd7d5d" d="M 95.25,140.21 Q 93.67,140.61 92.25,139.71 Q 94.12,137.17 95.25,140.21 Z"/>
<path fill="#dd7d5d" d="M 100.25,139.04 Q 97.82,142.73 96.00,138.79 Q 98.15,138.40 100.25,139.04 Z"/>
<path fill="#dd7d5d" d="M 104.50,139.96 Q 102.91,140.57 101.29,140.25 Q 102.36,137.08 104.50,139.96 Z"/>
<path fill="#000000" d="M 116.81,146.19 Q 118.64,147.28 116.80,147.92 A 1.40,1.17 1.6 0 0 116.07,148.50 Q 113.22,153.79 110.21,158.97 Q 106.86,164.72 99.25,165.00 Q 94.53,165.17 91.10,163.39 Q 88.55,162.07 86.10,157.99 Q 83.33,153.38 80.80,148.63 A 1.21,1.02 -3.7 0 0 80.06,148.08 Q 77.87,147.53 79.82,146.10 Q 80.97,145.25 81.96,146.09 Q 82.42,146.47 82.80,146.56 Q 98.50,150.49 114.19,146.44 A 3.20,0.63 -16.6 0 1 116.81,146.19 ZM 84.50,150.79 Q 84.36,151.50 85.00,151.79 Q 86.48,156.71 89.96,160.50 Q 91.87,162.71 96.00,163.25 Q 102.86,164.15 107.25,160.46 Q 110.33,156.50 111.75,152.75 Q 112.00,152.09 111.50,151.29 Q 113.41,150.56 113.65,148.81 A 0.37,0.35 -2.5 0 0 113.20,148.42 Q 98.21,151.82 83.11,148.22 Q 82.28,148.02 82.71,148.75 Q 83.46,150.04 84.50,150.79 Z"/>
<path fill="#ffffff" d="M 111.50,151.29 L 109.75,151.54 Q 107.48,151.09 105.75,152.46 Q 98.00,152.98 90.25,152.46 L 84.50,150.79 Q 83.46,150.04 82.71,148.75 Q 82.28,148.02 83.11,148.22 Q 98.21,151.82 113.20,148.42 A 0.37,0.35 -2.5 0 1 113.65,148.81 Q 113.41,150.56 111.50,151.29 Z"/>
<path fill="#a2785e" d="M 84.50,150.79 L 90.25,152.46 Q 87.58,152.72 85.00,151.79 Q 84.36,151.50 84.50,150.79 Z"/>
<path fill="#5c0202" d="M 111.50,151.29 Q 112.00,152.09 111.75,152.75 Q 110.33,156.50 107.25,160.46 L 89.96,160.50 Q 86.48,156.71 85.00,151.79 Q 87.58,152.72 90.25,152.46 Q 98.00,152.98 105.75,152.46 Q 107.90,152.64 109.75,151.54 L 111.50,151.29 Z"/>
<path fill="#a2785e" d="M 109.75,151.54 Q 107.90,152.64 105.75,152.46 Q 107.48,151.09 109.75,151.54 Z"/>
<path fill="#ffffff" d="M 107.25,160.46 Q 102.86,164.15 96.00,163.25 Q 91.87,162.71 89.96,160.50 L 107.25,160.46 Z"/>
<path fill="#354435" d="M 92.19,183.81 Q 90.15,181.78 88.95,184.29 A 0.57,0.54 -67.5 0 1 88.28,184.59 Q 77.09,180.67 67.10,175.47 A 1.94,1.54 -82.5 0 1 66.23,174.02 L 65.75,168.73 Q 65.54,166.54 66.93,165.75 Q 68.80,164.67 71.03,164.12 Q 72.50,163.75 69.88,166.78 A 0.96,0.95 -48.7 0 0 69.96,168.11 Q 73.85,171.60 78.36,173.59 Q 85.36,176.69 91.61,181.09 Q 95.04,183.50 97.12,187.30 A 0.53,0.53 47.4 0 0 98.02,187.34 Q 100.22,184.10 103.10,182.12 Q 112.82,175.40 123.38,170.09 Q 125.16,169.19 125.70,168.38 Q 126.85,166.64 124.44,165.06 Q 122.22,163.61 124.75,164.00 Q 127.37,164.40 129.05,165.75 Q 130.47,166.89 130.27,169.13 L 129.97,172.56 Q 129.77,174.87 128.20,175.68 Q 120.13,179.84 111.05,182.99 A 2.70,2.69 -39.5 0 1 108.81,182.78 Q 106.82,181.63 106.11,183.97 A 4.13,3.74 -9.5 0 1 104.38,186.16 L 98.89,189.55 A 2.00,1.75 -42.7 0 1 96.85,189.60 L 92.65,186.81 A 0.61,0.52 -61.2 0 1 92.50,186.07 Q 93.15,184.77 92.19,183.81 Z"/>
<path fill="#272b2b" d="M 74.32,166.29 Q 75.93,167.45 76.80,168.91 Q 78.09,171.07 76.01,169.76 L 72.45,167.50 A 0.81,0.78 -69.3 0 1 72.10,166.69 Q 72.26,165.72 73.20,165.80 Q 73.71,165.84 74.32,166.29 Z"/>
<path fill="#272b2b" d="M 121.39,166.90 Q 121.66,166.15 122.76,166.02 A 1.07,1.00 -23.2 0 1 123.62,166.33 Q 124.60,167.37 122.81,168.06 Q 122.29,168.27 121.12,169.12 Q 120.61,169.49 120.18,169.58 Q 118.73,169.88 120.76,167.87 Q 121.18,167.45 121.39,166.90 Z"/>
<path fill="#191b1b" d="M 114.21,169.25 Q 111.25,172.69 108.50,174.75 Q 99.34,181.60 90.06,176.08 Q 88.96,175.43 86.77,173.55 Q 85.18,172.19 83.47,170.98 A 1.07,0.80 -77.2 0 1 83.12,170.20 Q 83.10,169.53 82.50,169.21 L 84.24,168.96 Q 85.10,168.83 85.20,168.80 Q 86.13,168.49 86.45,169.46 A 0.82,0.65 80.7 0 0 87.05,170.01 Q 89.33,170.20 91.83,168.20 Q 92.46,167.69 92.37,168.49 Q 92.25,169.47 92.40,169.78 Q 92.65,170.31 92.92,169.33 Q 93.45,167.40 95.29,167.46 Q 97.71,167.53 97.85,167.52 Q 100.16,167.31 102.44,167.72 A 0.88,0.80 83.9 0 1 103.08,168.29 Q 103.47,169.42 104.36,170.19 Q 104.69,170.48 104.76,170.00 L 104.87,169.22 A 0.41,0.36 18.5 0 1 105.44,168.98 Q 108.00,170.21 110.75,169.50 Q 112.44,169.07 114.21,169.25 Z"/>
<path fill="#f4e8e2" d="M 80.31,171.69 Q 87.23,176.73 80.00,172.68 A 1.72,1.50 4.1 0 1 79.32,172.00 Q 78.51,170.37 80.31,171.69 Z"/>
<path fill="#a2785e" d="M 115.24,172.61 Q 114.10,172.74 115.46,171.93 Q 118.36,170.18 115.80,172.36 A 1.13,1.04 -66.7 0 1 115.24,172.61 Z"/>
<path fill="#354435" d="M 91.25,189.96 Q 84.18,189.86 75.19,187.31 Q 63.07,183.88 54.21,178.50 Q 54.59,177.50 55.44,177.19 Q 58.82,175.92 63.01,175.32 A 0.98,0.89 62.8 0 1 63.83,175.63 Q 65.47,177.46 68.06,178.69 Q 77.84,183.31 88.04,186.87 Q 89.39,187.35 90.22,188.32 Q 90.66,188.85 90.85,188.18 Q 91.07,187.40 91.31,187.18 Q 91.78,186.76 91.76,187.76 Q 91.73,188.90 91.25,189.96 Z"/>
<path fill="#354435" d="M 142.04,178.25 Q 126.30,187.73 108.00,189.96 Q 107.24,187.19 110.25,186.00 Q 119.98,182.15 129.44,177.69 Q 130.76,177.06 132.07,175.48 A 0.80,0.80 27.6 0 1 132.90,175.22 Q 135.46,175.95 138.00,176.20 Q 140.47,176.44 142.04,178.25 Z"/>
<path fill="#feb286" d="M 95.27,180.91 L 100.20,181.05 Q 100.78,181.06 100.40,181.47 L 97.87,184.22 A 0.52,0.49 -42.2 0 1 97.09,184.21 L 95.00,181.35 Q 94.66,180.89 95.27,180.91 Z"/>
<path fill="#272b2b" d="M 106.68,186.95 Q 106.76,186.81 106.77,186.98 Q 106.90,188.93 106.36,188.61 A 0.61,0.58 -59.2 0 1 106.17,187.78 L 106.68,186.95 Z"/>
<path fill="#272b2b" d="M 105.25,189.96 L 101.00,190.46 Q 100.85,190.31 100.80,190.14 A 0.46,0.34 -17.4 0 1 101.12,189.70 Q 102.47,189.21 103.78,188.66 Q 105.46,187.95 105.25,189.96 Z"/>
</svg>
