<?xml version="1.0" encoding="UTF-8" standalone="no"?>
<!DOCTYPE svg PUBLIC "-//W3C//DTD SVG 1.1//EN" "http://www.w3.org/Graphics/SVG/1.1/DTD/svg11.dtd">
<svg xmlns="http://www.w3.org/2000/svg" version="1.1" viewBox="0 0 199 199">
<path fill="#000000" d="M 142.04,178.25 Q 140.47,176.44 138.01,176.16 Q 135.48,175.87 133.02,175.25 A 0.94,0.92 -59.6 0 0 132.16,175.48 Q 129.76,177.79 127.32,178.90 Q 118.59,182.84 109.66,186.31 Q 108.43,186.79 108.07,187.53 Q 107.55,188.59 108.25,189.79 Q 104.24,189.94 100.25,190.44 Q 97.89,190.74 95.76,190.48 Q 93.50,190.22 91.25,189.96 Q 92.29,188.40 90.82,188.40 A 1.38,1.38 64.6 0 1 89.95,188.09 Q 89.05,187.35 87.25,186.75 Q 79.58,184.20 67.83,178.65 Q 65.77,177.68 63.96,175.83 A 1.17,1.16 -23.6 0 0 63.09,175.49 Q 59.70,175.62 56.83,176.76 Q 56.74,176.79 55.63,177.08 Q 54.59,177.36 54.21,178.50 Q 51.49,178.43 51.86,176.98 Q 52.07,176.18 53.18,175.52 Q 57.45,172.99 61.57,172.95 Q 63.58,172.93 63.19,170.96 Q 62.49,167.42 63.80,165.11 Q 64.64,163.61 67.20,162.57 Q 69.36,161.69 71.30,161.12 A 0.81,0.80 -30.5 0 0 71.65,159.78 Q 63.81,151.92 62.73,141.30 A 0.96,0.94 -78.7 0 0 62.25,140.56 Q 60.91,139.82 59.49,139.23 Q 57.91,138.58 56.98,137.60 Q 47.53,127.72 49.00,114.00 Q 49.65,107.95 55.75,107.29 A 1.26,1.02 58.1 0 1 56.62,107.59 Q 58.00,108.76 58.02,106.89 Q 58.03,106.43 57.88,105.62 Q 55.55,92.94 58.44,80.94 Q 59.01,78.58 59.07,76.49 Q 59.18,73.44 59.62,72.10 Q 60.38,69.82 61.52,67.69 Q 61.94,66.91 63.45,65.19 Q 64.26,64.26 65.44,62.69 Q 70.89,55.42 78.19,51.44 Q 79.44,50.76 81.26,50.94 A 1.34,1.25 28.5 0 0 82.15,50.71 Q 85.52,48.27 87.00,48.25 Q 97.13,48.13 107.25,47.75 Q 110.09,47.64 115.81,50.44 Q 119.99,52.47 126.22,56.79 Q 126.29,56.83 129.38,58.37 Q 131.31,59.33 132.10,61.53 Q 132.27,62.01 132.63,62.34 Q 136.75,66.13 137.25,71.69 Q 137.26,71.80 137.79,74.10 Q 138.09,75.39 137.34,76.65 A 1.18,1.03 -39.8 0 0 137.20,77.54 Q 141.30,92.14 138.00,107.02 Q 137.57,108.94 139.22,107.86 Q 141.26,106.51 143.50,108.00 Q 146.36,109.90 146.91,112.02 Q 148.76,119.12 146.40,126.09 Q 144.00,133.16 138.81,138.56 Q 138.12,139.28 134.68,140.08 A 0.96,0.92 3.8 0 0 134.00,140.65 Q 133.39,142.21 133.15,143.85 Q 132.78,146.34 132.55,147.09 Q 130.19,154.66 124.36,160.16 A 0.35,0.35 -54.0 0 0 124.45,160.73 Q 126.37,161.69 128.43,162.33 Q 134.09,164.09 133.00,170.00 Q 132.43,173.09 134.79,173.13 Q 137.13,173.18 137.21,173.19 Q 141.58,173.97 143.50,175.50 Q 146.36,177.78 142.04,178.25 ZM 61.96,73.00 Q 60.23,75.73 62.29,78.25 Q 60.30,83.19 60.04,88.50 Q 59.25,97.92 60.84,107.83 Q 61.17,109.86 62.60,108.38 Q 64.97,105.93 69.01,104.87 A 1.77,1.75 13.9 0 0 69.83,104.38 Q 74.47,99.43 81.75,100.00 Q 85.04,100.26 87.47,100.83 Q 89.85,101.39 90.17,101.52 Q 91.60,102.12 92.22,103.67 Q 93.14,105.98 90.76,105.25 Q 85.49,103.63 80.00,103.25 Q 75.98,102.97 73.46,104.04 Q 72.97,104.25 73.49,104.27 Q 82.91,104.70 92.00,107.29 Q 92.22,108.94 93.46,110.25 Q 93.62,111.16 94.14,111.92 A 1.46,1.34 31.6 0 1 94.39,112.80 Q 94.28,114.55 95.47,112.91 A 0.50,0.44 35.5 0 0 95.32,112.26 Q 94.65,111.78 95.33,111.26 A 0.54,0.44 52.8 0 1 96.01,111.43 Q 96.74,112.42 98.04,111.95 A 1.45,1.43 -45.3 0 1 98.96,111.94 Q 100.16,112.35 100.80,111.50 A 0.72,0.49 -56.3 0 1 101.53,111.21 Q 102.32,111.60 101.60,112.56 A 0.56,0.55 -50.6 0 0 101.67,113.31 Q 102.79,114.32 102.75,113.00 Q 102.73,112.21 103.29,110.25 Q 104.76,109.07 104.25,107.29 Q 112.51,105.11 120.97,104.10 A 0.72,0.47 2.8 0 0 121.50,103.79 Q 121.59,103.57 121.47,103.41 Q 121.34,103.25 120.98,103.24 Q 113.07,102.88 105.48,105.26 A 1.08,1.07 82.9 0 1 104.09,104.17 Q 104.20,102.24 106.49,101.46 Q 111.72,99.67 117.25,100.00 Q 121.65,100.26 124.53,102.50 Q 126.66,104.14 127.99,104.77 Q 131.40,106.35 134.36,108.69 A 0.33,0.33 -63.5 0 0 134.88,108.51 Q 137.08,99.77 136.71,90.75 Q 136.38,85.24 134.71,80.00 Q 133.73,77.33 135.20,75.16 A 1.23,0.75 64.1 0 0 135.28,74.30 L 134.71,72.00 Q 134.92,70.10 133.67,68.78 A 1.33,1.27 23.1 0 1 133.31,67.94 Q 133.21,65.49 130.91,64.70 A 0.91,0.89 2.7 0 1 130.33,64.08 Q 129.87,62.22 128.55,60.90 A 1.92,1.00 -0.8 0 0 127.69,60.47 Q 126.44,60.17 125.56,59.19 Q 124.45,57.96 123.19,57.99 A 2.16,2.14 68.0 0 1 121.56,57.29 Q 119.53,55.02 117.56,54.73 A 1.10,1.04 -11.5 0 1 116.81,54.26 Q 115.57,52.40 113.31,52.41 A 0.98,0.95 70.1 0 1 112.53,52.03 Q 111.41,50.62 109.49,50.90 A 1.41,1.35 -33.8 0 1 108.58,50.74 Q 106.75,49.73 104.93,50.74 A 1.10,1.04 -47.9 0 1 104.04,50.81 Q 101.87,50.01 99.72,50.81 A 1.29,1.28 -43.6 0 1 98.79,50.79 Q 96.73,49.98 94.71,50.79 A 1.29,1.28 43.6 0 1 93.78,50.81 Q 92.26,50.29 90.72,50.81 Q 90.23,50.98 89.76,50.89 Q 86.45,50.27 84.51,52.14 Q 83.14,53.45 81.25,53.48 Q 78.84,53.52 77.85,54.66 Q 77.44,55.13 77.13,55.31 Q 71.84,58.28 70.19,60.69 Q 68.40,63.29 67.43,64.24 Q 67.06,64.60 66.88,65.04 Q 66.02,67.15 64.11,68.42 A 1.73,1.19 -87.2 0 0 63.55,69.16 L 61.96,73.00 ZM 103.75,115.96 Q 103.49,115.91 103.29,115.75 L 100.33,113.39 A 1.21,0.33 42.5 0 0 99.50,112.96 L 96.79,113.19 A 1.28,0.67 -62.4 0 0 96.03,113.72 Q 95.15,114.89 93.75,115.46 L 93.25,115.54 Q 91.59,114.74 91.00,112.50 Q 90.76,111.59 89.98,111.64 A 0.37,0.34 71.7 0 0 89.73,112.19 L 91.96,116.00 L 92.04,116.50 Q 85.90,121.42 78.25,120.75 Q 71.12,120.13 67.55,113.99 A 0.45,0.34 -27.4 0 1 67.80,113.46 L 69.11,112.83 A 0.75,0.49 71.1 0 0 69.31,112.03 Q 69.05,111.18 69.89,111.14 Q 70.63,111.11 70.95,111.01 Q 73.89,110.02 77.00,110.01 Q 82.50,110.00 88.00,110.09 Q 88.58,110.10 88.54,109.50 Q 88.77,108.99 89.25,108.96 Q 91.44,110.30 91.98,112.72 A 1.18,0.69 88.8 0 0 92.43,113.46 Q 92.92,113.73 92.99,113.09 Q 93.02,112.79 92.86,112.43 Q 90.78,107.86 84.94,106.81 Q 78.01,105.57 74.50,105.71 Q 69.86,105.56 66.25,107.00 Q 62.65,108.44 63.29,112.25 L 64.04,113.25 L 62.96,114.75 L 62.25,114.96 Q 61.29,114.19 61.75,113.25 Q 62.09,112.56 61.79,112.37 A 0.51,0.37 -72.7 0 0 61.20,112.81 Q 61.02,113.93 61.54,115.00 L 61.79,121.75 Q 61.75,125.49 63.00,130.25 Q 63.89,133.65 66.24,145.55 Q 67.19,150.41 71.69,155.81 Q 75.33,160.19 79.77,163.75 Q 80.52,164.35 81.50,164.29 Q 81.24,165.15 82.44,166.06 Q 84.93,167.95 87.39,169.87 Q 96.79,177.22 107.19,171.19 Q 109.10,170.08 113.97,166.09 Q 114.02,166.05 114.71,165.64 Q 115.40,165.24 115.25,164.29 Q 118.88,162.20 123.81,156.81 Q 128.84,151.33 130.02,145.80 Q 132.24,135.40 134.50,125.00 Q 134.99,122.74 134.79,121.75 Q 135.11,118.88 135.07,116.00 Q 135.06,114.72 133.79,114.75 Q 132.39,114.00 132.25,112.75 Q 131.88,109.53 129.21,108.25 Q 129.48,107.88 130.00,107.96 Q 132.05,108.97 132.67,111.07 Q 132.91,111.88 133.22,112.18 Q 134.04,112.96 133.30,109.84 A 2.44,2.40 9.4 0 0 132.20,108.33 Q 126.67,104.97 121.68,105.28 Q 114.97,105.70 108.52,107.58 Q 106.74,108.10 105.65,109.50 Q 105.55,109.63 104.56,110.74 Q 103.53,111.88 104.46,113.35 A 1.23,0.89 42.7 0 1 104.64,114.24 Q 104.39,115.18 103.75,115.96 ZM 60.50,132.71 Q 58.83,124.56 58.71,116.25 Q 59.58,113.71 58.17,112.31 Q 57.12,111.27 55.59,110.38 Q 54.01,109.45 52.71,111.11 Q 52.01,112.01 51.77,113.58 Q 50.02,125.01 57.08,134.04 Q 57.81,134.96 58.66,135.74 Q 63.48,140.10 60.50,132.71 ZM 60.81,110.16 Q 54.71,110.21 60.76,110.89 A 0.71,0.52 12.8 0 0 61.44,110.59 Q 61.65,110.15 60.81,110.16 ZM 139.1300,110.4917 A 2.23,0.54 0.3 0 0 136.9028,109.9400 A 2.23,0.54 0.3 0 0 134.6700,110.4683 A 2.23,0.54 0.3 0 0 136.8972,111.0200 A 2.23,0.54 0.3 0 0 139.1300,110.4917 ZM 137.79,116.00 Q 137.54,116.74 138.00,117.29 L 135.96,132.00 Q 135.58,132.26 135.79,132.75 Q 133.11,140.01 137.65,135.82 Q 138.51,135.03 139.24,134.10 Q 145.98,125.56 144.89,113.28 Q 144.71,111.24 142.85,110.38 Q 140.73,109.42 139.98,111.09 A 1.11,1.00 -85.0 0 1 139.34,111.69 Q 136.54,112.61 137.79,116.00 ZM 78.25,112.29 L 76.50,112.29 Q 72.74,111.96 71.21,115.04 A 0.81,0.78 39.6 0 0 71.31,115.90 Q 75.01,120.47 81.50,119.75 Q 86.37,119.21 89.66,116.86 A 0.76,0.73 -25.3 0 0 89.96,116.08 Q 89.09,112.43 85.25,112.29 L 83.04,112.26 A 0.32,0.31 76.5 0 0 82.76,112.73 Q 83.59,114.29 83.04,115.25 Q 82.59,116.02 81.19,116.30 Q 78.05,116.92 78.79,113.00 Q 81.26,113.49 80.76,112.42 A 0.77,0.67 71.4 0 0 79.99,111.97 L 78.25,112.29 ZM 121.00,163.96 L 118.42,165.67 A 1.14,1.08 63.2 0 0 118.02,167.01 Q 118.89,169.23 118.85,169.21 A 2.69,2.68 42.0 0 0 121.36,169.08 Q 125.40,166.66 122.40,165.69 Q 121.09,165.26 121.54,164.25 Q 122.67,164.59 123.80,164.95 Q 125.21,165.39 125.73,166.19 Q 126.75,167.74 124.94,169.19 Q 123.13,170.63 120.36,171.91 Q 112.29,175.64 104.97,180.68 Q 101.42,183.11 98.10,187.16 A 0.68,0.68 -40.7 0 1 97.00,187.08 Q 95.20,184.09 92.93,182.32 Q 85.95,176.90 77.87,173.31 Q 73.88,171.54 70.55,168.68 Q 68.61,167.01 70.56,165.35 Q 71.93,164.18 73.94,163.77 Q 74.76,163.61 74.25,163.24 Q 74.01,163.07 73.49,163.19 Q 70.72,163.87 67.54,165.52 Q 65.70,166.48 65.80,169.24 L 65.95,173.34 A 2.87,2.29 -80.6 0 0 67.25,175.66 Q 76.17,180.16 85.99,183.73 Q 86.09,183.76 87.43,184.43 Q 88.90,185.18 89.73,183.63 A 0.92,0.73 -72.9 0 1 90.44,183.14 Q 92.41,183.12 92.78,186.01 A 2.07,2.03 20.2 0 0 93.34,187.19 Q 95.53,189.48 98.01,189.72 A 1.56,1.25 -53.0 0 0 98.92,189.49 L 104.20,186.22 Q 105.56,185.39 106.10,183.92 Q 107.07,181.28 108.83,182.95 A 1.40,1.39 -32.5 0 0 110.24,183.26 Q 119.05,180.21 127.48,176.16 Q 129.55,175.18 129.70,173.46 L 130.21,167.83 A 2.72,2.15 18.5 0 0 128.69,165.50 Q 125.41,163.85 122.49,163.28 Q 121.44,163.07 121.00,163.96 ZM 78.20,165.95 Q 74.92,163.74 72.37,166.03 A 0.99,0.99 -44.2 0 0 72.35,167.49 Q 74.15,169.18 76.27,169.66 A 0.73,0.72 22.2 0 0 77.04,169.34 L 78.46,167.05 A 0.84,0.80 33.0 0 0 78.20,165.95 ZM 83.21,169.85 Q 80.08,167.04 79.15,171.69 A 0.73,0.67 -71.6 0 0 79.49,172.45 L 83.24,174.48 Q 83.72,174.74 83.44,174.27 Q 82.62,172.89 81.86,171.49 Q 81.46,170.76 81.53,170.32 Q 81.67,169.43 83.41,171.15 A 0.73,0.73 -51.4 0 0 84.55,171.02 Q 84.92,170.44 84.06,170.26 Q 83.53,170.14 83.21,169.85 ZM 114.66,169.92 Q 115.40,170.94 113.94,172.45 Q 112.92,173.51 114.31,173.06 Q 118.72,171.65 115.65,169.07 A 1.03,0.95 57.0 0 0 114.77,168.85 Q 113.00,169.30 112.00,170.82 Q 111.69,171.30 112.25,171.24 Q 113.47,171.12 114.10,170.02 A 0.36,0.31 -50.7 0 1 114.66,169.92 ZM 110.76,173.77 Q 109.03,173.05 107.60,173.75 Q 98.03,178.39 88.63,173.82 Q 87.89,173.45 87.29,173.38 Q 85.57,173.16 85.96,174.10 Q 86.15,174.58 86.89,175.06 Q 92.78,178.90 97.19,184.36 A 0.43,0.43 -43.0 0 0 97.84,184.38 Q 103.57,178.26 110.79,174.27 Q 111.29,173.99 110.76,173.77 Z"/>
<path fill="#393d3d" d="M 134.71,72.00 Q 132.32,69.37 131.44,67.56 Q 130.75,66.17 129.74,65.45 Q 129.31,65.15 129.09,64.74 Q 128.04,62.77 126.31,62.71 A 2.45,2.43 -11.4 0 1 124.17,61.30 Q 123.12,59.06 120.80,60.23 Q 118.95,61.16 118.32,59.18 Q 117.26,55.86 113.72,57.07 A 0.81,0.76 56.6 0 1 112.91,56.88 Q 111.73,55.70 110.06,55.67 A 1.31,1.23 -21.5 0 1 109.21,55.33 Q 107.00,53.23 104.04,53.93 A 2.03,1.11 -59.6 0 0 103.21,54.43 Q 101.43,56.13 99.40,54.79 A 1.23,0.56 40.7 0 0 98.50,54.53 L 96.18,55.25 Q 95.69,55.40 95.27,55.35 L 91.57,54.91 Q 90.93,54.83 90.66,54.66 Q 88.89,53.54 86.98,54.01 Q 86.49,54.12 85.36,54.97 Q 84.54,55.58 83.50,55.71 A 1.75,0.85 39.1 0 1 82.57,55.49 Q 81.14,54.77 79.90,55.89 Q 78.17,57.44 75.93,58.06 A 1.08,1.05 -84.8 0 0 75.25,58.64 Q 74.75,59.71 73.84,60.35 Q 72.05,61.61 71.80,61.87 Q 68.88,64.98 65.67,68.83 Q 65.01,69.62 64.70,70.60 Q 63.88,73.22 61.96,73.00 L 63.55,69.16 A 1.73,1.19 -87.2 0 1 64.11,68.42 Q 66.02,67.15 66.88,65.04 Q 67.06,64.60 67.43,64.24 Q 68.40,63.29 70.19,60.69 Q 71.84,58.28 77.13,55.31 Q 77.44,55.13 77.85,54.66 Q 78.84,53.52 81.25,53.48 Q 83.14,53.45 84.51,52.14 Q 86.45,50.27 89.76,50.89 Q 90.23,50.98 90.72,50.81 Q 92.26,50.29 93.78,50.81 A 1.29,1.28 43.6 0 0 94.71,50.79 Q 96.73,49.98 98.79,50.79 A 1.29,1.28 -43.6 0 0 99.72,50.81 Q 101.87,50.01 104.04,50.81 A 1.10,1.04 -47.9 0 0 104.93,50.74 Q 106.75,49.73 108.58,50.74 A 1.41,1.35 -33.8 0 0 109.49,50.90 Q 111.41,50.62 112.53,52.03 A 0.98,0.95 70.1 0 0 113.31,52.41 Q 115.57,52.40 116.81,54.26 A 1.10,1.04 -11.5 0 0 117.56,54.73 Q 119.53,55.02 121.56,57.29 A 2.16,2.14 68.0 0 0 123.19,57.99 Q 124.45,57.96 125.56,59.19 Q 126.44,60.17 127.69,60.47 A 1.92,1.00 -0.8 0 1 128.55,60.90 Q 129.87,62.22 130.33,64.08 A 0.91,0.89 2.7 0 0 130.91,64.70 Q 133.21,65.49 133.31,67.94 A 1.33,1.27 23.1 0 0 133.67,68.78 Q 134.92,70.10 134.71,72.00 Z"/>
<path fill="#272b2b" d="M 134.71,72.00 L 135.28,74.30 A 1.23,0.75 64.1 0 1 135.20,75.16 Q 133.73,77.33 134.71,80.00 L 132.04,78.75 Q 132.09,77.36 130.76,76.97 Q 122.19,74.49 113.25,74.13 Q 96.14,73.45 79.04,74.53 Q 75.54,74.75 72.50,75.36 Q 69.26,76.01 66.07,76.83 Q 63.91,77.39 64.04,79.75 Q 64.36,77.64 62.29,78.25 Q 60.23,75.73 61.96,73.00 Q 63.88,73.22 64.70,70.60 Q 65.01,69.62 65.67,68.83 Q 68.88,64.98 71.80,61.87 Q 72.05,61.61 73.84,60.35 Q 74.75,59.71 75.25,58.64 A 1.08,1.05 -84.8 0 1 75.93,58.06 Q 78.17,57.44 79.90,55.89 Q 81.14,54.77 82.57,55.49 A 1.75,0.85 39.1 0 0 83.50,55.71 Q 84.54,55.58 85.36,54.97 Q 86.49,54.12 86.98,54.01 Q 88.89,53.54 90.66,54.66 Q 90.93,54.83 91.57,54.91 L 95.27,55.35 Q 95.69,55.40 96.18,55.25 L 98.50,54.53 A 1.23,0.56 40.7 0 1 99.40,54.79 Q 101.43,56.13 103.21,54.43 A 2.03,1.11 -59.6 0 1 104.04,53.93 Q 107.00,53.23 109.21,55.33 A 1.31,1.23 -21.5 0 0 110.06,55.67 Q 111.73,55.70 112.91,56.88 A 0.81,0.76 56.6 0 0 113.72,57.07 Q 117.26,55.86 118.32,59.18 Q 118.95,61.16 120.80,60.23 Q 123.12,59.06 124.17,61.30 A 2.45,2.43 -11.4 0 0 126.31,62.71 Q 128.04,62.77 129.09,64.74 Q 129.31,65.15 129.74,65.45 Q 130.75,66.17 131.44,67.56 Q 132.32,69.37 134.71,72.00 ZM 91.31,56.69 Q 87.91,55.92 86.81,56.56 Q 86.23,56.91 86.09,57.45 A 0.45,0.43 4.7 0 0 86.56,57.98 L 91.19,57.78 A 0.85,0.65 3.0 0 0 91.95,57.26 Q 92.06,56.86 91.31,56.69 ZM 104.48,58.07 Q 106.73,58.08 108.94,57.76 A 0.42,0.39 -16.1 0 0 109.28,57.20 Q 108.89,56.38 107.75,56.53 Q 106.01,56.76 104.24,56.81 Q 103.79,56.82 103.43,57.04 Q 101.11,58.45 103.65,58.12 Q 104.09,58.07 104.48,58.07 ZM 97.70,58.48 Q 93.13,59.03 97.75,59.46 A 1.26,0.89 19.0 0 0 98.65,59.20 Q 99.12,58.74 98.42,58.52 Q 98.12,58.43 97.70,58.48 ZM 114.19,60.23 Q 114.93,60.55 115.69,60.50 Q 116.25,60.47 115.90,60.02 Q 114.48,58.16 112.47,59.51 A 0.53,0.44 -38.2 0 0 112.32,60.24 Q 112.70,60.64 113.34,60.28 A 0.98,0.90 -46.0 0 1 114.19,60.23 ZM 79.03,61.77 A 0.50,0.49 -24.9 0 0 79.32,61.00 Q 78.09,59.28 76.47,61.22 Q 75.24,62.70 79.03,61.77 ZM 123.13,62.72 A 1.55,1.54 -48.2 0 0 121.56,62.81 Q 120.41,63.59 121.39,63.68 Q 121.60,63.69 121.95,63.56 Q 122.38,63.40 122.80,63.53 Q 123.52,63.75 123.74,63.72 Q 124.82,63.59 123.13,62.72 Z"/>
<path fill="#393d3d" d="M 91.31,56.69 Q 92.06,56.86 91.95,57.26 A 0.85,0.65 3.0 0 1 91.19,57.78 L 86.56,57.98 A 0.45,0.43 4.7 0 1 86.09,57.45 Q 86.23,56.91 86.81,56.56 Q 87.91,55.92 91.31,56.69 Z"/>
<path fill="#393d3d" d="M 103.65,58.12 Q 101.11,58.45 103.43,57.04 Q 103.79,56.82 104.24,56.81 Q 106.01,56.76 107.75,56.53 Q 108.89,56.38 109.28,57.20 A 0.42,0.39 -16.1 0 1 108.94,57.76 Q 106.73,58.08 104.48,58.07 Q 104.09,58.07 103.65,58.12 Z"/>
<path fill="#393d3d" d="M 98.42,58.52 Q 99.12,58.74 98.65,59.20 A 1.26,0.89 19.0 0 1 97.75,59.46 Q 93.13,59.03 97.70,58.48 Q 98.12,58.43 98.42,58.52 Z"/>
<path fill="#393d3d" d="M 113.34,60.28 Q 112.70,60.64 112.32,60.24 A 0.53,0.44 -38.2 0 1 112.47,59.51 Q 114.48,58.16 115.90,60.02 Q 116.25,60.47 115.69,60.50 Q 114.93,60.55 114.19,60.23 A 0.98,0.90 -46.0 0 0 113.34,60.28 Z"/>
<path fill="#393d3d" d="M 79.03,61.77 Q 75.24,62.70 76.47,61.22 Q 78.09,59.28 79.32,61.00 A 0.50,0.49 -24.9 0 1 79.03,61.77 Z"/>
<path fill="#393d3d" d="M 123.13,62.72 Q 124.82,63.59 123.74,63.72 Q 123.52,63.75 122.80,63.53 Q 122.38,63.40 121.95,63.56 Q 121.60,63.69 121.39,63.68 Q 120.41,63.59 121.56,62.81 A 1.55,1.54 -48.2 0 1 123.13,62.72 Z"/>
<path fill="#000000" d="M 132.04,78.75 L 133.29,93.25 Q 133.32,93.84 133.16,94.01 Q 132.82,94.41 132.69,93.54 L 130.51,78.80 A 0.83,0.79 5.5 0 0 129.95,78.15 Q 124.28,76.28 117.25,75.75 Q 95.75,74.12 76.01,76.14 Q 71.17,76.63 66.76,77.92 A 1.69,1.65 -4.7 0 0 65.56,79.30 L 63.72,93.24 Q 63.52,94.76 63.25,93.26 Q 62.87,91.14 63.04,89.00 L 64.04,79.75 Q 63.91,77.39 66.07,76.83 Q 69.26,76.01 72.50,75.36 Q 75.54,74.75 79.04,74.53 Q 96.14,73.45 113.25,74.13 Q 122.19,74.49 130.76,76.97 Q 132.09,77.36 132.04,78.75 Z"/>
<path fill="#feb286" d="M 133.29,93.25 L 133.57,91.55 A 0.58,0.56 -88.5 0 1 134.06,91.07 L 136.71,90.75 Q 137.08,99.77 134.88,108.51 A 0.33,0.33 -63.5 0 1 134.36,108.69 Q 131.40,106.35 127.99,104.77 Q 126.66,104.14 124.53,102.50 Q 121.65,100.26 117.25,100.00 Q 111.72,99.67 106.49,101.46 Q 104.20,102.24 104.09,104.17 A 1.08,1.07 82.9 0 0 105.48,105.26 Q 113.07,102.88 120.98,103.24 Q 121.34,103.25 121.47,103.41 Q 121.59,103.57 121.50,103.79 A 0.72,0.47 2.8 0 1 120.97,104.10 Q 112.51,105.11 104.25,107.29 Q 98.13,108.03 92.00,107.29 Q 82.91,104.70 73.49,104.27 Q 72.97,104.25 73.46,104.04 Q 75.98,102.97 80.00,103.25 Q 85.49,103.63 90.76,105.25 Q 93.14,105.98 92.22,103.67 Q 91.60,102.12 90.17,101.52 Q 89.85,101.39 87.47,100.83 Q 85.04,100.26 81.75,100.00 Q 74.47,99.43 69.83,104.38 A 1.77,1.75 13.9 0 1 69.01,104.87 Q 64.97,105.93 62.60,108.38 Q 61.17,109.86 60.84,107.83 Q 59.25,97.92 60.04,88.50 L 61.50,88.50 Q 61.75,88.50 62.43,88.26 Q 63.04,88.04 63.04,89.00 Q 62.87,91.14 63.25,93.26 Q 63.52,94.76 63.72,93.24 L 65.56,79.30 A 1.69,1.65 -4.7 0 1 66.76,77.92 Q 71.17,76.63 76.01,76.14 Q 95.75,74.12 117.25,75.75 Q 124.28,76.28 129.95,78.15 A 0.83,0.79 5.5 0 1 130.51,78.80 L 132.69,93.54 Q 132.82,94.41 133.16,94.01 Q 133.32,93.84 133.29,93.25 Z"/>
<path fill="#99725b" d="M 62.29,78.25 Q 64.36,77.64 64.04,79.75 L 63.04,89.00 Q 63.04,88.04 62.43,88.26 Q 61.75,88.50 61.50,88.50 L 60.04,88.50 Q 60.30,83.19 62.29,78.25 Z"/>
<path fill="#99725b" d="M 132.04,78.75 L 134.71,80.00 Q 136.38,85.24 136.71,90.75 L 134.06,91.07 A 0.58,0.56 -88.5 0 0 133.57,91.55 L 133.29,93.25 L 132.04,78.75 Z"/>
<path fill="#ed9872" d="M 130.00,107.96 Q 126.74,106.09 122.00,106.50 Q 113.11,107.26 108.25,108.50 Q 106.85,108.85 106.50,110.21 Q 105.24,110.74 105.20,111.76 A 0.38,0.34 -10.1 0 0 105.71,112.07 Q 107.79,111.30 106.49,112.74 Q 106.23,113.03 106.07,113.32 Q 105.21,114.85 104.50,116.46 L 104.29,116.50 Q 104.33,115.92 103.75,115.96 Q 104.39,115.18 104.64,114.24 A 1.23,0.89 42.7 0 0 104.46,113.35 Q 103.53,111.88 104.56,110.74 Q 105.55,109.63 105.65,109.50 Q 106.74,108.10 108.52,107.58 Q 114.97,105.70 121.68,105.28 Q 126.67,104.97 132.20,108.33 A 2.44,2.40 9.4 0 1 133.30,109.84 Q 134.04,112.96 133.22,112.18 Q 132.91,111.88 132.67,111.07 Q 132.05,108.97 130.00,107.96 Z"/>
<path fill="#ed9872" d="M 89.25,108.96 Q 84.48,106.96 79.25,106.96 Q 76.58,107.15 74.50,105.71 Q 78.01,105.57 84.94,106.81 Q 90.78,107.86 92.86,112.43 Q 93.02,112.79 92.99,113.09 Q 92.92,113.73 92.43,113.46 A 1.18,0.69 88.8 0 1 91.98,112.72 Q 91.44,110.30 89.25,108.96 Z"/>
<path fill="#b5702e" d="M 74.50,105.71 Q 76.58,107.15 79.25,106.96 L 75.25,107.54 L 70.25,107.54 Q 69.96,106.87 69.25,106.97 Q 65.97,107.42 64.26,110.07 A 1.55,0.90 69.7 0 0 64.10,110.98 Q 64.21,111.95 63.29,112.25 Q 62.65,108.44 66.25,107.00 Q 69.86,105.56 74.50,105.71 Z"/>
<path fill="#5c2f1d" d="M 130.00,107.96 Q 129.48,107.88 129.21,108.25 Q 118.30,106.26 108.31,109.31 Q 107.82,109.46 107.75,110.21 Q 107.04,110.67 106.50,110.21 Q 106.85,108.85 108.25,108.50 Q 113.11,107.26 122.00,106.50 Q 126.74,106.09 130.00,107.96 Z"/>
<path fill="#5c2f1d" d="M 70.25,107.54 Q 65.00,108.09 64.04,113.25 L 63.29,112.25 Q 64.21,111.95 64.10,110.98 A 1.55,0.90 69.7 0 1 64.26,110.07 Q 65.97,107.42 69.25,106.97 Q 69.96,106.87 70.25,107.54 Z"/>
<path fill="#5c2f1d" d="M 79.25,106.96 Q 84.48,106.96 89.25,108.96 Q 88.77,108.99 88.54,109.50 Q 82.07,107.55 75.25,107.54 L 79.25,106.96 Z"/>
<path fill="#5c2f1d" d="M 92.00,107.29 Q 98.13,108.03 104.25,107.29 Q 104.76,109.07 103.29,110.25 Q 102.73,109.95 102.10,109.94 Q 101.67,109.94 100.98,110.32 Q 98.36,111.77 95.56,110.19 Q 94.57,109.63 93.46,110.25 Q 92.22,108.94 92.00,107.29 Z"/>
<path fill="#feb286" d="M 70.25,107.54 L 75.25,107.54 Q 82.07,107.55 88.54,109.50 Q 88.58,110.10 88.00,110.09 Q 82.50,110.00 77.00,110.01 Q 73.89,110.02 70.95,111.01 Q 70.63,111.11 69.89,111.14 Q 69.05,111.18 69.31,112.03 A 0.75,0.49 71.1 0 1 69.11,112.83 L 67.80,113.46 A 0.45,0.34 -27.4 0 0 67.55,113.99 Q 71.12,120.13 78.25,120.75 Q 85.90,121.42 92.04,116.50 Q 92.40,117.59 92.22,118.67 Q 91.95,120.37 91.92,120.75 Q 91.67,124.43 88.81,126.56 Q 84.52,129.76 79.28,130.28 Q 73.97,130.80 69.59,128.67 Q 61.96,124.98 62.96,114.75 L 64.04,113.25 Q 65.00,108.09 70.25,107.54 ZM 89.32,121.32 Q 88.04,122.66 86.62,123.77 Q 85.58,124.58 86.80,124.07 Q 89.42,122.97 90.98,120.67 A 0.40,0.36 -65.3 0 0 90.79,120.07 Q 90.20,119.94 89.89,120.44 Q 89.37,121.27 89.32,121.32 Z"/>
<path fill="#feb286" d="M 129.21,108.25 Q 131.88,109.53 132.25,112.75 Q 132.39,114.00 133.79,114.75 Q 134.80,126.73 123.45,129.56 Q 112.61,132.26 106.06,124.44 Q 103.51,121.39 104.29,116.50 L 104.50,116.46 Q 111.09,122.11 119.75,120.48 Q 125.90,119.32 128.94,114.00 A 0.34,0.33 19.3 0 0 128.69,113.51 Q 126.92,113.25 127.08,111.81 A 0.57,0.50 -80.6 0 0 126.70,111.20 Q 117.33,109.16 107.75,110.21 Q 107.82,109.46 108.31,109.31 Q 118.30,106.26 129.21,108.25 ZM 106.32,120.70 Q 105.12,119.58 105.99,120.99 Q 107.26,123.04 109.65,124.16 Q 110.47,124.55 109.81,123.93 L 106.32,120.70 Z"/>
<path fill="#feb286" d="M 58.71,116.25 Q 58.21,116.40 57.96,116.00 Q 57.16,114.02 55.32,112.92 Q 52.57,111.29 54.79,113.50 Q 52.39,116.92 53.50,121.75 Q 55.00,128.29 58.95,132.33 A 1.20,0.80 -17.2 0 0 59.80,132.58 Q 60.17,132.55 60.50,132.71 Q 63.48,140.10 58.66,135.74 Q 57.81,134.96 57.08,134.04 Q 50.02,125.01 51.77,113.58 Q 52.01,112.01 52.71,111.11 Q 54.01,109.45 55.59,110.38 Q 57.12,111.27 58.17,112.31 Q 59.58,113.71 58.71,116.25 Z"/>
<path fill="#ed9872" d="M 60.81,110.16 Q 61.65,110.15 61.44,110.59 A 0.71,0.52 12.8 0 1 60.76,110.89 Q 54.71,110.21 60.81,110.16 Z"/>
<path fill="#feb286" d="M 103.29,110.25 Q 102.73,112.21 102.75,113.00 Q 102.79,114.32 101.67,113.31 A 0.56,0.55 -50.6 0 1 101.60,112.56 Q 102.32,111.60 101.53,111.21 A 0.72,0.49 -56.3 0 0 100.80,111.50 Q 100.16,112.35 98.96,111.94 A 1.45,1.43 -45.3 0 0 98.04,111.95 Q 96.74,112.42 96.01,111.43 A 0.54,0.44 52.8 0 0 95.33,111.26 Q 94.65,111.78 95.32,112.26 A 0.50,0.44 35.5 0 1 95.47,112.91 Q 94.28,114.55 94.39,112.80 A 1.46,1.34 31.6 0 0 94.14,111.92 Q 93.62,111.16 93.46,110.25 Q 94.57,109.63 95.56,110.19 Q 98.36,111.77 100.98,110.32 Q 101.67,109.94 102.10,109.94 Q 102.73,109.95 103.29,110.25 Z"/>
<path fill="#000000" d="M 104.50,116.46 Q 105.21,114.85 106.07,113.32 Q 106.23,113.03 106.49,112.74 Q 107.79,111.30 105.71,112.07 A 0.38,0.34 -10.1 0 1 105.20,111.76 Q 105.24,110.74 106.50,110.21 Q 107.04,110.67 107.75,110.21 Q 117.33,109.16 126.70,111.20 A 0.57,0.50 -80.6 0 1 127.08,111.81 Q 126.92,113.25 128.69,113.51 A 0.34,0.33 19.3 0 1 128.94,114.00 Q 125.90,119.32 119.75,120.48 Q 111.09,122.11 104.50,116.46 ZM 112.75,112.29 Q 112.04,112.08 111.50,112.54 Q 108.26,111.81 106.56,115.83 A 0.96,0.96 28.4 0 0 106.91,117.00 Q 112.23,120.59 118.74,119.70 Q 122.67,119.16 125.15,115.94 A 0.96,0.95 -42.3 0 0 125.21,114.85 Q 123.42,111.99 120.00,112.29 Q 119.06,112.36 118.17,112.06 Q 116.86,111.61 117.46,112.86 Q 118.35,114.73 117.31,115.80 Q 116.42,116.72 114.97,116.36 Q 112.63,115.77 113.25,112.79 Q 113.51,112.89 115.00,113.00 Q 115.90,113.07 115.95,112.66 A 0.75,0.51 10.0 0 0 115.33,112.06 Q 114.03,111.78 112.75,112.29 Z"/>
<ellipse fill="#ed9872" cx="0.00" cy="0.00" transform="translate(136.90,110.48) rotate(0.3)" rx="2.23" ry="0.54"/>
<path fill="#ed9872" d="M 135.79,132.75 Q 141.12,131.25 135.96,132.00 L 138.00,117.29 Q 139.68,117.62 140.50,120.35 Q 140.90,121.71 140.97,120.30 Q 141.02,119.31 140.41,118.00 Q 140.39,117.96 139.81,117.24 Q 138.90,116.11 141.67,113.66 Q 142.06,113.32 142.37,112.90 Q 143.45,111.48 141.64,112.39 Q 141.33,112.55 141.06,112.83 Q 139.51,114.51 137.79,116.00 Q 136.54,112.61 139.34,111.69 A 1.11,1.00 -85.0 0 0 139.98,111.09 Q 140.73,109.42 142.85,110.38 Q 144.71,111.24 144.89,113.28 Q 145.98,125.56 139.24,134.10 Q 138.51,135.03 137.65,135.82 Q 133.11,140.01 135.79,132.75 Z"/>
<path fill="#feb286" d="M 93.25,115.54 L 91.96,116.00 L 89.73,112.19 A 0.37,0.34 71.7 0 1 89.98,111.64 Q 90.76,111.59 91.00,112.50 Q 91.59,114.74 93.25,115.54 Z"/>
<path fill="#ffffff" d="M 78.79,113.00 Q 78.27,112.74 78.25,112.29 L 79.99,111.97 A 0.77,0.67 71.4 0 1 80.76,112.42 Q 81.26,113.49 78.79,113.00 Z"/>
<path fill="#ffffff" d="M 76.50,112.29 Q 75.21,117.71 79.60,118.59 Q 82.31,119.13 84.10,117.59 Q 86.21,115.78 85.25,112.29 Q 89.09,112.43 89.96,116.08 A 0.76,0.73 -25.3 0 1 89.66,116.86 Q 86.37,119.21 81.50,119.75 Q 75.01,120.47 71.31,115.90 A 0.81,0.78 39.6 0 1 71.21,115.04 Q 72.74,111.96 76.50,112.29 Z"/>
<path fill="#ffffff" d="M 113.25,112.79 Q 112.90,112.64 112.75,112.29 Q 114.03,111.78 115.33,112.06 A 0.75,0.51 10.0 0 1 115.95,112.66 Q 115.90,113.07 115.00,113.00 Q 113.51,112.89 113.25,112.79 Z"/>
<path fill="#823c2e" d="M 120.00,112.29 Q 120.90,117.41 117.29,118.51 Q 114.84,119.25 112.71,118.00 Q 109.96,116.38 111.50,112.54 Q 112.04,112.08 112.75,112.29 Q 112.90,112.64 113.25,112.79 Q 112.63,115.77 114.97,116.36 Q 116.42,116.72 117.31,115.80 Q 118.35,114.73 117.46,112.86 Q 116.86,111.61 118.17,112.06 Q 119.06,112.36 120.00,112.29 Z"/>
<path fill="#5c2f1d" d="M 138.00,117.29 Q 137.54,116.74 137.79,116.00 Q 139.51,114.51 141.06,112.83 Q 141.33,112.55 141.64,112.39 Q 143.45,111.48 142.37,112.90 Q 142.06,113.32 141.67,113.66 Q 138.90,116.11 139.81,117.24 Q 140.39,117.96 140.41,118.00 Q 141.02,119.31 140.97,120.30 Q 140.90,121.71 140.50,120.35 Q 139.68,117.62 138.00,117.29 Z"/>
<path fill="#5c2f1d" d="M 57.96,116.00 Q 55.72,119.42 55.74,123.49 Q 55.74,124.03 55.57,123.52 Q 54.62,120.72 56.19,117.94 Q 57.82,115.04 54.79,113.50 Q 52.57,111.29 55.32,112.92 Q 57.16,114.02 57.96,116.00 Z"/>
<path fill="#99725b" d="M 62.25,114.96 L 61.54,115.00 Q 61.02,113.93 61.20,112.81 A 0.51,0.37 -72.7 0 1 61.79,112.37 Q 62.09,112.56 61.75,113.25 Q 61.29,114.19 62.25,114.96 Z"/>
<path fill="#823c2e" d="M 76.50,112.29 L 78.25,112.29 Q 78.27,112.74 78.79,113.00 Q 78.05,116.92 81.19,116.30 Q 82.59,116.02 83.04,115.25 Q 83.59,114.29 82.76,112.73 A 0.32,0.31 76.5 0 1 83.04,112.26 L 85.25,112.29 Q 86.21,115.78 84.10,117.59 Q 82.31,119.13 79.60,118.59 Q 75.21,117.71 76.50,112.29 Z"/>
<path fill="#ffffff" d="M 111.50,112.54 Q 109.96,116.38 112.71,118.00 Q 114.84,119.25 117.29,118.51 Q 120.90,117.41 120.00,112.29 Q 123.42,111.99 125.21,114.85 A 0.96,0.95 -42.3 0 1 125.15,115.94 Q 122.67,119.16 118.74,119.70 Q 112.23,120.59 106.91,117.00 A 0.96,0.96 28.4 0 1 106.56,115.83 Q 108.26,111.81 111.50,112.54 Z"/>
<path fill="#feb286" d="M 103.29,115.75 Q 102.63,116.34 102.71,117.25 Q 101.09,122.69 103.11,127.99 Q 103.98,130.26 103.75,127.25 Q 103.49,123.84 103.75,122.96 Q 110.90,133.14 123.00,131.00 Q 130.27,129.71 133.48,122.77 A 0.59,0.49 20.0 0 1 134.14,122.53 Q 134.78,122.71 134.79,121.75 Q 134.99,122.74 134.50,125.00 Q 132.24,135.40 130.02,145.80 Q 128.84,151.33 123.81,156.81 Q 118.88,162.20 115.25,164.29 Q 112.65,163.22 109.93,163.50 A 1.46,1.03 -22.9 0 1 109.01,163.30 L 106.01,161.12 A 0.44,0.40 43.4 0 0 105.50,161.11 Q 104.18,162.14 103.80,161.11 Q 103.20,159.53 102.46,158.00 Q 102.54,157.09 103.28,156.69 Q 103.65,156.49 103.26,156.45 Q 99.02,156.06 94.75,156.02 Q 90.12,155.98 94.29,157.75 L 92.77,160.34 Q 92.55,160.71 92.32,160.30 Q 91.97,159.68 91.48,160.46 Q 90.02,162.83 87.46,163.83 A 1.18,0.79 -33.9 0 1 86.54,163.83 L 86.12,163.57 A 1.32,0.87 45.5 0 0 85.27,163.39 L 81.50,164.29 Q 80.52,164.35 79.77,163.75 Q 75.33,160.19 71.69,155.81 Q 67.19,150.41 66.24,145.55 Q 63.89,133.65 63.00,130.25 Q 61.75,125.49 61.79,121.75 Q 62.66,121.53 63.00,122.50 Q 65.18,128.80 72.05,130.72 Q 79.24,132.73 85.81,129.32 Q 94.16,124.98 93.75,115.46 Q 95.15,114.89 96.03,113.72 A 1.28,0.67 -62.4 0 1 96.79,113.19 L 99.50,112.96 A 1.21,0.33 42.5 0 1 100.33,113.39 L 103.29,115.75 ZM 100.25,139.04 Q 98.15,138.44 96.00,138.79 Q 94.54,136.96 92.56,138.06 Q 88.00,140.60 90.00,135.28 Q 90.19,134.79 89.81,135.14 Q 87.14,137.59 89.84,139.70 A 1.40,1.37 -26.2 0 0 90.76,140.00 Q 92.33,139.94 92.89,139.25 A 0.94,0.93 -48.2 0 1 94.27,139.17 Q 99.20,143.98 101.80,139.09 A 0.64,0.63 30.9 0 1 102.72,138.86 Q 105.45,140.73 107.19,139.39 A 1.32,1.15 78.8 0 0 107.66,138.57 Q 107.98,136.45 106.60,134.87 Q 106.17,134.37 106.10,134.98 Q 106.06,135.30 106.21,135.60 Q 106.54,136.26 106.56,136.49 Q 106.99,140.30 104.36,138.44 Q 103.14,137.58 102.41,137.63 Q 101.12,137.73 100.25,139.04 ZM 95.06,151.23 Q 89.14,150.84 82.48,148.57 A 1.13,1.12 21.0 0 0 81.08,149.19 Q 80.33,150.90 82.18,150.84 Q 83.21,150.81 83.79,150.96 Q 97.99,154.56 112.17,150.97 Q 112.83,150.80 113.85,150.84 Q 116.14,150.92 114.66,148.77 A 0.90,0.88 62.1 0 0 113.62,148.44 Q 104.30,151.85 95.06,151.23 Z"/>
<path fill="#dd7d5e" d="M 54.79,113.50 Q 57.82,115.04 56.19,117.94 Q 54.62,120.72 55.57,123.52 Q 55.74,124.03 55.74,123.49 Q 55.72,119.42 57.96,116.00 Q 58.21,116.40 58.71,116.25 Q 58.83,124.56 60.50,132.71 Q 60.17,132.55 59.80,132.58 A 1.20,0.80 -17.2 0 1 58.95,132.33 Q 55.00,128.29 53.50,121.75 Q 52.39,116.92 54.79,113.50 Z"/>
<path fill="#f4e9e3" d="M 62.96,114.75 Q 61.96,124.98 69.59,128.67 Q 73.97,130.80 79.28,130.28 Q 84.52,129.76 88.81,126.56 Q 91.67,124.43 91.92,120.75 Q 91.95,120.37 92.22,118.67 Q 92.40,117.59 92.04,116.50 L 91.96,116.00 L 93.25,115.54 L 93.75,115.46 Q 94.16,124.98 85.81,129.32 Q 79.24,132.73 72.05,130.72 Q 65.18,128.80 63.00,122.50 Q 62.66,121.53 61.79,121.75 L 61.54,115.00 L 62.25,114.96 L 62.96,114.75 Z"/>
<path fill="#f4e9e3" d="M 133.79,114.75 Q 135.06,114.72 135.07,116.00 Q 135.11,118.88 134.79,121.75 Q 134.78,122.71 134.14,122.53 A 0.59,0.49 20.0 0 0 133.48,122.77 Q 130.27,129.71 123.00,131.00 Q 110.90,133.14 103.75,122.96 L 102.71,117.25 Q 102.63,116.34 103.29,115.75 Q 103.49,115.91 103.75,115.96 Q 104.33,115.92 104.29,116.50 Q 103.51,121.39 106.06,124.44 Q 112.61,132.26 123.45,129.56 Q 134.80,126.73 133.79,114.75 Z"/>
<path fill="#823c2e" d="M 102.71,117.25 L 103.75,122.96 Q 103.49,123.84 103.75,127.25 Q 103.98,130.26 103.11,127.99 Q 101.09,122.69 102.71,117.25 Z"/>
<path fill="#dd7d5e" d="M 106.32,120.70 L 109.81,123.93 Q 110.47,124.55 109.65,124.16 Q 107.26,123.04 105.99,120.99 Q 105.12,119.58 106.32,120.70 Z"/>
<path fill="#dd7d5e" d="M 89.89,120.44 Q 90.20,119.94 90.79,120.07 A 0.40,0.36 -65.3 0 1 90.98,120.67 Q 89.42,122.97 86.80,124.07 Q 85.58,124.58 86.62,123.77 Q 88.04,122.66 89.32,121.32 Q 89.37,121.27 89.89,120.44 Z"/>
<path fill="#823c2e" d="M 135.79,132.75 Q 135.58,132.26 135.96,132.00 Q 141.12,131.25 135.79,132.75 Z"/>
<path fill="#5c2f1d" d="M 96.00,138.79 Q 97.87,142.72 100.25,139.04 Q 101.12,137.73 102.41,137.63 Q 103.14,137.58 104.36,138.44 Q 106.99,140.30 106.56,136.49 Q 106.54,136.26 106.21,135.60 Q 106.06,135.30 106.10,134.98 Q 106.17,134.37 106.60,134.87 Q 107.98,136.45 107.66,138.57 A 1.32,1.15 78.8 0 1 107.19,139.39 Q 105.45,140.73 102.72,138.86 A 0.64,0.63 30.9 0 0 101.80,139.09 Q 99.20,143.98 94.27,139.17 A 0.94,0.93 -48.2 0 0 92.89,139.25 Q 92.33,139.94 90.76,140.00 A 1.40,1.37 -26.2 0 1 89.84,139.70 Q 87.14,137.59 89.81,135.14 Q 90.19,134.79 90.00,135.28 Q 88.00,140.60 92.56,138.06 Q 94.54,136.96 96.00,138.79 Z"/>
<path fill="#dd7d5e" d="M 100.25,139.04 Q 97.87,142.72 96.00,138.79 Q 98.15,138.44 100.25,139.04 Z"/>
<path fill="#000000" d="M 95.06,151.23 Q 104.30,151.85 113.62,148.44 A 0.90,0.88 62.1 0 1 114.66,148.77 Q 116.14,150.92 113.85,150.84 Q 112.83,150.80 112.17,150.97 Q 97.99,154.56 83.79,150.96 Q 83.21,150.81 82.18,150.84 Q 80.33,150.90 81.08,149.19 A 1.13,1.12 21.0 0 1 82.48,148.57 Q 89.14,150.84 95.06,151.23 Z"/>
<path fill="#b5702e" d="M 102.46,158.00 L 94.29,157.75 Q 90.12,155.98 94.75,156.02 Q 99.02,156.06 103.26,156.45 Q 103.65,156.49 103.28,156.69 Q 102.54,157.09 102.46,158.00 Z"/>
<path fill="#191b1b" d="M 94.29,157.75 L 102.46,158.00 Q 103.20,159.53 103.80,161.11 Q 104.18,162.14 105.50,161.11 A 0.44,0.40 43.4 0 1 106.01,161.12 L 109.01,163.30 A 1.46,1.03 -22.9 0 0 109.93,163.50 Q 112.65,163.22 115.25,164.29 Q 115.40,165.24 114.71,165.64 Q 114.02,166.05 113.97,166.09 Q 109.10,170.08 107.19,171.19 Q 96.79,177.22 87.39,169.87 Q 84.93,167.95 82.44,166.06 Q 81.24,165.15 81.50,164.29 L 85.27,163.39 A 1.32,0.87 45.5 0 1 86.12,163.57 L 86.54,163.83 A 1.18,0.79 -33.9 0 0 87.46,163.83 Q 90.02,162.83 91.48,160.46 Q 91.97,159.68 92.32,160.30 Q 92.55,160.71 92.77,160.34 L 94.29,157.75 Z"/>
<path fill="#354435" d="M 121.54,164.25 Q 121.37,163.91 121.00,163.96 Q 121.44,163.07 122.49,163.28 Q 125.41,163.85 128.69,165.50 A 2.72,2.15 18.5 0 1 130.21,167.83 L 129.70,173.46 Q 129.55,175.18 127.48,176.16 Q 119.05,180.21 110.24,183.26 A 1.40,1.39 -32.5 0 1 108.83,182.95 Q 107.07,181.28 106.10,183.92 Q 105.56,185.39 104.20,186.22 L 98.92,189.49 A 1.56,1.25 -53.0 0 1 98.01,189.72 Q 95.53,189.48 93.34,187.19 A 2.07,2.03 20.2 0 1 92.78,186.01 Q 92.41,183.12 90.44,183.14 A 0.92,0.73 -72.9 0 0 89.73,183.63 Q 88.90,185.18 87.43,184.43 Q 86.09,183.76 85.99,183.73 Q 76.17,180.16 67.25,175.66 A 2.87,2.29 -80.6 0 1 65.95,173.34 L 65.80,169.24 Q 65.70,166.48 67.54,165.52 Q 70.72,163.87 73.49,163.19 Q 74.01,163.07 74.25,163.24 Q 74.76,163.61 73.94,163.77 Q 71.93,164.18 70.56,165.35 Q 68.61,167.01 70.55,168.68 Q 73.88,171.54 77.87,173.31 Q 85.95,176.90 92.93,182.32 Q 95.20,184.09 97.00,187.08 A 0.68,0.68 -40.7 0 0 98.10,187.16 Q 101.42,183.11 104.97,180.68 Q 112.29,175.64 120.36,171.91 Q 123.13,170.63 124.94,169.19 Q 126.75,167.74 125.73,166.19 Q 125.21,165.39 123.80,164.95 Q 122.67,164.59 121.54,164.25 Z"/>
<path fill="#272b2b" d="M 121.00,163.96 Q 121.37,163.91 121.54,164.25 Q 121.09,165.26 122.40,165.69 Q 125.40,166.66 121.36,169.08 A 2.69,2.68 42.0 0 1 118.85,169.21 Q 118.89,169.23 118.02,167.01 A 1.14,1.08 63.2 0 1 118.42,165.67 L 121.00,163.96 Z"/>
<path fill="#272b2b" d="M 78.20,165.95 A 0.84,0.80 33.0 0 1 78.46,167.05 L 77.04,169.34 A 0.73,0.72 22.2 0 1 76.27,169.66 Q 74.15,169.18 72.35,167.49 A 0.99,0.99 -44.2 0 1 72.37,166.03 Q 74.92,163.74 78.20,165.95 Z"/>
<path fill="#f4e9e3" d="M 84.06,170.26 Q 84.92,170.44 84.55,171.02 A 0.73,0.73 -51.4 0 1 83.41,171.15 Q 81.67,169.43 81.53,170.32 Q 81.46,170.76 81.86,171.49 Q 82.62,172.89 83.44,174.27 Q 83.72,174.74 83.24,174.48 L 79.49,172.45 A 0.73,0.67 -71.6 0 1 79.15,171.69 Q 80.08,167.04 83.21,169.85 Q 83.53,170.14 84.06,170.26 Z"/>
<path fill="#f4e9e3" d="M 114.10,170.02 Q 113.47,171.12 112.25,171.24 Q 111.69,171.30 112.00,170.82 Q 113.00,169.30 114.77,168.85 A 1.03,0.95 57.0 0 1 115.65,169.07 Q 118.72,171.65 114.31,173.06 Q 112.92,173.51 113.94,172.45 Q 115.40,170.94 114.66,169.92 A 0.36,0.31 -50.7 0 0 114.10,170.02 Z"/>
<path fill="#feb286" d="M 110.76,173.77 Q 111.29,173.99 110.79,174.27 Q 103.57,178.26 97.84,184.38 A 0.43,0.43 -43.0 0 1 97.19,184.36 Q 92.78,178.90 86.89,175.06 Q 86.15,174.58 85.96,174.10 Q 85.57,173.16 87.29,173.38 Q 87.89,173.45 88.63,173.82 Q 98.03,178.39 107.60,173.75 Q 109.03,173.05 110.76,173.77 Z"/>
<path fill="#354435" d="M 142.04,178.25 Q 126.45,187.74 108.25,189.79 Q 107.55,188.59 108.07,187.53 Q 108.43,186.79 109.66,186.31 Q 118.59,182.84 127.32,178.90 Q 129.76,177.79 132.16,175.48 A 0.94,0.92 -59.6 0 1 133.02,175.25 Q 135.48,175.87 138.01,176.16 Q 140.47,176.44 142.04,178.25 Z"/>
<path fill="#354435" d="M 91.25,189.96 Q 84.24,189.88 75.19,187.31 Q 63.01,183.86 54.21,178.50 Q 54.59,177.36 55.63,177.08 Q 56.74,176.79 56.83,176.76 Q 59.70,175.62 63.09,175.49 A 1.17,1.16 -23.6 0 1 63.96,175.83 Q 65.77,177.68 67.83,178.65 Q 79.58,184.20 87.25,186.75 Q 89.05,187.35 89.95,188.09 A 1.38,1.38 64.6 0 0 90.82,188.40 Q 92.29,188.40 91.25,189.96 Z"/>
</svg>
