<?xml version="1.0" encoding="UTF-8" standalone="no"?>
<!DOCTYPE svg PUBLIC "-//W3C//DTD SVG 1.1//EN" "http://www.w3.org/Graphics/SVG/1.1/DTD/svg11.dtd">
<svg xmlns="http://www.w3.org/2000/svg" version="1.1" viewBox="0 0 225 225">
<path fill="#149ef2" d="M 101.45,137.30 Q 103.06,140.27 100.26,142.60 Q 98.64,143.95 95.73,144.16 Q 68.44,146.21 50.32,125.70 Q 37.59,111.29 37.00,92.25 Q 36.65,80.81 40.74,70.38 Q 44.43,60.99 51.29,53.54 Q 64.09,39.63 84.17,37.01 Q 89.77,36.28 90.87,41.17 Q 91.47,43.82 89.47,45.65 Q 69.52,64.04 70.96,89.85 Q 71.54,100.14 75.65,109.14 Q 82.54,124.20 96.97,133.37 Q 100.54,135.64 101.45,137.30 Z"/>
<path fill="#ffa30f" d="M 175.79,85.73 Q 156.44,68.12 131.53,71.27 Q 121.19,72.58 112.57,77.21 Q 100.10,83.90 92.30,96.23 Q 89.75,100.27 88.49,101.16 Q 85.64,103.17 82.86,100.61 Q 81.23,99.12 80.89,96.30 Q 79.84,87.64 81.87,79.08 Q 85.73,62.86 97.15,51.94 Q 104.40,45.01 113.81,41.09 Q 127.07,35.57 141.42,37.46 Q 151.29,38.76 160.34,43.56 Q 183.19,55.71 187.63,82.94 Q 188.15,86.17 187.40,88.01 Q 186.10,91.22 182.34,90.80 Q 180.67,90.61 179.20,89.23 Q 178.31,88.39 177.48,87.48 Q 176.43,86.31 175.79,85.73 Z"/>
<path fill="#8252de" d="M 169.48,94.03 Q 183.47,106.35 186.91,123.82 Q 188.83,133.60 187.17,143.70 Q 184.49,159.99 173.17,171.86 Q 166.72,178.62 158.64,182.56 Q 150.51,186.52 141.06,187.81 Q 136.43,188.45 134.72,185.10 Q 133.65,183.02 134.84,180.94 Q 135.80,179.28 137.69,177.44 Q 155.41,160.16 154.22,135.92 Q 153.71,125.57 149.79,116.53 Q 142.66,100.10 126.44,90.81 Q 124.63,89.78 123.70,88.19 Q 122.75,86.55 123.37,84.70 Q 124.61,81.03 129.50,80.75 Q 152.86,79.39 169.48,94.03 Z"/>
<path fill="#f20057" d="M 47.58,137.73 Q 61.50,151.86 81.00,154.00 Q 95.11,155.55 108.69,149.69 Q 123.74,143.19 132.94,128.53 Q 135.35,124.70 136.92,123.72 Q 139.99,121.78 142.54,124.64 Q 144.01,126.29 144.23,129.31 Q 146.26,157.07 125.56,175.06 Q 115.52,183.79 102.66,186.67 Q 92.90,188.85 82.78,187.47 Q 69.49,185.65 58.74,177.85 Q 50.31,171.73 45.12,163.37 Q 39.15,153.75 37.25,141.25 Q 36.62,137.13 39.30,135.35 Q 43.31,132.69 46.16,136.06 Q 47.51,137.66 47.58,137.73 Z"/>
</svg>
