<?xml version="1.0" encoding="UTF-8" standalone="no"?>
<!DOCTYPE svg PUBLIC "-//W3C//DTD SVG 1.1//EN" "http://www.w3.org/Graphics/SVG/1.1/DTD/svg11.dtd">
<svg xmlns="http://www.w3.org/2000/svg" version="1.1" viewBox="0 0 400 400">
<path fill="#ec4c4e" d="M 209.25,117.04 Q 208.23,117.25 206.81,118.56 Q 188.59,135.48 176.24,148.73 Q 174.83,150.24 173.04,151.25 Q 172.53,150.73 171.00,150.75 Q 158.62,150.94 149.50,150.50 Q 146.35,150.35 143.46,148.98 Q 140.72,147.69 138.63,145.29 Q 135.10,141.25 134.51,135.98 Q 133.95,130.98 136.33,126.46 Q 139.19,121.03 144.90,118.81 Q 148.19,117.52 155.77,117.42 Q 182.51,117.05 209.25,117.04 Z"/>
<path fill="#ffb107" d="M 209.25,117.04 Q 214.26,116.86 219.19,117.79 Q 225.94,119.06 229.60,124.85 Q 235.31,133.90 231.75,142.43 Q 230.19,146.16 223.91,152.53 Q 209.84,166.80 195.79,181.09 Q 195.53,181.34 195.50,181.62 Q 195.46,181.93 195.54,182.25 Q 195.44,183.08 194.94,182.56 Q 172.84,182.89 150.75,182.67 Q 145.58,182.62 141.56,184.81 Q 140.87,185.19 140.46,184.75 Q 155.80,168.77 167.94,156.94 Q 171.08,153.88 173.04,151.25 Q 174.83,150.24 176.24,148.73 Q 188.59,135.48 206.81,118.56 Q 208.23,117.25 209.25,117.04 Z"/>
<path fill="#410504" d="M 195.54,182.25 Q 206.51,182.87 217.50,183.00 Q 221.04,183.04 225.05,186.00 Q 231.43,190.70 232.27,197.72 Q 233.05,204.29 229.28,209.67 Q 226.62,213.48 222.22,215.41 Q 219.20,216.74 213.56,216.82 Q 184.19,217.28 154.81,216.83 Q 148.44,216.73 145.38,215.47 Q 142.26,214.19 139.77,211.86 Q 137.48,209.73 136.01,206.54 Q 130.53,194.66 140.46,184.75 Q 140.87,185.19 141.56,184.81 Q 145.58,182.62 150.75,182.67 Q 172.84,182.89 194.94,182.56 Q 195.44,183.08 195.54,182.25 Z"/>
<circle fill="#410504" cx="256.64" cy="199.87" r="16.83"/>
<path fill="#0d0202" fill-opacity="0.996" d="M 331.36,259.72 A 9.04 9.04 0.0 0 1 322.32,268.76 A 9.04 9.04 0.0 0 1 313.28,259.72 A 9.04 9.04 0.0 0 1 322.32,250.68 A 9.04 9.04 0.0 0 1 331.36,259.72 ZM 329.63,259.82 A 7.21 7.21 0.0 0 0 322.42,252.61 A 7.21 7.21 0.0 0 0 315.21,259.82 A 7.21 7.21 0.0 0 0 322.42,267.03 A 7.21 7.21 0.0 0 0 329.63,259.82 Z"/>
<rect fill="#0d0202" fill-opacity="0.996" x="-1.95" y="-3.69" transform="translate(148.97,255.71) rotate(-1.0)" width="3.90" height="7.38" rx="1.11"/>
<path fill="#2f0704" fill-opacity="0.988" d="M 80.29,276.50 L 76.50,274.96 L 88.85,257.57 Q 89.39,256.80 88.45,256.81 Q 80.34,256.94 72.24,256.77 Q 72.13,256.76 70.76,256.82 Q 67.83,256.93 68.65,254.05 A 0.72,0.69 7.1 0 1 69.32,253.55 L 93.12,253.25 A 0.83,0.82 86.6 0 1 93.95,253.99 Q 94.20,256.36 93.15,257.91 Q 86.78,267.25 80.29,276.50 Z"/>
<path fill="#340905" fill-opacity="0.996" d="M 182.44,257.06 L 171.31,256.72 A 0.62,0.52 1.1 0 1 170.71,256.20 L 170.71,253.81 A 0.59,0.51 0.0 0 1 171.30,253.30 L 198.81,253.43 A 0.69,0.65 -7.1 0 1 199.47,253.91 Q 199.78,255.09 199.42,256.28 A 0.73,0.68 -80.7 0 1 198.76,256.79 L 187.54,256.83 A 0.61,0.56 0.0 0 0 186.93,257.39 L 186.94,288.94 A 0.90,0.80 77.2 0 1 186.52,289.70 Q 185.02,290.51 183.50,289.70 A 0.84,0.78 -76.0 0 1 183.08,288.94 Q 183.58,273.25 182.96,257.57 A 0.54,0.53 0.0 0 0 182.44,257.06 Z"/>
<path fill="#0d0202" fill-opacity="0.996" d="M 321.94,261.28 Q 320.72,261.33 320.75,263.00 Q 320.78,264.47 319.77,264.15 A 0.73,0.67 -81.6 0 1 319.30,263.45 L 319.30,256.27 A 1.11,1.05 -3.0 0 1 320.30,255.22 Q 327.79,254.52 324.93,260.95 A 1.07,1.06 43.4 0 0 324.96,261.88 Q 326.22,264.30 324.54,263.85 A 1.56,1.09 72.8 0 1 323.79,263.27 L 322.73,261.72 A 1.02,0.83 68.2 0 0 321.94,261.28 ZM 322.73,256.55 A 1.13,1.12 -68.0 0 0 320.99,257.29 Q 320.45,260.43 323.10,259.24 Q 325.27,258.26 322.73,256.55 Z"/>
<path fill="#0d0202" fill-opacity="0.996" d="M 133.54,269.50 Q 134.92,267.43 133.00,266.21 Q 136.01,263.52 140.02,263.27 Q 140.17,263.27 141.46,263.09 Q 143.49,262.81 142.68,265.49 A 1.75,1.74 -79.2 0 1 140.88,266.72 Q 136.74,266.41 133.54,269.50 Z"/>
<path fill="#1a0201" fill-opacity="0.996" d="M 303.96,270.50 Q 303.92,272.63 304.21,274.76 Q 304.64,277.95 301.81,278.07 A 0.53,0.46 -88.6 0 0 301.36,278.57 Q 301.32,279.16 300.75,279.21 Q 301.13,273.94 300.00,271.00 Q 299.29,269.15 297.41,267.82 Q 295.78,266.66 293.69,266.67 Q 289.28,266.71 287.23,270.13 Q 286.00,272.16 286.01,276.62 Q 286.02,282.78 285.95,288.93 A 0.92,0.82 78.1 0 1 285.51,289.70 Q 284.01,290.53 282.50,289.71 A 0.90,0.84 -76.6 0 1 282.06,288.94 Q 281.88,278.11 282.00,276.00 Q 282.40,268.95 276.92,267.10 Q 273.54,265.96 270.73,267.64 Q 267.59,269.52 267.25,273.75 Q 266.88,278.35 266.94,288.95 A 0.92,0.85 75.7 0 1 266.52,289.72 Q 265.02,290.58 263.64,289.57 A 1.06,0.92 -74.6 0 1 263.25,288.75 L 263.25,264.67 A 0.83,0.82 -9.4 0 1 263.82,263.89 Q 267.24,262.77 267.07,265.78 Q 267.01,266.86 267.87,266.21 Q 276.86,259.38 284.27,267.95 A 0.44,0.43 -46.9 0 0 284.95,267.92 Q 286.65,265.64 289.04,264.31 Q 291.37,263.02 294.18,263.13 Q 301.20,263.41 303.96,270.50 Z"/>
<path fill="#2f0704" fill-opacity="0.988" d="M 202.19,277.84 A 1.18,1.16 -7.5 0 0 201.04,279.32 Q 202.29,283.58 205.42,285.60 Q 208.46,287.57 212.36,286.94 Q 216.29,286.31 218.99,283.05 Q 219.76,282.12 220.46,282.01 Q 221.41,281.87 222.37,282.48 A 1.00,1.00 -57.5 0 1 222.68,283.88 Q 219.17,289.25 213.00,290.22 Q 208.23,290.97 204.35,288.98 Q 200.61,287.07 198.44,283.20 Q 195.13,277.27 198.44,270.19 Q 200.82,265.10 206.59,263.70 Q 215.51,261.55 221.14,268.35 Q 224.24,272.10 224.00,276.97 A 1.06,1.04 -88.3 0 1 222.95,277.98 L 202.19,277.84 ZM 214.50,267.57 Q 205.44,263.76 201.10,273.80 A 0.82,0.80 11.0 0 0 201.87,274.91 L 218.72,274.77 A 1.16,1.15 -6.7 0 0 219.85,273.36 Q 219.38,271.36 217.84,269.75 Q 216.58,268.44 214.50,267.57 Z"/>
<path fill="#340905" fill-opacity="0.996" d="M 252.29,287.75 Q 253.23,287.17 252.83,286.35 A 0.78,0.78 75.0 0 0 252.07,285.91 Q 251.16,285.98 251.75,287.21 Q 242.17,293.62 234.15,287.52 Q 231.04,285.16 229.97,282.10 Q 228.88,278.99 229.25,275.00 Q 230.10,265.92 238.06,263.81 Q 245.08,261.96 251.58,266.51 Q 252.57,267.21 252.37,266.02 Q 252.09,264.40 254.93,263.69 A 1.42,1.41 -7.2 0 1 256.69,265.05 L 256.75,288.41 A 1.42,1.41 0.4 0 1 255.30,289.83 Q 252.21,289.78 252.29,287.75 ZM 242.5943,287.0492 A 10.29,10.00 90.7 0 0 252.7193,276.8822 A 10.29,10.00 90.7 0 0 242.8457,266.4708 A 10.29,10.00 90.7 0 0 232.7207,276.6378 A 10.29,10.00 90.7 0 0 242.5943,287.0492 Z"/>
<path fill="#2f0704" fill-opacity="0.988" d="M 101.76,277.75 Q 101.64,283.26 105.49,285.71 Q 108.45,287.59 111.76,286.66 Q 114.18,285.98 115.77,283.98 Q 116.99,282.46 117.16,279.67 Q 117.59,272.76 117.51,265.83 Q 117.50,264.32 118.12,263.89 Q 118.97,263.31 120.66,264.04 A 0.97,0.97 11.5 0 1 121.25,264.93 Q 121.25,271.29 121.25,277.20 Q 121.25,282.54 119.87,285.04 Q 117.46,289.41 112.00,290.25 Q 103.59,291.54 99.66,284.99 Q 98.24,282.61 98.13,278.69 Q 97.93,271.62 98.29,264.55 A 0.96,0.86 77.8 0 1 98.73,263.78 Q 99.89,263.11 101.13,263.70 A 0.90,0.78 -81.1 0 1 101.59,264.44 Q 101.91,271.09 101.76,277.75 Z"/>
<path fill="#340905" fill-opacity="0.996" d="M 133.00,266.21 Q 134.92,267.43 133.54,269.50 Q 132.07,271.41 132.00,272.75 Q 131.58,280.62 131.76,288.86 A 0.80,0.80 76.9 0 1 131.30,289.60 Q 129.54,290.46 128.37,289.58 A 1.10,0.86 -76.1 0 1 128.00,288.75 L 128.00,265.13 A 1.57,1.57 80.7 0 1 129.07,263.64 Q 131.94,262.69 132.06,265.95 A 0.43,0.35 81.0 0 0 132.53,266.37 L 133.00,266.21 Z"/>
<rect fill="#2f0704" fill-opacity="0.988" x="147.01" y="263.54" width="3.98" height="26.46" rx="0.93"/>
<path fill="#0d0202" fill-opacity="0.996" d="M 303.96,270.50 Q 305.37,279.86 304.61,288.76 A 1.12,1.11 -3.1 0 1 303.71,289.76 Q 300.66,290.36 300.67,288.60 Q 300.68,287.49 300.67,287.42 Q 300.17,283.31 300.75,279.21 Q 301.32,279.16 301.36,278.57 A 0.53,0.46 -88.6 0 1 301.81,278.07 Q 304.64,277.95 304.21,274.76 Q 303.92,272.63 303.96,270.50 Z"/>
<path fill="#0d0202" fill-opacity="0.996" d="M 76.50,274.96 L 80.29,276.50 L 74.50,284.85 Q 73.53,286.25 75.23,286.25 L 93.01,286.25 A 0.77,0.76 78.2 0 1 93.71,286.71 Q 95.28,290.34 91.63,290.13 Q 89.44,290.01 89.37,290.01 Q 80.25,290.08 71.14,289.77 Q 71.05,289.77 69.89,289.92 Q 68.68,290.08 68.55,288.38 A 4.33,3.33 65.3 0 1 69.13,285.85 L 76.50,274.96 Z"/>
<path fill="#ec4c4e" d="M 252.29,287.75 Q 252.12,287.38 251.75,287.21 Q 251.16,285.98 252.07,285.91 A 0.78,0.78 75.0 0 1 252.83,286.35 Q 253.23,287.17 252.29,287.75 Z"/>
</svg>
